<?xml version="1.0" encoding="utf-8"?>
<!-- Generator: Adobe Illustrator 24.2.3, SVG Export Plug-In . SVG Version: 6.00 Build 0)  -->
<svg version="1.1" xmlns="http://www.w3.org/2000/svg" xmlns:xlink="http://www.w3.org/1999/xlink" x="0px" y="0px"
	 viewBox="0 0 750 500" style="enable-background:new 0 0 750 500;" xml:space="preserve">
<style type="text/css">
	.st0{fill:#E0E0E0;}
	.st1{fill:#EBEBEB;}
	.st2{fill:#FFFFFF;}
	.st3{fill:#F5F5F5;}
	.st4{fill:#FAFAFA;}
	.st5{display:none;}
	.st6{display:inline;fill:#F5F5F5;}
	.st7{fill:#263238;}
	.st8{fill:#FF725E;}
	.st9{opacity:0.2;}
	.st10{fill:#455A64;}
	.st11{fill:#FFBF9D;}
	.st12{fill:#FF9A6C;}
	.st13{opacity:0.3;}
	.st14{fill:#A26760;}
	.st15{fill:#7B4B45;}
</style>
<g id="Background_Complete">
	<g>
		<g>
			<rect x="110.84" y="53.17" class="st0" width="138.04" height="228.5"/>
		</g>
		<g>
			<rect x="106.25" y="53.17" class="st1" width="138.04" height="228.5"/>
		</g>
		<g>
			<rect x="112.13" y="57.81" class="st2" width="126.28" height="219.23"/>
		</g>
		<g>
			<g>
				<rect x="136.17" y="86.29" class="st1" width="77.65" height="162.25"/>
			</g>
			<g>
				<path class="st0" d="M136.17,191.13c-0.18-15.16,13.45-29.95,28.46-32.07c7.16-1.01,14.76,0.41,21.45-2.33
					c11.94-4.89,15.73-20.75,27.75-25.46l0.55,117.27h-78.2V191.13z"/>
			</g>
		</g>
	</g>
	<g>
		<g>
			<polygon class="st0" points="676.1,61.27 676.1,189.19 492.37,189.19 485.75,62.16 			"/>
		</g>
		<g>
			
				<rect x="514.23" y="33.68" transform="matrix(6.123234e-17 -1 1 6.123234e-17 452.0694 703.1586)" class="st3" width="126.76" height="183.73"/>
		</g>
		<g>
			<g>
				<rect x="505.65" y="77.91" class="st2" width="143.94" height="95.26"/>
			</g>
			<g>
				<g>
					<path class="st0" d="M649.58,77.91c0,0-0.25,0.02-0.71,0.02c-0.49,0.01-1.16,0.01-2.05,0.02c-1.82,0.01-4.47,0.03-7.9,0.05
						c-6.91,0.03-16.97,0.06-29.66,0.11c-25.38,0.05-61.31,0.12-103.61,0.2l0.42-0.42c0.01,29.11,0.02,61.36,0.04,95.25v0.01
						l-0.45-0.45c54.3,0.03,104.36,0.07,143.93,0.09l-0.36,0.36c0.08-28.99,0.14-52.76,0.19-69.31c0.04-8.27,0.07-14.74,0.09-19.17
						c0.02-2.19,0.03-3.87,0.04-5.04C649.56,78.52,649.58,77.91,649.58,77.91s0.03,0.55,0.04,1.67c0.01,1.15,0.02,2.81,0.04,4.97
						c0.02,4.41,0.05,10.85,0.09,19.09c0.05,16.61,0.11,40.45,0.19,69.54l0,0.36l-0.36,0c-39.58,0.03-89.64,0.06-143.93,0.09
						l-0.45,0v-0.45v-0.01c0.01-33.9,0.03-66.15,0.04-95.25l0-0.42l0.42,0c42.41,0.08,78.44,0.15,103.89,0.2
						c12.65,0.05,22.68,0.09,29.57,0.11c3.4,0.02,6.02,0.04,7.82,0.05c0.86,0.01,1.52,0.02,2,0.02
						C649.37,77.9,649.58,77.91,649.58,77.91z"/>
				</g>
			</g>
		</g>
		<g>
			<g>
				<path class="st0" d="M485.75,61.81c0.08-0.1,1.28,0.69,3.16,2.05c1.88,1.36,4.44,3.28,7.2,5.49c2.76,2.21,5.2,4.31,6.91,5.87
					c1.71,1.57,2.71,2.6,2.63,2.69c-0.17,0.19-4.59-3.45-10.11-7.86C490.02,65.66,485.59,62.02,485.75,61.81z"/>
			</g>
		</g>
		<g>
			<g>
				<path class="st0" d="M669.48,62.16c0.16,0.2-4.17,3.88-9.67,8.23c-5.5,4.35-10.08,7.72-10.23,7.52
					c-0.16-0.2,4.17-3.88,9.67-8.23C664.74,65.33,669.33,61.97,669.48,62.16z"/>
			</g>
		</g>
		<g>
			<g>
				<path class="st2" d="M669.34,188.94c-6.83-5.53-13.66-11.07-20.49-16.6"/>
			</g>
			<g>
				<g>
					<path class="st0" d="M648.85,172.34c0.16-0.19,4.87,3.36,10.53,7.95c5.66,4.59,10.12,8.46,9.96,8.65
						c-0.16,0.19-4.87-3.36-10.53-7.95C653.15,176.41,648.69,172.53,648.85,172.34z"/>
				</g>
			</g>
		</g>
		<g>
			<g>
				<path class="st0" d="M485.75,188.92c-0.16-0.2,4.13-3.84,9.57-8.14c5.44-4.3,9.97-7.63,10.13-7.43c0.16,0.2-4.13,3.84-9.57,8.15
					C490.44,185.79,485.9,189.12,485.75,188.92z"/>
			</g>
		</g>
		<g>
			
				<rect x="564.21" y="78.26" transform="matrix(6.123234e-17 -1 1 6.123234e-17 456.6124 703.6962)" class="st0" width="31.9" height="90.57"/>
		</g>
	</g>
	<g>
		<g>
			<g>
				<g>
					<g>
						<g>
							<g>
								<g>
									<g>
										<rect x="323.85" y="62.51" class="st0" width="101.94" height="106.26"/>
									</g>
								</g>
							</g>
						</g>
					</g>
				</g>
			</g>
		</g>
		<g>
			<g>
				<g>
					<g>
						<g>
							<g>
								<g>
									<g>
										<rect x="316.95" y="62.51" class="st4" width="101.94" height="106.26"/>
									</g>
								</g>
							</g>
						</g>
					</g>
				</g>
			</g>
			<g>
				<g>
					<g>
						<g>
							<g>
								<g>
									<g>
										<path class="st0" d="M418.92,168.81h-102V62.48h102V168.81z M316.98,168.74h101.88V62.55H316.98V168.74z"/>
									</g>
								</g>
							</g>
						</g>
					</g>
				</g>
			</g>
		</g>
		<g>
			<g>
				<g>
					<g>
						<g>
							<g>
								<g>
									<g>
										<rect x="330.65" y="76.8" class="st2" width="74.53" height="77.69"/>
									</g>
								</g>
							</g>
						</g>
					</g>
				</g>
			</g>
		</g>
		<g>
			<g>
				<g>
					<g>
						<g>
							<g>
								<g>
									<g>
										<g>
											<path class="st0" d="M330.65,155.01c0.06,0.07-0.65,0.88-1.84,2.14c-1.19,1.26-2.86,2.96-4.74,4.8
												c-1.88,1.85-3.6,3.49-4.87,4.66c-1.27,1.17-2.09,1.86-2.15,1.79c-0.06-0.07,0.64-0.87,1.83-2.13
												c1.19-1.26,2.87-2.96,4.75-4.81c1.88-1.85,3.61-3.5,4.88-4.67C329.78,155.63,330.59,154.94,330.65,155.01z"/>
										</g>
									</g>
								</g>
							</g>
						</g>
					</g>
				</g>
			</g>
		</g>
		<g>
			<g>
				<g>
					<g>
						<g>
							<g>
								<g>
									<g>
										<g>
											<path class="st0" d="M405.18,154.82c0.07-0.06,0.88,0.65,2.14,1.84c1.26,1.19,2.96,2.86,4.8,4.74
												c1.85,1.88,3.49,3.6,4.66,4.87c1.17,1.27,1.86,2.09,1.79,2.15c-0.06,0.06-0.87-0.64-2.13-1.83
												c-1.26-1.19-2.96-2.87-4.81-4.75c-1.85-1.88-3.5-3.61-4.67-4.88C405.8,155.69,405.11,154.88,405.18,154.82z"/>
										</g>
									</g>
								</g>
							</g>
						</g>
					</g>
				</g>
			</g>
		</g>
		<g>
			<g>
				<g>
					<g>
						<g>
							<g>
								<g>
									<g>
										<g>
											<path class="st0" d="M404.98,77.01c-0.06-0.07,0.65-0.88,1.84-2.14c1.19-1.26,2.86-2.96,4.74-4.8
												c1.88-1.85,3.6-3.49,4.87-4.66c1.27-1.17,2.09-1.86,2.15-1.79c0.06,0.06-0.64,0.87-1.83,2.13
												c-1.19,1.26-2.87,2.96-4.75,4.81c-1.88,1.85-3.61,3.5-4.88,4.67C405.85,76.39,405.04,77.08,404.98,77.01z"/>
										</g>
									</g>
								</g>
							</g>
						</g>
					</g>
				</g>
			</g>
		</g>
		<g>
			<g>
				<g>
					<g>
						<g>
							<g>
								<g>
									<g>
										<g>
											<path class="st0" d="M330.44,77.2c-0.07,0.06-0.88-0.65-2.14-1.84c-1.26-1.19-2.96-2.86-4.8-4.74
												c-1.85-1.88-3.49-3.6-4.66-4.87c-1.17-1.27-1.86-2.09-1.79-2.15c0.06-0.06,0.87,0.64,2.13,1.83
												c1.26,1.19,2.96,2.87,4.81,4.75c1.85,1.88,3.5,3.61,4.67,4.88C329.83,76.32,330.51,77.14,330.44,77.2z"/>
										</g>
									</g>
								</g>
							</g>
						</g>
					</g>
				</g>
			</g>
		</g>
		<g>
			<g>
				<g>
					<g>
						<g>
							<g>
								<g>
									<g>
										<g>
											<path class="st0" d="M404.98,154.49c-0.01-0.01-0.01-0.13-0.02-0.38c0-0.26-0.01-0.62-0.02-1.08
												c-0.01-0.97-0.02-2.38-0.03-4.19c-0.02-3.68-0.04-9.04-0.08-15.83c-0.04-13.61-0.09-32.99-0.15-56.2l0.29,0.29
												c-21.7,0.01-47.18,0.03-74.32,0.04h-0.01l0.33-0.33c-0.02,28.52-0.03,55.19-0.05,77.69l-0.28-0.28
												c22.27,0.06,40.82,0.11,53.82,0.14c6.5,0.03,11.61,0.06,15.12,0.07c1.73,0.01,3.07,0.03,4,0.03
												c0.44,0.01,0.78,0.01,1.03,0.02C404.85,154.48,404.97,154.49,404.98,154.49c0.01,0.01-0.11,0.01-0.33,0.02
												c-0.25,0-0.58,0.01-1,0.02c-0.92,0.01-2.23,0.02-3.95,0.03c-3.5,0.02-8.58,0.04-15.05,0.07
												c-13.04,0.03-31.65,0.08-54,0.14l-0.28,0l0-0.28c-0.01-22.5-0.03-49.18-0.05-77.69l0-0.33h0.33h0.01
												c27.14,0.02,52.62,0.03,74.32,0.04h0.29l0,0.29c-0.06,23.29-0.11,42.74-0.15,56.39c-0.03,6.77-0.06,12.1-0.08,15.77
												c-0.01,1.8-0.03,3.18-0.03,4.14c-0.01,0.45-0.01,0.8-0.02,1.05C404.99,154.38,404.98,154.5,404.98,154.49z"/>
										</g>
									</g>
								</g>
							</g>
						</g>
					</g>
				</g>
			</g>
		</g>
		<g>
			<g>
				<g>
					<g>
						<g>
							<g>
								<g>
									<g>
										<rect x="355.48" y="103.21" class="st1" width="24.87" height="24.87"/>
									</g>
								</g>
							</g>
						</g>
					</g>
				</g>
			</g>
		</g>
	</g>
</g>
<g id="Background_Simple" class="st5">
	<path class="st6" d="M555.44,99.57l-1.65-3.47c-13.88-29.22-42.37-48.88-74.4-50.12c-4.12-0.16-8.25-0.02-12.35,0.43
		c-29.57,3.24-56.98,22.54-70.28,49.5c-7.82,15.85-11.48,34.65-24.46,46.54c-16.9,15.47-42.68,13.38-65.24,10.36
		c-22.55-3.02-48.36-5.05-65.19,10.5c-10.54,9.74-15.1,24.65-15.8,39.07c-1.86,38.16,21.11,74.8,53.02,95.1
		c31.91,20.3,71.35,25.86,108.92,22.21c52.63-5.12,104.58-28.66,138.56-69.73C560.56,208.87,574.16,149.57,555.44,99.57z"/>
	
		<ellipse transform="matrix(0.1408 -0.99 0.99 0.1408 460.5111 733.4333)" class="st6" cx="652.8" cy="101.41" rx="38.69" ry="38.69"/>
	
		<ellipse transform="matrix(0.8023 -0.5969 0.5969 0.8023 -24.1621 90.3769)" class="st6" cx="124.36" cy="81.66" rx="38.69" ry="38.69"/>
</g>
<g id="Desk">
	<g>
		<path class="st7" d="M720.01,447.41c0,0.14-154.48,0.26-345,0.26c-190.58,0-345.03-0.12-345.03-0.26s154.45-0.26,345.03-0.26
			C565.53,447.15,720.01,447.27,720.01,447.41z"/>
	</g>
</g>
<g id="Speech_Bubble_3">
	<g>
		<g>
			<g>
				<path class="st2" d="M645.51,227.56c1.26-7.05,4.63-13.8,10.12-19.26c14.31-14.24,37.57-14.3,51.96-0.13
					c14.39,14.16,14.45,37.18,0.14,51.42c-14.31,14.24-37.57,14.3-51.96,0.13c-6.06-5.96-9.56-13.49-10.54-21.28l-9.64-6.2
					L645.51,227.56z"/>
			</g>
			<g>
				<g>
					<path class="st7" d="M645.51,227.56c0,0-0.24,0.09-0.68,0.28c-0.47,0.21-1.11,0.5-1.93,0.87c-1.72,0.79-4.19,1.92-7.38,3.39
						l-0.26,0.12l0.25,0.16c2.64,1.72,5.88,3.82,9.6,6.25l-0.1-0.16c0.64,5.36,2.65,11.58,6.91,17.28c1.06,1.42,2.25,2.81,3.57,4.12
						c1.4,1.23,2.75,2.6,4.39,3.68c3.16,2.28,6.81,4.27,10.9,5.46c8.1,2.48,17.79,2.24,26.49-1.76
						c8.67-3.92,16.15-11.64,19.48-21.32c1.38-3.95,2.05-8.08,2.06-12.16c-0.04-4.08-0.77-8.07-2.07-11.8
						c-1.28-3.73-3.14-7.2-5.51-10.18c-2.33-3-5.02-5.66-8.04-7.71l-1.11-0.8c-0.38-0.24-0.78-0.46-1.17-0.69
						c-0.79-0.44-1.54-0.92-2.34-1.32c-1.62-0.73-3.2-1.51-4.86-2c-1.62-0.63-3.31-0.93-4.93-1.33c-0.83-0.14-1.66-0.24-2.47-0.35
						l-1.22-0.16l-1.22-0.05c-3.25-0.27-6.39,0.14-9.36,0.61c-2.93,0.67-5.73,1.48-8.21,2.68c-5.04,2.28-8.94,5.5-11.93,8.64
						c-2.94,3.22-4.87,6.48-6.15,9.24c-1.27,2.78-1.91,5.07-2.27,6.62c-0.18,0.78-0.3,1.37-0.35,1.78
						C645.53,227.34,645.5,227.56,645.51,227.56c0.01,0.01,0.06-0.19,0.16-0.59c0.09-0.41,0.23-1.01,0.43-1.77
						c0.41-1.54,1.1-3.8,2.4-6.53c1.31-2.72,3.26-5.92,6.19-9.08c2.99-3.08,6.86-6.23,11.84-8.44c2.45-1.17,5.21-1.94,8.1-2.59
						c2.93-0.44,6.01-0.84,9.2-0.55l1.2,0.06l1.2,0.17c0.8,0.12,1.62,0.22,2.43,0.36c1.6,0.41,3.25,0.7,4.84,1.33
						c1.63,0.49,3.18,1.26,4.76,1.98c0.78,0.39,1.52,0.87,2.29,1.3c0.38,0.23,0.77,0.44,1.14,0.68l1.08,0.79
						c2.96,2.02,5.58,4.63,7.86,7.57c2.31,2.93,4.13,6.33,5.38,9.98c1.26,3.65,1.98,7.56,2.01,11.55c-0.01,3.99-0.67,8.03-2.02,11.9
						c-3.26,9.48-10.57,17.04-19.06,20.89c-8.51,3.94-18.01,4.19-25.96,1.79c-4.01-1.15-7.6-3.09-10.72-5.32
						c-1.61-1.06-2.95-2.39-4.33-3.6c-1.31-1.29-2.48-2.65-3.53-4.04c-4.23-5.58-6.25-11.7-6.94-16.99l-0.01-0.11l-0.09-0.06
						c-3.75-2.38-7.02-4.46-9.67-6.14l-0.02,0.28c3.17-1.54,5.64-2.73,7.36-3.56c0.8-0.4,1.42-0.7,1.88-0.93
						C645.32,227.68,645.53,227.57,645.51,227.56z"/>
				</g>
			</g>
		</g>
		<g>
			<g>
				<g>
					<path class="st8" d="M665.72,231.69c0.15-1.99,1.04-3.89,2.32-5.43c1.26-1.51,2.93-2.73,4.84-3.22
						c2.03-0.52,4.28-0.18,6.05,0.92c1.06,0.66,1.94,1.58,2.57,2.65c0.53-0.99,1.28-1.87,2.19-2.54c1.68-1.24,3.89-1.77,5.96-1.41
						c1.95,0.34,3.71,1.42,5.09,2.82c1.4,1.43,2.45,3.25,2.76,5.22c0.39,2.47,0.02,5.21-1.2,7.4c-1.28,2.32-3.43,4.23-5.65,5.69
						c-3.75,2.44-8.68,5.52-8.68,5.52s-4.4-2.99-8.34-5.12c-2.34-1.27-4.64-3.01-6.1-5.21
						C666.14,236.88,665.54,234.19,665.72,231.69z"/>
				</g>
			</g>
		</g>
	</g>
</g>
<g id="Speech_Bubble_1">
	<g>
		<g>
			<g>
				<g>
					<g>
						<g>
							<path class="st2" d="M198.01,178.17l14.14-3.09c5.32,4.3,11.86,7.25,19.16,8.22c21.01,2.79,40.32-11.8,43.13-32.59
								c2.82-20.79-11.93-39.9-32.93-42.68c-21.01-2.79-40.32,11.8-43.13,32.59c-1.18,8.68,0.72,17.06,4.84,24.09l-0.02-0.02
								L198.01,178.17z"/>
						</g>
						<g>
							<g>
								<path class="st7" d="M198.01,178.17c0,0,0.14-0.31,0.37-0.9c0.24-0.61,0.59-1.47,1.04-2.59c0.91-2.28,2.23-5.61,3.94-9.94
									l-0.26,0.06c0,0,0.01,0.01,0.02,0.02c0.06,0.06,0.16,0.06,0.23,0c0.05-0.05,0.06-0.13,0.03-0.19
									c-2.54-4.42-4.99-10.68-5.08-18.33c-0.13-7.57,2.26-16.51,8.35-24.06c3.02-3.75,6.94-7.1,11.57-9.6
									c4.62-2.5,9.95-4.14,15.57-4.54c5.61-0.35,11.48,0.53,16.96,2.74c2.77,1.03,5.35,2.58,7.85,4.25
									c0.62,0.43,1.19,0.93,1.78,1.39c0.58,0.49,1.22,0.91,1.74,1.46c1.08,1.07,2.23,2.07,3.17,3.28
									c0.49,0.59,1.01,1.15,1.47,1.76l1.31,1.87l0.65,0.93l0.56,0.99l1.11,1.97c0.35,0.67,0.62,1.37,0.93,2.04
									c0.28,0.69,0.65,1.35,0.85,2.06c0.44,1.42,1,2.79,1.26,4.24c1.35,5.72,1.3,11.59,0.06,17.03
									c-1.22,5.45-3.74,10.41-6.96,14.54c-3.23,4.13-7.2,7.43-11.43,9.79c-4.23,2.37-8.71,3.82-13.04,4.48
									c-4.34,0.73-8.52,0.43-12.31-0.12c-7.62-1.31-13.49-4.66-17.48-7.85c-0.04-0.03-0.09-0.04-0.14-0.03
									c-4.55,1.04-8.05,1.84-10.44,2.39c-1.18,0.27-2.08,0.48-2.72,0.63C198.34,178.09,198.01,178.17,198.01,178.17
									s0.29-0.05,0.88-0.17c0.63-0.13,1.52-0.31,2.69-0.55c2.43-0.51,5.99-1.25,10.61-2.21l-0.14-0.03
									c3.98,3.27,9.9,6.7,17.6,8.07c3.83,0.58,8.07,0.91,12.47,0.19c4.39-0.65,8.95-2.1,13.25-4.49c4.3-2.39,8.35-5.73,11.64-9.92
									c3.28-4.19,5.86-9.23,7.11-14.78c1.27-5.53,1.33-11.51-0.04-17.34c-0.26-1.48-0.83-2.88-1.28-4.32
									c-0.2-0.73-0.58-1.4-0.86-2.1c-0.32-0.69-0.59-1.4-0.95-2.08l-1.13-2l-0.57-1l-0.66-0.95l-1.33-1.91
									c-0.47-0.61-1-1.19-1.5-1.79c-0.96-1.23-2.14-2.26-3.23-3.34c-0.53-0.56-1.18-0.99-1.77-1.49
									c-0.61-0.47-1.19-0.98-1.82-1.42c-2.54-1.71-5.17-3.28-8-4.33c-5.59-2.24-11.55-3.13-17.27-2.76
									c-5.72,0.42-11.14,2.09-15.83,4.65c-4.7,2.55-8.67,5.97-11.73,9.79c-6.16,7.68-8.54,16.77-8.36,24.43
									c0.13,7.75,2.66,14.06,5.27,18.48l0.25-0.19c-0.01-0.01-0.02-0.01-0.02-0.01c-0.06-0.06-0.16-0.06-0.23,0
									c-0.02,0.02-0.03,0.04-0.04,0.06c-1.65,4.41-2.92,7.8-3.8,10.13c-0.41,1.11-0.73,1.96-0.95,2.57
									C198.1,177.9,198.01,178.17,198.01,178.17z"/>
							</g>
						</g>
					</g>
				</g>
			</g>
		</g>
		<g>
			<g>
				<g>
					<g>
						<g>
							<path class="st8" d="M251.39,140.13c0.04-8.19-6.64-14.86-14.91-14.9c-8.28-0.04-15.02,6.57-15.06,14.76
								c-0.03,5.93,3.46,11.06,8.54,13.46c-0.01,1.76-0.02,3.74-0.02,3.74l13.13,0.06c0,0,0.09-2.1,0.13-3.97
								C248.03,150.84,251.36,145.88,251.39,140.13z"/>
						</g>
					</g>
				</g>
				<g>
					<g>
						<g>
							<g>
								<path class="st7" d="M238.32,157.17c0,0,0-0.06,0.02-0.18c0.02-0.13,0.04-0.31,0.06-0.53c0.06-0.47,0.15-1.16,0.28-2.05
									c0.14-0.89,0.32-1.98,0.61-3.22c0.3-1.24,0.7-2.65,1.38-4.12c0.34-0.73,0.73-1.48,1.24-2.21c0.26-0.36,0.59-0.7,1.03-0.91
									c0.44-0.2,0.98-0.2,1.42,0.05c0.22,0.13,0.4,0.34,0.47,0.59c0.08,0.25,0.05,0.53-0.07,0.76c-0.23,0.47-0.68,0.79-1.16,0.98
									c-0.99,0.34-2.13,0.25-3.11-0.23c-0.99-0.48-1.77-1.4-2.1-2.48c-0.16-0.54-0.24-1.13-0.08-1.71
									c0.14-0.57,0.71-1.09,1.37-1.02c0.32,0.03,0.62,0.25,0.76,0.53c0.15,0.28,0.19,0.61,0.12,0.91
									c-0.15,0.62-0.6,1.08-1.06,1.47c-0.95,0.77-2.24,1.19-3.5,0.99c-1.25-0.2-2.37-1.03-2.89-2.15
									c-0.27-0.55-0.33-1.22-0.09-1.8c0.12-0.28,0.35-0.55,0.66-0.65c0.31-0.12,0.65-0.06,0.92,0.09c0.27,0.15,0.5,0.38,0.63,0.65
									c0.14,0.27,0.2,0.57,0.22,0.86c0.04,0.58-0.05,1.16-0.24,1.69c-0.37,1.07-1.15,1.98-2.12,2.48
									c-0.97,0.51-2.09,0.64-3.1,0.41c-0.5-0.11-1.01-0.31-1.35-0.71c-0.33-0.39-0.42-1.01-0.08-1.43
									c0.17-0.2,0.43-0.31,0.67-0.32c0.25-0.02,0.5,0.03,0.71,0.14c0.44,0.22,0.71,0.63,0.91,1.02c0.37,0.81,0.67,1.59,0.97,2.34
									c1.18,2.99,2.02,5.46,2.58,7.17c0.28,0.85,0.49,1.52,0.63,1.97c0.07,0.22,0.12,0.39,0.15,0.52
									c0.03,0.12,0.05,0.18,0.05,0.18s-0.02-0.06-0.06-0.17c-0.04-0.12-0.1-0.29-0.17-0.51c-0.15-0.46-0.37-1.12-0.66-1.96
									c-0.58-1.7-1.44-4.16-2.64-7.15c-0.3-0.74-0.61-1.53-0.98-2.32c-0.19-0.38-0.46-0.76-0.85-0.95
									c-0.38-0.19-0.92-0.19-1.21,0.15c-0.28,0.34-0.21,0.89,0.08,1.23c0.3,0.36,0.78,0.55,1.26,0.66
									c0.97,0.22,2.06,0.09,2.99-0.4c0.93-0.48,1.68-1.35,2.04-2.39c0.18-0.51,0.26-1.07,0.22-1.62
									c-0.04-0.54-0.26-1.11-0.76-1.37c-0.24-0.13-0.53-0.17-0.78-0.08c-0.25,0.08-0.45,0.3-0.55,0.55
									c-0.21,0.52-0.16,1.13,0.09,1.65c0.48,1.06,1.56,1.85,2.75,2.05c1.2,0.2,2.44-0.21,3.35-0.95c0.45-0.37,0.87-0.82,1-1.37
									c0.06-0.27,0.03-0.55-0.1-0.79c-0.12-0.24-0.36-0.41-0.62-0.43c-0.26-0.03-0.54,0.07-0.75,0.23
									c-0.21,0.16-0.35,0.4-0.43,0.66c-0.15,0.52-0.08,1.09,0.08,1.61c0.32,1.04,1.07,1.93,2.01,2.38
									c0.94,0.46,2.05,0.55,2.98,0.23c0.45-0.17,0.87-0.48,1.08-0.9c0.22-0.41,0.05-0.94-0.34-1.15
									c-0.39-0.23-0.89-0.23-1.28-0.05c-0.4,0.18-0.72,0.51-0.98,0.86c-0.5,0.71-0.9,1.46-1.24,2.18
									c-0.68,1.45-1.09,2.85-1.4,4.09c-0.3,1.24-0.49,2.32-0.64,3.21c-0.14,0.88-0.24,1.57-0.32,2.04
									c-0.04,0.23-0.06,0.41-0.08,0.53C238.33,157.11,238.32,157.17,238.32,157.17z"/>
							</g>
						</g>
					</g>
				</g>
				<g>
					<g>
						<g>
							<path class="st7" d="M242.04,159.65l-11.28-0.05c-0.47,0-0.84-0.38-0.84-0.84l0,0c0-0.46,0.38-0.84,0.85-0.83l11.28,0.05
								c0.47,0,0.84,0.38,0.84,0.84l0,0C242.89,159.28,242.51,159.66,242.04,159.65z"/>
						</g>
					</g>
				</g>
				<g>
					<g>
						<g>
							<path class="st7" d="M242.04,160.38l-11.28-0.05c-0.47,0-0.85,0.37-0.85,0.83c0,0.46,0.37,0.84,0.84,0.84l1.24,0.01l1.63,3.1
								c0.19,0.35,0.56,0.58,0.96,0.58l4.03,0.02c0.41,0,0.78-0.22,0.97-0.58l1.61-3.08l0.84,0c0.47,0,0.85-0.37,0.85-0.83
								C242.88,160.76,242.51,160.39,242.04,160.38z"/>
						</g>
					</g>
				</g>
			</g>
			<g class="st9">
				<g>
					<g>
						<g>
							<path class="st2" d="M224.17,134.11c-0.67,1.44-1.01,2.93-1.07,4.28c-0.07,1.36,0.11,2.57,0.4,3.54
								c0.28,0.97,0.65,1.71,0.97,2.18c0.32,0.47,0.57,0.68,0.68,0.62c0.25-0.12-0.17-1.24-0.37-3.05c-0.21-1.79-0.1-4.35,1.06-6.8
								c1.16-2.44,3.08-4.17,4.61-5.15c1.54-1,2.67-1.4,2.61-1.67c-0.03-0.12-0.35-0.17-0.92-0.12c-0.57,0.05-1.37,0.25-2.31,0.65
								c-0.94,0.4-2,1.04-3.01,1.96C226.82,130.57,224.84,132.3,224.17,134.11z"/>
						</g>
					</g>
				</g>
			</g>
			<g class="st9">
				<g>
					<g>
						<g>
							<path class="st2" d="M238.56,127.99c0.05-0.25-0.13-0.51-0.47-0.72c-0.34-0.21-0.84-0.36-1.41-0.36
								c-0.57-0.01-1.08,0.13-1.42,0.34c-0.34,0.2-0.52,0.47-0.48,0.71c0.09,0.5,0.93,0.76,1.88,0.77
								C236.66,128.73,238.14,128.57,238.56,127.99z"/>
						</g>
					</g>
				</g>
			</g>
			<g>
				<g>
					<g>
						<g>
							<path class="st10" d="M239.37,165.39c-0.01,0.03-0.3-0.1-0.77-0.24c-0.48-0.14-1.16-0.26-1.91-0.25
								c-0.76,0.02-1.43,0.18-1.9,0.34c-0.47,0.16-0.75,0.3-0.76,0.28c-0.01-0.02,0.25-0.2,0.71-0.4c0.47-0.2,1.16-0.38,1.94-0.4
								c0.78-0.02,1.48,0.13,1.96,0.31C239.11,165.21,239.38,165.38,239.37,165.39z"/>
						</g>
					</g>
				</g>
			</g>
			<g>
				<g>
					<g>
						<g>
							<path class="st10" d="M241.21,162.09c0,0.05-2.04,0.08-4.55,0.07c-2.52-0.01-4.55-0.06-4.55-0.11c0-0.05,2.04-0.08,4.55-0.07
								C239.18,161.99,241.21,162.04,241.21,162.09z"/>
						</g>
					</g>
				</g>
			</g>
			<g>
				<g>
					<g>
						<g>
							<path class="st10" d="M240.5,163.41c0,0.02-0.42,0.07-1.11,0.11c-0.69,0.04-1.64,0.07-2.69,0.08c-1.05,0.01-2-0.01-2.69-0.03
								c-0.69-0.03-1.11-0.06-1.11-0.09c0-0.03,0.43-0.04,1.11-0.04c0.74-0.01,1.67-0.01,2.69-0.02c1.02-0.01,1.94-0.02,2.69-0.03
								C240.08,163.38,240.5,163.39,240.5,163.41z"/>
						</g>
					</g>
				</g>
			</g>
		</g>
	</g>
</g>
<g id="Speech_Bubble_2">
	<g>
		<g>
			<g>
				<g>
					<g>
						<path class="st2" d="M434.9,168.12l13.48-2.95c5.07,4.1,11.31,6.91,18.27,7.83c20.03,2.66,38.44-11.26,41.13-31.07
							c2.69-19.82-11.37-38.04-31.4-40.7c-20.03-2.66-38.44,11.25-41.13,31.07c-1.12,8.28,0.69,16.27,4.62,22.97l-0.01-0.01
							L434.9,168.12z"/>
					</g>
					<g>
						<g>
							<path class="st7" d="M434.9,168.12c0,0,0.13-0.3,0.35-0.86c0.23-0.58,0.56-1.4,0.99-2.47c0.86-2.18,2.12-5.35,3.76-9.48
								l-0.25,0.05c0,0,0.01,0.01,0.01,0.01c0.06,0.06,0.16,0.06,0.22,0c0.05-0.05,0.06-0.13,0.02-0.18
								c-2.43-4.21-4.76-10.19-4.84-17.48c-0.13-7.22,2.16-15.74,7.96-22.94c2.88-3.58,6.62-6.77,11.03-9.15
								c4.4-2.38,9.49-3.94,14.84-4.32c5.35-0.33,10.94,0.5,16.17,2.61c2.64,0.99,5.1,2.46,7.48,4.06c0.59,0.41,1.13,0.89,1.7,1.33
								c0.55,0.47,1.16,0.86,1.66,1.39c1.03,1.02,2.13,1.98,3.03,3.13c0.47,0.56,0.96,1.1,1.4,1.68l1.24,1.78l0.62,0.89l0.53,0.94
								l1.06,1.88c0.33,0.63,0.59,1.3,0.89,1.95c0.27,0.66,0.62,1.28,0.81,1.97c0.42,1.35,0.96,2.66,1.2,4.04
								c1.29,5.45,1.24,11.05,0.05,16.24c-1.16,5.2-3.56,9.92-6.63,13.86c-3.08,3.94-6.87,7.08-10.9,9.34
								c-4.03,2.26-8.3,3.64-12.43,4.27c-4.14,0.7-8.12,0.41-11.73-0.11c-7.26-1.25-12.87-4.44-16.67-7.49
								c-0.04-0.03-0.09-0.04-0.13-0.03c-4.33,0.99-7.67,1.75-9.96,2.28c-1.12,0.26-1.98,0.46-2.59,0.6
								C435.21,168.04,434.9,168.12,434.9,168.12s0.27-0.05,0.84-0.16c0.6-0.12,1.45-0.3,2.56-0.53c2.32-0.48,5.71-1.19,10.11-2.11
								l-0.13-0.03c3.8,3.11,9.44,6.39,16.78,7.7c3.66,0.56,7.69,0.86,11.89,0.18c4.19-0.62,8.53-2,12.63-4.28
								c4.1-2.28,7.96-5.46,11.1-9.46c3.13-3.99,5.59-8.8,6.78-14.09c1.21-5.27,1.27-10.98-0.03-16.53
								c-0.25-1.41-0.79-2.74-1.22-4.12c-0.19-0.7-0.55-1.33-0.82-2c-0.3-0.66-0.57-1.34-0.9-1.98l-1.08-1.91l-0.54-0.96l-0.63-0.91
								l-1.27-1.82c-0.45-0.59-0.95-1.14-1.43-1.71c-0.92-1.17-2.04-2.15-3.08-3.19c-0.51-0.54-1.13-0.94-1.69-1.42
								c-0.58-0.45-1.13-0.94-1.73-1.35c-2.42-1.63-4.93-3.13-7.62-4.13c-5.33-2.14-11.02-2.98-16.46-2.64
								c-5.45,0.4-10.62,1.99-15.09,4.43c-4.48,2.43-8.26,5.69-11.18,9.33c-5.87,7.33-8.15,15.99-7.97,23.29
								c0.12,7.38,2.54,13.41,5.03,17.62l0.24-0.18c-0.01,0-0.01-0.01-0.01-0.01c-0.06-0.06-0.16-0.06-0.22,0
								c-0.02,0.02-0.03,0.04-0.04,0.06c-1.57,4.2-2.79,7.44-3.62,9.66c-0.39,1.06-0.69,1.87-0.91,2.45
								C434.98,167.86,434.9,168.12,434.9,168.12z"/>
						</g>
					</g>
				</g>
			</g>
		</g>
		<g>
			<g>
				<g>
					<g>
						<g>
							<g>
								<g>
									<path class="st7" d="M460.88,137.02c-0.01,2.5-2.07,4.51-4.6,4.5c-2.52-0.01-4.56-2.05-4.55-4.55s2.07-4.51,4.6-4.5
										C458.86,132.49,460.89,134.52,460.88,137.02z"/>
								</g>
							</g>
						</g>
					</g>
				</g>
			</g>
			<g>
				<g>
					<g>
						<g>
							<g>
								<g>
									<path class="st7" d="M476.12,137.1c-0.01,2.5-2.07,4.51-4.6,4.5c-2.52-0.01-4.56-2.05-4.55-4.55s2.07-4.51,4.6-4.5
										S476.13,134.61,476.12,137.1z"/>
								</g>
							</g>
						</g>
					</g>
				</g>
			</g>
			<g>
				<g>
					<g>
						<g>
							<g>
								<g>
									<path class="st7" d="M491.35,137.19c-0.01,2.5-2.07,4.51-4.6,4.5c-2.52-0.01-4.56-2.05-4.55-4.55s2.07-4.51,4.6-4.5
										C489.33,132.65,491.37,134.69,491.35,137.19z"/>
								</g>
							</g>
						</g>
					</g>
				</g>
			</g>
		</g>
	</g>
</g>
<g id="Character_2">
	<g>
		<g>
			<g>
				<g>
					<g>
						<g>
							<g>
								<g>
									<g>
										<g>
											<path class="st7" d="M388.02,118.85c-1.63-3.27-5.54-5.27-9.18-4.68c-4.19-3.42-10.84-3.44-15.04-0.02
												c-3.17-1.95-7.39-2.11-10.71-0.42c-3.32,1.69-5.63,5.19-5.86,8.87c-3.72-0.66-7.77,1.25-9.58,4.54
												c-1.81,3.29-1.24,7.69,1.34,10.43c-4.09,1.22-6.86,5.77-6.04,9.92c0.82,4.15,5.11,7.33,9.36,6.94l43.88-25.52
												C388.87,126.41,389.65,122.12,388.02,118.85z"/>
										</g>
									</g>
								</g>
							</g>
						</g>
					</g>
				</g>
				<g>
					<g>
						<g>
							<g>
								<g>
									<g>
										<g>
											<g>
												<g>
													<g>
														<g>
															<path class="st11" d="M341.01,155.61c1.95-18.99,18.31-33.32,37.6-32.93l1.92,0.04
																c20.64,1.62,30.79,19.87,28.58,40.24l-4.41,68.04l-3.01,8.51l-35.56,44.09l-8.96-39.72l-0.17-18.44
																c0,0-19.8-3.46-19.64-23.12C337.43,192.82,339.2,173.28,341.01,155.61z"/>
														</g>
													</g>
												</g>
											</g>
										</g>
									</g>
								</g>
							</g>
						</g>
					</g>
					<g>
						<g>
							<g>
								<g>
									<g>
										<g>
											<g>
												<g>
													<g>
														<g>
															<g>
																<g>
																	<path class="st12" d="M357.02,225.47c0,0,12.48,0.95,26-7.07c0,0-6.38,14.06-25.97,11.94L357.02,225.47z"/>
																</g>
															</g>
														</g>
													</g>
												</g>
											</g>
										</g>
									</g>
								</g>
							</g>
						</g>
					</g>
					<g>
						<g>
							<g>
								<g>
									<g>
										<g>
											<g>
												<g>
													<g>
														<g>
															<g>
																<g>
																	<g>
																		<g>
																			<g>
																				<path class="st7" d="M345.66,173.25c-0.08,1.48,1.11,2.77,2.68,2.89c1.56,0.11,2.89-0.99,2.98-2.47
																					c0.08-1.48-1.11-2.77-2.67-2.89C347.07,170.67,345.74,171.77,345.66,173.25z"/>
																			</g>
																		</g>
																	</g>
																</g>
															</g>
														</g>
													</g>
												</g>
											</g>
										</g>
									</g>
								</g>
							</g>
						</g>
					</g>
					<g>
						<g>
							<g>
								<g>
									<g>
										<g>
											<g>
												<g>
													<g>
														<g>
															<g>
																<g>
																	<g>
																		<g>
																			<g>
																				<g>
																					<path class="st7" d="M344.84,166.31c0.34,0.37,2.52-1.16,5.58-1.09c3.05,0.03,5.26,1.63,5.6,1.26
																						c0.17-0.16-0.18-0.83-1.14-1.55c-0.95-0.72-2.57-1.43-4.47-1.46c-1.9-0.03-3.52,0.63-4.45,1.32
																						C345,165.49,344.67,166.15,344.84,166.31z"/>
																				</g>
																			</g>
																		</g>
																	</g>
																</g>
															</g>
														</g>
													</g>
												</g>
											</g>
										</g>
									</g>
								</g>
							</g>
						</g>
					</g>
					<g>
						<g>
							<g>
								<g>
									<g>
										<g>
											<g>
												<g>
													<g>
														<g>
															<g>
																<g>
																	<g>
																		<g>
																			<g>
																				<path class="st7" d="M372.99,174.77c-0.08,1.48,1.11,2.77,2.68,2.89c1.56,0.12,2.89-0.99,2.98-2.47
																					c0.08-1.48-1.12-2.77-2.67-2.89C374.4,172.18,373.07,173.29,372.99,174.77z"/>
																			</g>
																		</g>
																	</g>
																</g>
															</g>
														</g>
													</g>
												</g>
											</g>
										</g>
									</g>
								</g>
							</g>
						</g>
					</g>
					<g>
						<g>
							<g>
								<g>
									<g>
										<g>
											<g>
												<g>
													<g>
														<g>
															<g>
																<g>
																	<g>
																		<g>
																			<g>
																				<g>
																					<path class="st7" d="M374.05,166.49c0.34,0.37,2.53-1.16,5.58-1.09c3.05,0.03,5.26,1.63,5.6,1.26
																						c0.17-0.16-0.18-0.83-1.14-1.55c-0.95-0.72-2.57-1.43-4.47-1.46c-1.9-0.03-3.52,0.63-4.45,1.32
																						C374.22,165.67,373.88,166.32,374.05,166.49z"/>
																				</g>
																			</g>
																		</g>
																	</g>
																</g>
															</g>
														</g>
													</g>
												</g>
											</g>
										</g>
									</g>
								</g>
							</g>
						</g>
					</g>
					<g>
						<g>
							<g>
								<g>
									<g>
										<g>
											<g>
												<g>
													<g>
														<g>
															<g>
																<g>
																	<g>
																		<g>
																			<g>
																				<path class="st7" d="M363.53,188.67c0.02-0.17-1.87-0.54-4.94-0.99c-0.78-0.09-1.51-0.26-1.63-0.79
																					c-0.17-0.56,0.17-1.39,0.57-2.28c0.77-1.85,1.58-3.79,2.43-5.83c3.38-8.3,5.84-15.13,5.5-15.26
																					c-0.34-0.13-3.35,6.49-6.72,14.78c-0.81,2.05-1.59,4-2.33,5.86c-0.31,0.87-0.84,1.85-0.47,3.02
																					c0.2,0.58,0.76,1.01,1.26,1.15c0.5,0.16,0.93,0.18,1.32,0.21C361.6,188.79,363.52,188.84,363.53,188.67z"/>
																			</g>
																		</g>
																	</g>
																</g>
															</g>
														</g>
													</g>
												</g>
											</g>
										</g>
									</g>
								</g>
							</g>
						</g>
					</g>
					<g>
						<g>
							<g>
								<g>
									<g>
										<g>
											<g>
												<g>
													<g>
														<g>
															<g>
																<path class="st7" d="M374.19,157.86c0.35,0.79,2.99,0.14,6.18,0.26c3.2,0.04,5.84,0.83,6.18,0.06
																	c0.15-0.37-0.37-1.1-1.48-1.79c-1.1-0.69-2.8-1.28-4.71-1.33c-1.91-0.05-3.61,0.46-4.71,1.09
																	C374.56,156.78,374.04,157.48,374.19,157.86z"/>
															</g>
														</g>
													</g>
												</g>
											</g>
										</g>
									</g>
								</g>
							</g>
						</g>
					</g>
					<g>
						<g>
							<g>
								<g>
									<g>
										<g>
											<g>
												<g>
													<g>
														<g>
															<g>
																<path class="st7" d="M345.71,158.04c0.46,0.74,2.63,0.24,5.15,0.47c2.53,0.14,4.6,0.93,5.16,0.27
																	c0.25-0.32-0.01-1.04-0.88-1.78c-0.85-0.74-2.33-1.42-4.06-1.54c-1.73-0.12-3.3,0.34-4.24,0.95
																	C345.87,157.01,345.5,157.69,345.71,158.04z"/>
															</g>
														</g>
													</g>
												</g>
											</g>
										</g>
									</g>
								</g>
							</g>
						</g>
					</g>
					<g>
						<g>
							<g>
								<g>
									<g>
										<g>
											<g>
												<g>
													<g>
														<g>
															<path class="st7" d="M343.11,146.64c0,0,5.5-12.2,11.55-14.95c7.33-3.33,10.3,4.62,17.26,2.85
																c6.96-1.77,13.96-4.97,20.92,0.47c7.62,5.95,3.91,9.94,4.21,18.67c1.2,35.4,7.52,45.53,9.72,28.91
																c0.24-1.82,5.39-3.17,6.31-10.86c1.19-9.98,1.83-22.11-0.27-29.25c-1.78-6.02-5.14-10.22-11.22-14.9
																c-9.6-7.39-23-7.82-32.11-7.1C360.36,121.21,342.6,131.21,343.11,146.64z"/>
														</g>
													</g>
												</g>
											</g>
										</g>
									</g>
								</g>
							</g>
						</g>
					</g>
					<g>
						<g>
							<g>
								<g>
									<g>
										<g>
											<g>
												<g>
													<g>
														<g>
															<path class="st11" d="M405.52,182.03c0.19-3.03,2.88-5.37,5.93-5.02c3.7,0.42,7.78,2.59,7.37,10.16
																c-0.71,13.43-14.19,9.95-14.19,9.56C404.62,196.47,405.17,187.65,405.52,182.03z"/>
														</g>
													</g>
												</g>
											</g>
										</g>
									</g>
								</g>
							</g>
						</g>
					</g>
					<g>
						<g>
							<g>
								<g>
									<g>
										<g>
											<g>
												<g>
													<g>
														<g>
															<path class="st12" d="M407.85,191.83c0.06-0.04,0.23,0.18,0.62,0.38c0.38,0.2,1.04,0.35,1.77,0.13
																c1.46-0.45,2.79-2.64,2.98-5.05c0.1-1.22-0.1-2.4-0.48-3.38c-0.36-1-0.97-1.72-1.68-1.89
																c-0.71-0.2-1.24,0.2-1.43,0.57c-0.2,0.37-0.13,0.64-0.2,0.66c-0.04,0.03-0.28-0.24-0.14-0.79
																c0.07-0.26,0.25-0.57,0.58-0.81c0.34-0.25,0.83-0.35,1.33-0.27c1.04,0.13,1.93,1.13,2.36,2.21
																c0.48,1.09,0.73,2.42,0.62,3.79c-0.23,2.7-1.77,5.16-3.76,5.62c-0.97,0.2-1.75-0.13-2.14-0.47
																C407.86,192.16,407.8,191.86,407.85,191.83z"/>
														</g>
													</g>
												</g>
											</g>
										</g>
									</g>
								</g>
							</g>
						</g>
					</g>
				</g>
				<g>
					<g>
						<g>
							<g>
								<g>
									<g>
										<g>
											<g>
												<g>
													<path class="st7" d="M405.8,155.99c-1.79,1.16-3.68,2.35-5.81,2.51c-2.13,0.17-4.53-1.09-4.85-3.18
														c-0.14-0.94,0.11-2.02-0.49-2.75c-0.72-0.88-2.1-0.64-3.24-0.54c-3.96,0.33-7.94-2.51-8.87-6.33
														c-1.04,1.47-3.39,1.36-4.89,0.36c-1.5-1-2.45-2.61-3.62-3.99c-1.16-1.38-2.81-2.62-4.61-2.4
														c-1.01,0.12-1.96,0.69-2.97,0.58c-1.78-0.19-2.61-2.28-2.84-4.03c-0.23-1.76-0.4-3.8-1.89-4.79
														c-1.38-0.91-3.21-0.44-4.85-0.23c-1.65,0.21-3.76-0.22-4.15-1.82c-0.2-0.84,0.18-1.71,0.66-2.43
														c2.18-3.25,6.82-4.62,10.45-3.08c1.42-4.41,5.69-7.78,10.35-8.17c4.66-0.39,9.45,2.22,11.6,6.33
														c2.92-2.52,7.12-3.52,10.88-2.58c3.76,0.93,6.99,3.76,8.37,7.34c3.32-0.79,7.06,0.55,9.1,3.26
														c2.04,2.71,2.25,6.64,0.53,9.56c2.41,1.43,4.45,3.87,4.44,6.66c-0.01,2.78-2.8,5.5-5.5,4.71
														c1.05,2.19,0.1,5.11-2.05,6.28c-2.15,1.17-5.15,0.4-6.45-1.65"/>
												</g>
											</g>
										</g>
									</g>
								</g>
							</g>
						</g>
					</g>
				</g>
				<g>
					<g>
						<g>
							<g>
								<g>
									<g>
										<g>
											<g>
												<path class="st10" d="M414.59,150.96c0.05-0.03,0.23,1.13-0.9,2.57c-0.56,0.68-1.5,1.38-2.76,1.55
													c-1.23,0.18-2.72-0.15-3.85-1.19l0.58-0.07c-0.7,1.14-1.61,2.3-2.78,3.3c-0.76,0.63-1.59,1.17-2.51,1.47
													c-0.9,0.33-1.91,0.35-2.74,0.2c-1.72-0.22-3.2-1.17-3.87-2.3c-0.7-1.11-0.91-2.14-1.04-2.82
													c-0.12-0.69-0.13-1.08-0.08-1.09c0.06-0.01,0.17,0.36,0.38,1.02c0.22,0.65,0.51,1.62,1.2,2.58
													c1.25,1.95,5.42,3.02,8.16,0.36c1.09-0.92,1.97-2.02,2.65-3.09l0.25-0.39l0.33,0.32c0.91,0.88,2.19,1.21,3.25,1.1
													c1.08-0.1,1.93-0.66,2.48-1.23C414.46,152.02,414.48,150.92,414.59,150.96z"/>
											</g>
										</g>
									</g>
								</g>
							</g>
						</g>
					</g>
				</g>
				<g>
					<g>
						<g>
							<g>
								<g>
									<g>
										<g>
											<g>
												<path class="st10" d="M389.57,119.74c0.01,0.05-0.36,0.09-0.97,0.33c-0.6,0.24-1.48,0.73-2.15,1.73l-0.17,0.25
													l-0.18-0.25c-1.23-1.71-3.32-3.92-6.46-5.39c-1.56-0.72-3.38-1.23-5.32-1.27c-1.93-0.05-3.97,0.46-5.78,1.51
													c-1.41,0.81-2.61,1.91-3.49,3.14c-0.87,1.25-1.41,2.64-1.58,4.02l-0.05,0.42l-0.41-0.12c-2.03-0.6-4.12-0.25-5.66,0.56
													c-1.57,0.81-2.58,2.08-3.16,3.21c-1.14,2.34-0.79,3.99-0.93,3.96c-0.03,0-0.14-0.38-0.14-1.1
													c0-0.72,0.11-1.81,0.68-3.05c0.55-1.22,1.59-2.63,3.26-3.55c1.65-0.92,3.9-1.35,6.15-0.72l-0.46,0.3
													c0.16-1.5,0.74-3.03,1.67-4.38c0.94-1.34,2.22-2.51,3.73-3.38c1.93-1.12,4.13-1.66,6.2-1.59
													c2.07,0.06,3.98,0.62,5.6,1.41c3.26,1.6,5.33,3.96,6.51,5.77l-0.35,0c0.79-1.06,1.77-1.51,2.42-1.71
													C389.2,119.68,389.57,119.71,389.57,119.74z"/>
											</g>
										</g>
									</g>
								</g>
							</g>
						</g>
					</g>
				</g>
				<g>
					<g>
						<path class="st12" d="M371.58,193.4c0,0,3.92,8.1-4.47,10.04c-0.73,0.17-1.5,0.12-2.2-0.12l0,0c-1.3-0.44-2.29-1.49-2.63-2.8
							l-1.16-4.41C361.51,196.22,371.58,193.4,371.58,193.4z"/>
					</g>
				</g>
				<g>
					<path class="st7" d="M364.03,203.42c0.01-0.05,0.39,0.05,1.09,0.1c0.69,0.04,1.72-0.01,2.88-0.43
						c1.15-0.42,2.44-1.26,3.29-2.63c0.84-1.36,1.19-3.24,0.7-5.04c-0.18-0.69-0.48-1.34-0.86-1.9l0.28,0.1
						c-3.24,0.82-6.1,1.52-8.16,2.01c-0.95,0.21-1.75,0.39-2.42,0.54c-0.57,0.12-0.89,0.17-0.89,0.13
						c-0.01-0.03,0.29-0.14,0.85-0.31c0.66-0.19,1.45-0.42,2.39-0.69c2.03-0.57,4.87-1.33,8.1-2.17l0.18-0.05l0.1,0.15
						c0.42,0.6,0.74,1.3,0.94,2.06c0.52,1.94,0.13,3.96-0.8,5.42c-0.95,1.47-2.35,2.33-3.58,2.72c-1.24,0.4-2.31,0.38-3.02,0.28
						C364.38,203.61,364.02,203.44,364.03,203.42z"/>
				</g>
			</g>
			<path class="st8" d="M304.4,254.03c0,0-14.21,7.61-17.1,27.54c-2.49,17.12-17.45,108.9-17.45,108.9l-13.35,56.49h34.58
				l18.81-100.26L304.4,254.03z"/>
			<g>
				<g>
					<polygon class="st2" points="314.54,447.15 333.98,271.1 350.94,232.29 356.62,228.36 360.71,245.64 366.2,265.18 
						381.2,246.33 404.89,227.97 405.43,237.03 416.81,270.29 407.38,357.07 407.38,446.96 					"/>
				</g>
			</g>
			<g>
				<g>
					<g>
						<path class="st7" d="M357.02,446.96c0.01,0,0.03-0.16,0.05-0.47c0.02-0.34,0.04-0.8,0.07-1.37c0.05-1.25,0.11-3.02,0.19-5.28
							c0.16-4.62,0.38-11.24,0.66-19.41c0.57-16.39,1.48-39.02,2.79-64c1.31-24.99,2.77-47.6,3.9-63.95
							c0.57-8.15,1.04-14.76,1.37-19.37c0.15-2.26,0.27-4.02,0.36-5.27c0.03-0.57,0.06-1.03,0.08-1.37c0.01-0.31,0.01-0.47,0-0.47
							c-0.01,0-0.04,0.16-0.07,0.46c-0.04,0.34-0.08,0.79-0.14,1.37c-0.11,1.24-0.28,3.01-0.49,5.26
							c-0.41,4.57-0.96,11.18-1.59,19.36c-1.26,16.35-2.8,38.96-4.11,63.95c-1.3,24.99-2.14,47.63-2.59,64.02
							c-0.23,8.2-0.37,14.83-0.44,19.42c-0.03,2.26-0.05,4.03-0.07,5.28c0,0.58,0,1.03,0,1.37
							C357,446.8,357.01,446.96,357.02,446.96z"/>
					</g>
				</g>
			</g>
			<path class="st8" d="M436.18,351.81l27.23-84.31l-48.19-25.9l-10.07-10.9c0,0-2.14,45.23-2.48,57.21
				c-0.34,11.98-5.61,57.39-7.97,85.01c-1.26,14.76-0.45,39.4,0.29,53.29c0.85,15.93,0.67,21.2,0.67,21.2l47.15-0.26l-15.6-62.08
				L436.18,351.81z"/>
			<path class="st8" d="M337.25,241.4l-32.85,12.63l-5.1,122.16l-12.69,70.96l36.23,0.68c0.34-8.65,9.56-80.72,9.56-80.72
				l12.1-112.8l9.45-24.1L337.25,241.4z"/>
			<g>
				<g>
					<g>
						<path class="st7" d="M337.85,240.73c-0.02-0.01-0.22,0.22-0.6,0.67c-0.41,0.5-0.96,1.17-1.66,2.01
							c-1.47,1.82-3.55,4.4-6.17,7.65l-0.13,0.16l0.17,0.13c1.56,1.17,3.32,2.5,5.23,3.93l0.07-0.43c-1.91,0.6-3.97,1.24-6.13,1.92
							l-0.19,0.06l0,0.2c0.12,10.82,0.26,24.44,0.42,39.21c0.27,18.03,0.51,34.34,0.68,46.22c0.12,5.87,0.22,10.64,0.29,14
							c0.05,1.61,0.09,2.88,0.11,3.81c0.02,0.4,0.03,0.73,0.05,0.99c0.01,0.22,0.03,0.34,0.04,0.34c0.01,0,0.02-0.11,0.03-0.34
							c0.01-0.26,0.01-0.59,0.02-0.99c0-0.92,0.01-2.2,0.02-3.81c-0.02-3.36-0.04-8.14-0.07-14.01
							c-0.12-11.88-0.29-28.19-0.48-46.22c-0.21-14.77-0.41-28.39-0.56-39.21l-0.19,0.26c2.16-0.7,4.22-1.36,6.12-1.98l0.46-0.15
							l-0.38-0.28c-1.92-1.41-3.7-2.71-5.27-3.87l0.04,0.29c2.55-3.29,4.58-5.92,6.02-7.76c0.66-0.88,1.19-1.57,1.58-2.08
							C337.69,240.99,337.87,240.74,337.85,240.73z"/>
					</g>
				</g>
			</g>
			<g>
				<g>
					<g>
						<path class="st7" d="M397.65,358.78c0.01,0,0.05-0.11,0.13-0.33c0.08-0.26,0.19-0.57,0.32-0.97c0.3-0.9,0.7-2.15,1.22-3.73
							c1.07-3.23,2.67-7.9,4.71-13.64c1.04-2.87,2.17-6.01,3.39-9.38c1.26-3.35,2.42-7.03,3.45-10.94
							c1.99-7.83,3.52-16.57,4.82-25.78c1.66-11.99,2.74-23.3,3.4-33.03l0.01-0.14l-0.1-0.1c-1.85-1.77-3.61-3.45-5.29-5.04
							l-0.03,0.41c1.78-1.34,3.44-2.59,5.01-3.77l0.2-0.15l-0.14-0.19c-3.8-5.09-6.88-9.23-9.05-12.14
							c-1.06-1.39-1.89-2.49-2.49-3.28c-0.27-0.34-0.49-0.62-0.66-0.84c-0.15-0.19-0.24-0.28-0.25-0.27
							c-0.01,0.01,0.05,0.11,0.19,0.32c0.16,0.23,0.36,0.52,0.61,0.88c0.58,0.81,1.37,1.93,2.38,3.36
							c2.13,2.94,5.15,7.12,8.87,12.27l0.05-0.34c-1.58,1.17-3.26,2.41-5.04,3.73l-0.26,0.19l0.23,0.22
							c1.66,1.61,3.41,3.3,5.25,5.08l-0.09-0.23c-0.71,9.71-1.82,21.01-3.48,32.98c-1.3,9.19-2.8,17.92-4.75,25.72
							c-1.01,3.9-2.13,7.53-3.37,10.9c-1.19,3.38-2.3,6.53-3.31,9.41c-1.99,5.77-3.51,10.46-4.51,13.72c-0.5,1.63-0.86,2.9-1.1,3.77
							c-0.1,0.4-0.19,0.73-0.25,0.99C397.66,358.66,397.64,358.77,397.65,358.78z"/>
					</g>
				</g>
			</g>
			<g class="st13">
				<g>
					<polygon points="436.18,421.32 410.08,431.44 408.34,425.69 395.41,436.36 394.7,420.44 406.07,404.67 434.27,413.71 					"/>
				</g>
			</g>
			<g>
				<g>
					<path class="st8" d="M482.01,393.73c2.81-1.73,4.55-4.73,4.67-8c0.11-2.93-0.03-7.28-0.8-13.63
						c-1.86-15.37-22.48-104.6-22.48-104.6l-30.37,69.54l8.78,30.27l-44.73,21.19l12.45,34.78
						C409.54,423.29,468.98,401.76,482.01,393.73z"/>
				</g>
			</g>
			<g>
				<g>
					<g>
						<path class="st7" d="M451.51,288.07c-0.02-0.01-0.12,0.26-0.28,0.78c-0.18,0.59-0.4,1.34-0.68,2.27
							c-0.59,2.06-1.4,4.91-2.4,8.38c-2,7.09-4.73,16.88-7.52,27.77c-2.78,10.89-4.98,20.83-6.37,28.06
							c-0.69,3.62-1.22,6.55-1.53,8.58c-0.15,0.96-0.26,1.74-0.35,2.34c-0.07,0.54-0.1,0.82-0.08,0.82c0.02,0,0.1-0.27,0.21-0.8
							c0.13-0.6,0.28-1.37,0.48-2.32c0.43-2.1,1.02-4.99,1.75-8.53c1.51-7.2,3.78-17.1,6.56-27.99c2.78-10.88,5.44-20.69,7.32-27.81
							c0.91-3.5,1.65-6.36,2.19-8.44c0.23-0.94,0.41-1.71,0.56-2.3C451.48,288.36,451.54,288.07,451.51,288.07z"/>
					</g>
				</g>
			</g>
			<g>
				<g>
					<g>
						<path class="st7" d="M467.2,400.88c0-0.01-0.1,0.02-0.29,0.08c-0.22,0.08-0.49,0.17-0.84,0.29c-0.77,0.29-1.85,0.69-3.22,1.19
							c-2.84,1.08-6.92,2.63-12.02,4.57c-10.29,3.97-24.7,9.52-41.41,15.96l0.43,0.2c-2.6-7.28-5.42-15.17-8.34-23.34
							c-1.4-3.9-2.77-7.73-4.1-11.45l-0.17,0.42c17.16-8.2,32.5-15.53,44.21-21.12l-0.03,0.01c3.74-1.17,7.34-1.49,10.44-1.18
							c3.11,0.27,5.7,1.11,7.73,1.94c2.03,0.85,3.49,1.74,4.49,2.33c0.46,0.3,0.83,0.54,1.1,0.72c0.25,0.16,0.38,0.24,0.39,0.23
							c0.01-0.01-0.11-0.11-0.35-0.28c-0.27-0.2-0.62-0.45-1.07-0.78c-0.97-0.64-2.42-1.57-4.46-2.46c-2.03-0.88-4.64-1.77-7.8-2.08
							c-3.14-0.35-6.82-0.06-10.63,1.1l-0.02,0l-0.02,0.01c-11.73,5.55-27.11,12.82-44.3,20.95l-0.28,0.13l0.1,0.29
							c1.33,3.72,2.7,7.55,4.1,11.45c2.93,8.17,5.76,16.05,8.37,23.33l0.11,0.32l0.32-0.12c16.67-6.53,31.06-12.17,41.32-16.19
							c5.07-2.01,9.12-3.62,11.95-4.75c1.36-0.55,2.42-0.98,3.18-1.29c0.33-0.14,0.6-0.26,0.82-0.35
							C467.11,400.93,467.2,400.89,467.2,400.88z"/>
					</g>
				</g>
			</g>
			<g>
				<g>
					<path class="st7" d="M366.76,264.48c0.03,0.03,0.47-0.37,1.26-1.13c0.86-0.84,1.97-1.94,3.33-3.28
						c2.88-2.92,6.79-6.86,11.26-11.38l-0.49-0.02c1.41,1.63,2.42,3.79,2.9,6.12c0.26,1.21,0.34,2.43,0.28,3.58l-0.05,0.77l0.6-0.48
						c5.7-4.57,10.31-9.05,13.76-12.11c1.71-1.54,3.1-2.77,4.07-3.61c0.96-0.84,1.49-1.3,1.46-1.33c-0.02-0.03-0.61,0.36-1.62,1.14
						c-1.02,0.78-2.46,1.95-4.21,3.46c-3.54,2.97-8.22,7.4-13.88,11.92l0.55,0.29c0.08-1.21-0.02-2.5-0.29-3.76
						c-0.51-2.43-1.56-4.68-3.08-6.41l-0.24-0.28l-0.25,0.26c-4.4,4.59-8.25,8.6-11.09,11.55c-1.3,1.4-2.37,2.54-3.19,3.42
						C367.12,264,366.73,264.45,366.76,264.48z"/>
				</g>
			</g>
			<g>
				<g>
					<path class="st7" d="M351.69,239.58c-0.04,0-0.06,0.37-0.05,1.05c0.01,0.68,0.04,1.67,0.14,2.92c0.19,2.5,0.65,6.02,1.67,10.05
						l0.21,0.82l0.39-0.76c1.05-2.03,2.51-4.1,4.36-5.96c0.5-0.5,1.01-0.98,1.52-1.4l-0.56-0.18c1.21,5.38,2.78,10.04,4.07,13.31
						c0.65,1.64,1.21,2.94,1.63,3.82c0.42,0.88,0.67,1.36,0.71,1.34c0.04-0.02-0.13-0.52-0.48-1.44c-0.38-1.04-0.86-2.34-1.43-3.89
						c-1.17-3.3-2.65-7.96-3.84-13.3l-0.12-0.55l-0.44,0.37c-0.52,0.44-1.05,0.92-1.56,1.44c-1.9,1.91-3.39,4.05-4.45,6.15l0.6,0.07
						c-1.05-3.98-1.6-7.46-1.9-9.93C351.87,241.04,351.77,239.58,351.69,239.58z"/>
				</g>
			</g>
			<g class="st13">
				<path d="M328.71,257.03l-3.74,5.11c0,0,1.05,77.45,5.02,96.69L328.71,257.03z"/>
			</g>
			<g>
				<path class="st7" d="M286.61,447.15c-0.01,0,0.01-0.13,0.05-0.37c0.05-0.27,0.11-0.62,0.18-1.08c0.18-0.97,0.43-2.37,0.76-4.16
					c0.69-3.64,1.67-8.87,2.89-15.37c2.5-13.04,5.98-31.15,9.89-51.53l0,0.05c-0.03-2.73-0.06-5.63-0.1-8.56
					c-0.22-22.74-0.42-43.32-0.57-58.24c-0.05-7.43-0.09-13.46-0.11-17.65c0-2.06,0-3.67,0-4.8c0.01-0.53,0.01-0.94,0.01-1.25
					c0.01-0.28,0.01-0.43,0.02-0.43c0.01,0,0.02,0.14,0.03,0.43c0.01,0.31,0.02,0.72,0.04,1.25c0.02,1.12,0.06,2.74,0.1,4.8
					c0.07,4.19,0.16,10.22,0.28,17.65c0.18,14.93,0.44,35.5,0.72,58.24c0.03,2.93,0.06,5.83,0.09,8.56l0,0.03l-0.01,0.03
					c-3.98,20.36-7.51,38.46-10.06,51.5c-1.29,6.48-2.33,11.71-3.05,15.34c-0.36,1.78-0.65,3.17-0.85,4.14
					c-0.1,0.45-0.17,0.81-0.23,1.07C286.66,447.03,286.62,447.15,286.61,447.15z"/>
			</g>
			<g>
				<path class="st7" d="M290.88,371.78c-0.02,0.16-2.6-0.07-5.78,0.16c-3.18,0.21-5.71,0.78-5.74,0.63
					c-0.04-0.13,2.47-0.94,5.71-1.15C288.3,371.19,290.91,371.65,290.88,371.78z"/>
			</g>
		</g>
		<g>
			<path class="st11" d="M397.56,390.83c0,0-25.22,5.26-28.97,6.08c-3.75,0.82-18.55,11.93-20.02,12.75
				c-1.47,0.82-5.74,3.54-5.74,3.54s2.76,4.52,7.65,2.88c4.89-1.64,8.11-4.44,8.11-4.44l-10.43,9.51l-11.87,7.25
				c-1.45,0.89-2.16,2.72-1.49,4.3c0.38,0.89,1.11,1.56,2.49,1.32c3.37-0.6,14.32-4.87,14.32-4.87s0.51,6.61,6.54,7.43
				c0,0,1.3,5.68,6.54,4.47c0,0,5.16,4.22,9.73,1.81c4.57-2.41,16.43-7.26,18.87-12.19c2.44-4.92,5.54-9.19,5.54-9.19l9.13-1.59
				L397.56,390.83z"/>
			<g>
				<g>
					<g>
						<g>
							<path class="st12" d="M351.61,429.15c0.09,0.18,3.24-1.09,6.92-3.13c3.7-2.03,6.31-4.29,6.17-4.46
								c-0.13-0.17-2.89,1.77-6.54,3.78C354.51,427.35,351.51,428.94,351.61,429.15z"/>
						</g>
					</g>
				</g>
			</g>
			<g>
				<g>
					<g>
						<g>
							<path class="st12" d="M370.85,428.17c-0.11-0.2-3.24,1.55-6.82,4.07c-3.58,2.51-6.52,4.48-6.42,4.66
								c0.11,0.2,3.26-1.49,6.86-4.02C368.05,430.37,370.95,428.35,370.85,428.17z"/>
						</g>
					</g>
				</g>
			</g>
			<g>
				<g>
					<g>
						<g>
							<path class="st12" d="M375.56,433.24c-0.14-0.14-2.43,1.78-5.5,3.86c-3.06,2.09-5.5,3.89-5.37,4.08
								c0.11,0.16,2.73-1.33,5.81-3.44C373.61,435.64,375.73,433.4,375.56,433.24z"/>
						</g>
					</g>
				</g>
			</g>
			<g>
				<g>
					<g>
						<g>
							<path class="st12" d="M372.52,401.17c-0.02-0.09-1.06,0.02-2.64,0.57c-1.59,0.54-3.68,1.61-5.7,3.21
								c-2.02,1.6-3.57,3.34-4.58,4.67c-1.01,1.33-1.52,2.24-1.44,2.3c0.21,0.17,2.58-3.24,6.5-6.35
								C368.55,402.39,372.59,401.4,372.52,401.17z"/>
						</g>
					</g>
				</g>
			</g>
		</g>
	</g>
</g>
<g id="Character_3">
	<g>
		<g>
			<g>
				<g>
					<g>
						<path class="st14" d="M505.02,303.27c0.14,1.15-10.34,29.62-10.34,29.62l-14.63-53.11l-20.23,4.23c0,0,5.49,73.39,9.04,83.31
							c3.79,10.59,25.94,18.51,38.32,4.15c3.54-4.11,14.85-30.33,14.85-30.33L505.02,303.27z"/>
					</g>
				</g>
				<g>
					<g>
						<path class="st14" d="M480.04,279.79c0,0,2.46-6.58,0.51-12.28c-1.95-5.7-8.56-10.11-8.15-13.53
							c0.41-3.42-3.1-11.62-6.26-10.97c-3.17,0.64-5.5,3.73-2.83,9c2.68,5.27,4.23,10.71,4.23,10.71s-32.95-16.99-35.65-17.35
							c-2.69-0.37-5.38-0.74-6.08,1.39c-0.7,2.12,5.88,4.84,5.88,4.84l8.84,11.41c0,0,2.34,7.17,6.15,12.26
							c3.81,5.09,11.29,8.5,11.29,8.5l9.61,11.44C467.59,295.2,482.16,290.27,480.04,279.79z"/>
					</g>
				</g>
				<g>
					<g>
						<path class="st15" d="M432.25,252.05c0.05,0.05,0.29-0.19,0.81-0.44c0.51-0.24,1.34-0.46,2.34-0.28
							c2,0.36,4.54,2.07,6.63,4.46c2.11,2.42,3.46,5.06,4.45,6.94c0.98,1.9,1.59,3.08,1.71,3.03c0.11-0.05-0.3-1.31-1.13-3.29
							c-0.85-1.96-2.13-4.72-4.35-7.26c-2.21-2.51-4.92-4.25-7.24-4.5c-1.16-0.11-2.09,0.25-2.6,0.61
							C432.36,251.68,432.21,252.02,432.25,252.05z"/>
					</g>
				</g>
				<g>
					<g>
						<path class="st15" d="M444.33,256.31c-0.12,0.21,2,1.65,4.74,3.21c2.75,1.56,5.07,2.64,5.19,2.43c0.12-0.21-2-1.65-4.74-3.21
							C446.78,257.19,444.45,256.1,444.33,256.31z"/>
					</g>
				</g>
				<g>
					<g>
						<path class="st15" d="M461.79,263.64c0.11-0.21-2.49-1.08-5.54-0.05c-3.06,1-4.6,3.25-4.39,3.35c0.2,0.19,1.89-1.6,4.67-2.5
							C459.31,263.49,461.75,263.91,461.79,263.64z"/>
					</g>
				</g>
			</g>
			<g>
				<g>
					<g>
						<path class="st14" d="M542.6,252.66l11.42-4.93l39.28,1.02l14.74,6.2l2.98,37.72c0,0-55.87,19.88-56.09,19.88
							c-0.22,0-33.25-32.41-33.25-32.41L542.6,252.66z"/>
					</g>
					<g>
						<path class="st7" d="M529.32,274.91c0.41,0.29,4.3,1.23,9.32,2.35c16.07,3.59,32.84,2.64,48.38-2.76l15.14-5.26
							c0,0,24.95,50,25.45,51.72c0.5,1.73-21.74,126.52-21.74,126.52h-88.94l2.17-71.72c0,0-1.5-65.91-1.25-66.65
							S529.32,274.91,529.32,274.91z"/>
					</g>
					<g>
						<path class="st10" d="M552.97,243.07l-11.54,8.15c-8.88,2.82-24.66,8.21-29.45,12.95c-7.23,7.16-16.72,55.27-16.72,55.27
							s-1.66-4.13-5.43-4.13l-25.84,40.56c0,0,2.62,21.19,8.86,23.41c6.24,2.22,23.39,1,23.64,1c0.25,0,10.73,0,10.73,0l-3.96,67.13
							l20.84,0.09l0,0l0.83-74.62l3.89-46.52l10.77-43.32L552.97,243.07z"/>
					</g>
					<g>
						<g>
							<path class="st7" d="M509.65,292.66c0.02,0,0.05,0.31,0.08,0.91c0.03,0.65,0.07,1.52,0.12,2.6c0.09,2.26,0.18,5.54,0.25,9.58
								c0.14,8.09,0.15,19.28-0.22,31.62c-0.37,12.35-1.05,23.52-1.68,31.59c-0.31,4.04-0.6,7.3-0.83,9.55
								c-0.11,1.08-0.2,1.95-0.27,2.59c-0.07,0.59-0.11,0.9-0.14,0.9c-0.02,0-0.01-0.32,0.02-0.91c0.04-0.65,0.09-1.51,0.16-2.6
								c0.15-2.32,0.37-5.57,0.64-9.56c0.52-8.07,1.13-19.23,1.51-31.58c0.37-12.34,0.43-23.51,0.39-31.6
								c-0.03-4-0.05-7.26-0.06-9.58c0-1.09,0-1.96-0.01-2.61C509.62,292.98,509.63,292.66,509.65,292.66z"/>
						</g>
					</g>
					<g>
						<g>
							<path class="st7" d="M509.39,289.16c-0.16,0.04-0.89-2.44-1.63-5.54c-0.74-3.1-1.21-5.64-1.06-5.67
								c0.16-0.04,0.89,2.44,1.63,5.54C509.08,286.58,509.55,289.12,509.39,289.16z"/>
						</g>
					</g>
					<g class="st13">
						<g>
							<path d="M509.74,294.74c-0.11,0.53-0.22,1.06-0.32,1.58c-5.25,26.2-5.57,57.46-2.22,83.96c1,0.13,4.61-81.5,2.43-85.01"/>
						</g>
					</g>
					<g>
						<path class="st10" d="M654.59,282.66c-2.54-10.3-8.48-15.2-8.48-15.2l-25.96,33.74l9.77,146.22h37.51l-4.29-74.23
							C663.14,373.18,657.13,292.96,654.59,282.66z"/>
						<path class="st10" d="M643.34,276.03l5.09-6.38c0,0-10.3-10.71-25.31-16.38c-7.32-2.77-18.52-7.82-18.52-7.82l-8.05-9.92
							l-1.95,28.66c0,0-1.42,63.31-2.42,74.78c-0.96,10.98-12.54,61.24-12.39,108.54l56.15-0.09l-12.49-73.55
							c0,0,5.1-46.88,5.42-48.41C629.18,323.92,643.34,276.03,643.34,276.03z"/>
						<g>
							<g>
								<path class="st7" d="M646.1,275.64c0.12,0.11-3.94,5-9.08,10.93c-5.14,5.93-9.41,10.66-9.53,10.55
									c-0.12-0.11,3.94-5,9.08-10.93C641.71,280.26,645.98,275.53,646.1,275.64z"/>
							</g>
						</g>
					</g>
					<g>
						<g>
							<path class="st7" d="M532.83,291.84c-0.02,0-0.05-0.17-0.09-0.49c-0.04-0.38-0.1-0.85-0.16-1.44
								c-0.13-1.33-0.31-3.14-0.53-5.4l0.31,0.1c-2.77,3.16-6.39,7.79-9.72,13.68l-0.62,1.1l0.1-1.26c0.32-3.83,0.89-8.02,1.88-12.3
								c2.27-9.92,6.48-18.24,9.81-23.96c1.66-2.88,3.12-5.14,4.13-6.7c0.49-0.73,0.89-1.32,1.2-1.77c0.28-0.4,0.43-0.61,0.45-0.6
								s-0.1,0.24-0.35,0.66c-0.28,0.47-0.65,1.08-1.1,1.83c-0.95,1.59-2.35,3.88-3.96,6.78c-3.23,5.76-7.35,14.04-9.6,23.89
								c-0.98,4.25-1.57,8.41-1.9,12.22l-0.52-0.16c3.39-5.92,7.09-10.53,9.94-13.65l0.28-0.31l0.03,0.41
								c0.15,2.26,0.28,4.09,0.36,5.41c0.03,0.59,0.05,1.06,0.07,1.44C532.85,291.67,532.85,291.84,532.83,291.84z"/>
						</g>
					</g>
				</g>
			</g>
			<g>
				<path class="st7" d="M485.74,375.16c-0.02-0.01,0.06-0.2,0.22-0.56c0.19-0.41,0.42-0.92,0.71-1.55
					c0.32-0.67,0.71-1.49,1.11-2.46c0.41-0.97,0.92-2.05,1.37-3.29c0.49-1.23,1.01-2.58,1.5-4.05c0.54-1.46,1-3.05,1.51-4.73
					c0.95-3.36,1.84-7.1,2.51-11.08c0.64-3.98,0.99-7.81,1.16-11.3c0.05-1.75,0.12-3.41,0.08-4.96c0.01-1.55-0.06-3-0.13-4.32
					c-0.04-1.32-0.17-2.51-0.25-3.56c-0.07-1.05-0.18-1.95-0.27-2.68c-0.07-0.69-0.14-1.25-0.18-1.7c-0.04-0.39-0.05-0.59-0.03-0.6
					c0.02,0,0.06,0.2,0.13,0.58c0.07,0.44,0.17,1,0.28,1.68c0.12,0.73,0.26,1.63,0.36,2.68c0.11,1.05,0.27,2.24,0.33,3.57
					c0.09,1.32,0.18,2.78,0.2,4.34c0.06,1.56,0.01,3.23-0.03,4.99c-0.15,3.51-0.49,7.36-1.13,11.37c-0.67,4-1.58,7.76-2.56,11.13
					c-0.53,1.68-1.01,3.27-1.56,4.73c-0.51,1.48-1.06,2.82-1.57,4.05c-0.48,1.24-1.01,2.32-1.45,3.27
					c-0.43,0.96-0.84,1.77-1.19,2.43c-0.33,0.61-0.59,1.11-0.8,1.51C485.86,375,485.76,375.17,485.74,375.16z"/>
			</g>
			<g>
				<path class="st7" d="M604.59,245.45c0.02,0,0.04,0.28,0.06,0.83c0.02,0.59,0.04,1.38,0.07,2.37c0.03,2.11,0.08,5.07,0.14,8.71
					c0.08,7.36,0.17,17.52,0.12,28.75c-0.03,2.52-0.05,4.98-0.08,7.37c-0.02,1.19-0.05,2.37-0.11,3.53
					c-0.02,0.29-0.03,0.58-0.06,0.87l-0.03,0.23c-0.01,0.04-0.02,0.09-0.04,0.14c-0.01,0.02-0.02,0.05-0.04,0.08l-0.01,0.02
					c-0.02,0.02-0.04,0.04-0.07,0.06c-0.05,0.04-0.16,0.05-0.15,0.04c-0.04-0.01-0.09-0.02-0.13-0.03c-0.23-0.11-0.3-0.2-0.42-0.3
					c-0.43-0.39-0.82-0.8-1.2-1.2c-3.02-3.26-5.63-6.35-7.9-9.01l0.35-0.1c-0.69,4.34-1.25,7.88-1.65,10.4
					c-0.2,1.19-0.36,2.14-0.48,2.84c-0.06,0.29-0.1,0.54-0.14,0.74c-0.03,0.17-0.06,0.25-0.07,0.25c-0.01,0-0.01-0.09,0.01-0.26
					c0.02-0.2,0.05-0.45,0.08-0.75c0.09-0.7,0.22-1.65,0.38-2.85c0.36-2.52,0.86-6.07,1.48-10.42l0.06-0.43l0.29,0.33
					c2.29,2.63,4.93,5.71,7.95,8.93c0.38,0.4,0.77,0.8,1.18,1.17c0.09,0.08,0.24,0.19,0.26,0.2c0-0.04-0.04,0.08-0.03,0.18
					c0.03,0.11-0.11-0.06-0.2-0.05l0.01-0.06l0.03-0.19c0.03-0.27,0.04-0.56,0.06-0.84c0.05-1.15,0.08-2.32,0.1-3.51
					c0.02-2.39,0.05-4.85,0.07-7.36c0.01-11.2,0.03-21.34,0.04-28.74c0.01-3.64,0.02-6.6,0.03-8.71c0.01-0.99,0.02-1.78,0.03-2.37
					C604.56,245.73,604.58,245.45,604.59,245.45z"/>
			</g>
			<g>
				<path class="st7" d="M627.49,304.64c0.01,0,0.01,0.12,0,0.34c-0.01,0.25-0.02,0.58-0.04,1c-0.05,0.91-0.11,2.2-0.19,3.85
					c-0.19,3.38-0.47,8.22-0.81,14.22c-0.74,12.07-1.75,28.77-2.89,47.47l0-0.06c0.28,1.58,0.57,3.28,0.87,4.99
					c3.37,19.6,6.42,37.35,8.63,50.22c1.08,6.41,1.95,11.6,2.56,15.23c0.29,1.78,0.51,3.17,0.67,4.15c0.07,0.45,0.12,0.81,0.16,1.08
					c0.03,0.24,0.05,0.37,0.04,0.37c-0.01,0-0.04-0.12-0.09-0.36c-0.05-0.27-0.12-0.62-0.21-1.07c-0.18-0.97-0.44-2.36-0.77-4.13
					c-0.65-3.62-1.58-8.81-2.72-15.2c-2.25-12.87-5.36-30.6-8.78-50.2c-0.3-1.71-0.59-3.4-0.86-4.99l-0.01-0.03l0-0.03
					c1.2-18.69,2.28-35.39,3.06-47.46c0.41-6,0.74-10.84,0.97-14.21c0.12-1.65,0.22-2.94,0.29-3.85c0.04-0.42,0.07-0.75,0.09-1
					C627.46,304.75,627.48,304.64,627.49,304.64z"/>
			</g>
		</g>
		<g>
			<g>
				<g>
					<g>
						<g>
							<g>
								<path class="st7" d="M540.69,149.17c-8.93,0.19-16.6,13.32-15.27,20.72c0.65,3.59,2.29,7.72-0.65,10.38
									c-2.91,2.63-9.03,2.41-11.8,5.12c0,0-3.55,3.5-3.17,8.03c0.39,4.54-0.36,10.57-4.01,12.18l18.13,6.43
									c1.87-1.87,2.62-4.83,4.49-6.7c-2.14,1.96-4.22,8.97,5.48,9.76l6.04-5.26c16.5,4.21,33.83,9.43,47.02,2.34"/>
							</g>
						</g>
					</g>
					<g>
						<g>
							<g>
								<path class="st7" d="M624.7,188.51c-1.19-3.4-3.14-6.53-3.97-10.04c-1.77-7.53,1.8-16.11-2.03-22.85
									c-2.73-4.8-8.39-7.07-13.73-8.59c-5.34-1.52-10.45-2.43-14.48-6.22c-2.96-2.78-4.68-6.65-7.63-9.44
									c-4.2-3.97-10.32-5.24-16.13-5.49c-5.96-0.26-12.11,0.42-17.42,3.12c-5.31,2.7-9.67,7.66-10.52,13.51
									c-0.41,2.85-0.01,5.82-0.86,8.58c-0.94,3.03-3.29,5.41-4.71,8.25c-3,6-1.17,13.96,4.16,18.09l41.84,51.54
									c8.65,3.06,18.07-7.81,24.59-14.21C610.34,208.37,627.71,197.1,624.7,188.51z"/>
							</g>
						</g>
					</g>
					<g>
						<g>
							<g>
								<g>
									<g>
										<g>
											<path class="st14" d="M538.34,171.33c1.47-11.9,10.34-26.08,22.29-24.13l36.99,11.58c3.63,0.59,5.57,3.47,5.28,7.1
												l-7.63,88.36c0.09,0.02-0.92,1.42-0.84,1.44c0,0-10,24.79-34.37,15.68c-4.83-1.81-7.02-0.13-7.69-5.66l0,0
												c-1.06-0.41-6.09-2.16-6.06-2.78l6.65-19.85l0,0c0.34-7.24,0.56-9.44,0.55-9.37c0,0-15.27-2.87-17.28-22.96
												C535.24,200.75,536.71,184.55,538.34,171.33z"/>
										</g>
									</g>
								</g>
							</g>
						</g>
					</g>
					<g>
						<g>
							<g>
								<g>
									<g>
										<g>
											<g>
												<g>
													<g>
														<g>
															<g>
																<g>
																	<g>
																		<g>
																			<g>
																				<g>
																					<g>
																						<g>
																							<g>
																								<g>
																									<g>
																										<g>
																											<path class="st7" d="M567.53,188.45c-0.13,1.35,0.92,2.56,2.33,2.72c1.41,0.16,2.67-0.8,2.8-2.15
																												c0.13-1.35-0.92-2.56-2.33-2.72C568.92,186.15,567.66,187.11,567.53,188.45z"/>
																										</g>
																									</g>
																								</g>
																							</g>
																						</g>
																					</g>
																				</g>
																			</g>
																		</g>
																	</g>
																</g>
															</g>
														</g>
													</g>
												</g>
											</g>
											<g>
												<g>
													<g>
														<g>
															<g>
																<g>
																	<g>
																		<g>
																			<g>
																				<g>
																					<g>
																						<g>
																							<g>
																								<g>
																									<g>
																										<g>
																											<path class="st7" d="M541.82,187.79c-0.13,1.35,0.92,2.56,2.33,2.72c1.41,0.16,2.67-0.8,2.8-2.15
																												c0.13-1.34-0.92-2.56-2.33-2.72C543.2,185.49,541.94,186.45,541.82,187.79z"/>
																										</g>
																									</g>
																								</g>
																							</g>
																						</g>
																					</g>
																				</g>
																			</g>
																		</g>
																	</g>
																</g>
															</g>
														</g>
													</g>
												</g>
											</g>
											<g>
												<g>
													<g>
														<g>
															<g>
																<g>
																	<g>
																		<g>
																			<g>
																				<g>
																					<g>
																						<g>
																							<g>
																								<g>
																									<g>
																										<g>
																											<g>
																												<path class="st7" d="M540.71,179.87c0.29,0.46,2.66-1.08,5.67-0.7c3.01,0.33,4.97,2.38,5.36,2
																													c0.19-0.17-0.06-0.97-0.91-1.89c-0.83-0.92-2.34-1.9-4.22-2.12c-1.88-0.22-3.56,0.38-4.58,1.08
																													C540.99,178.94,540.57,179.66,540.71,179.87z"/>
																											</g>
																										</g>
																									</g>
																								</g>
																							</g>
																						</g>
																					</g>
																				</g>
																			</g>
																		</g>
																	</g>
																</g>
															</g>
														</g>
													</g>
												</g>
											</g>
										</g>
										<g>
											<g>
												<g>
													<g>
														<g>
															<g>
																<g>
																	<g>
																		<g>
																			<g>
																				<g>
																					<g>
																						<g>
																							<g>
																								<g>
																									<g>
																										<g>
																											<g>
																												<path class="st7" d="M568.23,182.38c0.36,0.42,2.69-1.31,5.92-1.23c3.23,0.03,5.55,1.84,5.91,1.43
																													c0.18-0.18-0.18-0.94-1.19-1.76c-0.99-0.82-2.71-1.63-4.72-1.66c-2.01-0.03-3.73,0.72-4.72,1.5
																													C568.41,181.45,568.05,182.19,568.23,182.38z"/>
																											</g>
																										</g>
																									</g>
																								</g>
																							</g>
																						</g>
																					</g>
																				</g>
																			</g>
																		</g>
																	</g>
																</g>
															</g>
														</g>
													</g>
												</g>
											</g>
										</g>
										<g>
											<g>
												<g>
													<g>
														<g>
															<g>
																<g>
																	<g>
																		<g>
																			<g>
																				<g>
																					<g>
																						<g>
																							<g>
																								<g>
																									<g>
																										<g>
																											<g>
																												<path class="st7" d="M557.37,201.31c0.02-0.16-1.69-0.55-4.46-1.07c-0.7-0.11-1.37-0.29-1.46-0.78
																													c-0.14-0.52,0.2-1.25,0.6-2.05c0.77-1.66,1.57-3.4,2.41-5.22c3.36-7.44,5.84-13.57,5.54-13.7
																													c-0.3-0.13-3.28,5.79-6.64,13.22c-0.81,1.83-1.59,3.58-2.33,5.26c-0.32,0.78-0.83,1.66-0.53,2.73
																													c0.16,0.54,0.66,0.95,1.1,1.09c0.45,0.16,0.84,0.19,1.19,0.24
																													C555.6,201.35,557.35,201.46,557.37,201.31z"/>
																											</g>
																										</g>
																									</g>
																								</g>
																							</g>
																						</g>
																					</g>
																				</g>
																			</g>
																		</g>
																	</g>
																</g>
															</g>
														</g>
													</g>
												</g>
											</g>
										</g>
										<g>
											<g>
												<g>
													<g>
														<g>
															<g>
																<g>
																	<g>
																		<g>
																			<g>
																				<g>
																					<g>
																						<g>
																							<g>
																								<g>
																									<g>
																										<g>
																											<path class="st15" d="M553.52,233.7c0,0,13.48,1.65,27.36-5.54c0,0-7.63,14.18-27.65,11.15L553.52,233.7
																												z"/>
																										</g>
																									</g>
																								</g>
																							</g>
																						</g>
																					</g>
																				</g>
																			</g>
																		</g>
																	</g>
																</g>
															</g>
														</g>
													</g>
												</g>
											</g>
										</g>
									</g>
								</g>
							</g>
							<g>
								<g>
									<g>
										<g>
											<g>
												<g>
													<g>
														<g>
															<g>
																<g>
																	<g>
																		<g>
																			<g>
																				<g>
																					<g>
																						<g>
																							<g>
																								<path class="st7" d="M568.32,173.03c0.23,0.76,3.02,0.57,6.26,1.15c3.25,0.51,5.82,1.61,6.29,0.96
																									c0.21-0.31-0.2-1.04-1.22-1.82c-1.01-0.78-2.65-1.57-4.59-1.9c-1.94-0.32-3.75-0.12-4.97,0.29
																									C568.86,172.12,568.23,172.67,568.32,173.03z"/>
																							</g>
																						</g>
																					</g>
																				</g>
																			</g>
																		</g>
																	</g>
																</g>
															</g>
														</g>
													</g>
												</g>
											</g>
										</g>
									</g>
								</g>
							</g>
							<g>
								<g>
									<g>
										<g>
											<g>
												<g>
													<g>
														<g>
															<g>
																<g>
																	<g>
																		<g>
																			<g>
																				<g>
																					<g>
																						<g>
																							<g>
																								<path class="st7" d="M541.57,169.96c0.52,0.66,2.74,0.14,5.37,0.26c2.63,0.04,4.83,0.7,5.38,0.08
																									c0.24-0.3-0.07-0.95-1.01-1.6c-0.92-0.64-2.5-1.22-4.31-1.28c-1.81-0.06-3.41,0.42-4.36,1
																									C541.69,169.02,541.35,169.64,541.57,169.96z"/>
																							</g>
																						</g>
																					</g>
																				</g>
																			</g>
																		</g>
																	</g>
																</g>
															</g>
														</g>
													</g>
												</g>
											</g>
										</g>
									</g>
								</g>
							</g>
						</g>
					</g>
					<g>
						<g>
							<g>
								<path class="st7" d="M636.6,184.7c-1.9-3.48,1.76-7.35-1.15-10.56c-2.66-2.92-9.67-3.03-12.17-6.01
									c-1.95-2.33-2.03-2.94-2.1-5.12c-0.08-2.73-1.33-14.22-18.27-16.55l-2.35,10.44c-1.06-0.49-2.15-0.92-3.24-1.31
									c-13.79-4.99-28.19-8.35-42.78-9.98c-1.76,2.99-0.01,6.98,2.77,9.09c2.77,2.1,6.31,2.89,9.6,4.05
									c3.3,1.15,6.69,2.96,8.09,6.13c1.5,3.37,0.36,7.41,1.68,10.85c2.28,5.92,10.71,7.69,12.95,13.62
									c1.7,4.48-0.86,9.33-1.43,14.09c-0.65,5.39,1.46,11.03,5.5,14.7c3.19,2.89,8.61,8.14,8.98,7.08l45.35-28.07
									C650.65,190.85,639.21,189.46,636.6,184.7z"/>
							</g>
						</g>
					</g>
				</g>
				<g>
					<g>
						<g>
							<g>
								<path class="st0" d="M537.13,218.72c0.01,0.01-0.15,0.09-0.46,0.23c-0.31,0.16-0.78,0.33-1.4,0.53
									c-1.24,0.38-3.14,0.68-5.47,0.39c-2.3-0.32-5.05-1.28-7.34-3.39c-1.14-1.04-2.12-2.37-2.82-3.89
									c-0.68-1.53-1.09-3.24-1.17-5.01c-0.15-3.54,1.13-6.94,3.23-9.21c2.09-2.29,4.75-3.53,7.03-3.97
									c2.3-0.45,4.23-0.22,5.48,0.1c0.63,0.17,1.11,0.32,1.42,0.46c0.32,0.13,0.48,0.2,0.47,0.21c-0.01,0.01-0.18-0.03-0.5-0.14
									c-0.32-0.12-0.8-0.24-1.43-0.39c-1.25-0.27-3.14-0.45-5.38,0.02c-2.22,0.47-4.79,1.7-6.81,3.94
									c-2.02,2.21-3.25,5.5-3.11,8.94c0.08,1.72,0.47,3.38,1.13,4.86c0.67,1.48,1.62,2.76,2.71,3.78
									c2.21,2.05,4.88,3.02,7.12,3.37c2.27,0.32,4.15,0.07,5.39-0.26c0.62-0.17,1.1-0.32,1.41-0.45
									C536.96,218.76,537.13,218.71,537.13,218.72z"/>
							</g>
						</g>
					</g>
				</g>
				<g>
					<g>
						<g>
							<g>
								<path class="st10" d="M626.82,209.72c-0.01,0,0.03-0.11,0.11-0.31c0.08-0.2,0.22-0.49,0.31-0.9
									c0.23-0.8,0.43-2.05,0.15-3.62c-0.27-1.55-1.06-3.44-2.73-4.98c-0.83-0.76-1.9-1.38-3.13-1.72
									c-1.24-0.35-2.63-0.46-4.02-0.94c-0.69-0.24-1.38-0.6-1.95-1.13c-0.58-0.52-1.01-1.21-1.31-1.95
									c-0.59-1.5-0.67-3.18-0.58-4.86c0.1-1.68,0.31-3.42,0.07-5.17c-0.13-0.87-0.38-1.73-0.85-2.5c-0.5-0.73-1.1-1.44-1.91-1.92
									c-1.57-1.01-3.5-1.46-5.43-1.93c-1.93-0.48-3.99-0.94-5.77-2.12c-0.9-0.57-1.65-1.39-2.19-2.32
									c-0.55-0.93-0.85-1.98-1.06-3.04c-0.41-2.12-0.41-4.29-0.81-6.41c-0.77-4.26-3.99-7.77-7.81-9.18
									c-1.91-0.75-3.97-0.79-5.97-0.99c-1-0.1-2-0.24-2.95-0.55c-0.95-0.3-1.85-0.79-2.55-1.49c-1.41-1.42-1.9-3.31-2.52-4.97
									c-0.57-1.69-1.48-3.18-2.6-4.41c-2.29-2.44-5.31-3.83-8.14-4.13c-2.86-0.34-5.46,0.45-7.41,1.59
									c-1.97,1.14-3.33,2.61-4.26,3.9c-0.9,1.32-1.39,2.47-1.64,3.27c-0.15,0.39-0.2,0.71-0.26,0.92
									c-0.06,0.21-0.09,0.31-0.1,0.31c0,0,0.05-0.44,0.28-1.26c0.22-0.81,0.69-1.99,1.58-3.34c0.91-1.32,2.28-2.82,4.27-4.01
									c1.97-1.17,4.63-2,7.56-1.67c2.9,0.29,6,1.69,8.36,4.18c1.16,1.25,2.11,2.8,2.69,4.52c0.62,1.67,1.12,3.51,2.45,4.82
									c1.32,1.33,3.32,1.74,5.28,1.92c1.97,0.19,4.08,0.23,6.07,1c3.95,1.46,7.27,5.08,8.07,9.48c0.41,2.17,0.41,4.35,0.81,6.41
									c0.2,1.03,0.5,2.03,1.01,2.92c0.52,0.88,1.22,1.64,2.07,2.19c3.46,2.22,7.85,1.95,11.19,4.07c0.85,0.5,1.49,1.26,2.02,2.04
									c0.5,0.82,0.76,1.73,0.89,2.63c0.24,1.82,0.02,3.57-0.08,5.24c-0.1,1.66-0.02,3.3,0.54,4.73c0.28,0.71,0.68,1.36,1.22,1.85
									c0.53,0.5,1.18,0.85,1.84,1.08c1.34,0.47,2.73,0.6,3.99,0.96c1.27,0.36,2.38,1.01,3.22,1.8c1.7,1.59,2.48,3.54,2.73,5.11
									c0.26,1.6,0.03,2.87-0.23,3.67c-0.11,0.41-0.26,0.7-0.35,0.89C626.87,209.63,626.82,209.73,626.82,209.72z"/>
							</g>
						</g>
					</g>
				</g>
			</g>
			<path class="st15" d="M567.14,205.41c-0.19-0.24-0.41-0.48-0.7-0.56c-0.35-0.1-0.71,0.04-1.05,0.17
				c-2.74,1.08-5.48,2.17-8.23,3.25l0,0c0.22,4.56,3.11,6.33,5.28,6.37c2.17,0.04,4.31-1.24,5.28-3.15
				C568.69,209.57,568.46,207.11,567.14,205.41z"/>
			<g>
				<path class="st7" d="M561.34,214.47c-0.01-0.11,1.47,0.3,3.56-0.57c1-0.44,2.2-1.22,2.71-2.57c0.53-1.35,0.56-3.06-0.04-4.63
					c-0.25-0.63-0.59-1.22-0.99-1.71l0.29,0.07c-2.79,1.12-5.31,1.97-7.12,2.51c-1.82,0.55-2.93,0.8-2.95,0.74
					c-0.02-0.06,1.06-0.44,2.84-1.07c1.78-0.63,4.26-1.53,7.03-2.67l0.17-0.07l0.12,0.15c0.44,0.53,0.82,1.16,1.08,1.85
					c0.66,1.69,0.6,3.54,0.01,4.99c-0.62,1.52-1.95,2.32-3.02,2.74c-1.1,0.43-2.07,0.47-2.71,0.44
					C561.68,214.63,561.33,214.5,561.34,214.47z"/>
			</g>
		</g>
	</g>
</g>
<g id="Character_1">
	<g>
		<g>
			<g>
				<g>
					<g>
						<g>
							<g>
								<g>
									<g>
										<g>
											<g>
												<g>
													<g>
														<path class="st11" d="M201.54,339.4l13.84-3.99l17.17-6.49l13.62-7.39c0,0,1.19-1.18-0.48-2.65
															c-1.67-1.47-9.08,2.63-9.08,2.63l-5.87,2.19c0,0-4.95,0.41-4.67-0.06c0.28-0.46,7.95-4.17,7.95-4.17l13.09-7.12
															c0,0,3.69-1.91,2.55-4.36c-0.55-1.17-1.91-1.86-4.42-0.89c-2.51,0.96-6.47,3.45-7.89,4.03
															c-1.42,0.58-9.51,4.21-9.51,4.21l16.75-11.48c0,0,5.46-3.26,3.71-5.56c-1.75-2.3-5.08,0.24-6.99,0.98
															c-1.91,0.74-12.43,7.46-16.53,9.32c-3.51,1.6-2.67,0.27-2.67,0.27s5.56-3.44,9.95-6.15c4.39-2.71,7.72-5.4,4.86-7.18
															c-1.86-1.16-10.27,3.33-10.27,3.33l-12.42,6.94l-5.92,2.62l4.93-4.42c0,0,3.71-2.55,5.4-6.72
															c1.73-4.27-1.77-4.42-1.77-4.42l-20.26,13.86c-3.15,2.75-6.87,16.01-6.87,16.01l-39.09,15.63l16.22,23.73
															L201.54,339.4z"/>
													</g>
												</g>
											</g>
										</g>
									</g>
								</g>
							</g>
						</g>
					</g>
				</g>
			</g>
			<g>
				<path class="st12" d="M207.81,307.95c0.03-0.02,0.25,0.22,0.61,0.71c0.36,0.48,0.82,1.23,1.27,2.2
					c0.91,1.93,1.68,4.95,1.23,8.24c-0.46,3.3-2,5.99-3.4,7.61c-0.7,0.82-1.34,1.41-1.81,1.78c-0.47,0.37-0.75,0.55-0.77,0.52
					c-0.06-0.07,1-0.87,2.3-2.54c1.29-1.64,2.73-4.27,3.17-7.45c0.44-3.18-0.24-6.1-1.05-8.03
					C208.55,309.06,207.73,308.01,207.81,307.95z"/>
			</g>
		</g>
		<g>
			<g>
				<g>
					<g>
						<g>
							<g>
								<g>
									<path class="st7" d="M206.74,253.92c0.31-1.42,1.76-2.26,2.96-3.12c4.31-3.08,6.63-8.6,5.79-13.74
										c-0.84-5.15-4.8-9.7-9.87-11.35c-1.25-0.41-2.6-0.67-3.63-1.48c-2.56-2.01-1.74-5.94-2.71-9
										c-2.06-6.48-11.54-7.75-14.93-13.68c-2.07-3.61-1.38-8.04-1.19-12.17c0.18-4.13-0.61-8.95-4.29-11.01
										c-1.98-1.11-4.45-1.18-6.38-2.37c-3.99-2.45-3.82-8.02-5.29-12.38c-2.32-6.87-10.23-11.47-17.52-10.2
										c0,0,2.9-6.23-4.79-9.41c-9.28-3.84-9.88,2.66-14.15-1.39c-4.54-4.31-12.32-4.85-17.44-1.21c-1.59,1.13-2.94,2.61-4.69,3.5
										c-2.13,1.09-4.62,1.21-6.97,1.72c-8.96,1.93-15.94,10.44-15.91,19.4l58.64,99.81c2.03,9.49-3.91,13.75,4.41,19.08
										c1.74,1.12,14.23,4.42,16.29,4.77c2.57,0.43,8.73,0.65,11.11-0.37c5.17-2.23,12.96-5.62,15.03-10.75
										c5.56,2.43,12.67,0.83,16.57-3.72c3.9-4.55,4.25-11.66,0.81-16.56C207.65,256.94,206.4,255.5,206.74,253.92z"/>
								</g>
							</g>
						</g>
						<g>
							<g>
								<g>
									<g>
										<g>
											<g>
												<g>
													<g>
														<g>
															<g>
																<g>
																	<g>
																		<path class="st11" d="M86.81,180.97L86,174.13l41.42-11.71c12.88-2.54,28.19,8.88,30.27,21.53
																			c2.3,14.06,4.55,31.31,3.87,42.03c-1.37,21.54-17.78,25.78-17.78,25.78l3.79,36.63l-0.65,9.42l-40.99-35.83
																			L86.81,180.97z"/>
																	</g>
																</g>
															</g>
														</g>
													</g>
												</g>
											</g>
										</g>
									</g>
								</g>
							</g>
							<g>
								<g>
									<g>
										<g>
											<g>
												<g>
													<g>
														<g>
															<g>
																<g>
																	<g>
																		<g>
																			<g>
																				<g>
																					<g>
																						<g>
																							<g>
																								<g>
																									<g>
																										<path class="st7" d="M153.46,201.57c0.19,1.43-0.89,2.77-2.42,2.99c-1.53,0.22-2.92-0.76-3.12-2.19
																											c-0.19-1.43,0.89-2.77,2.42-3C151.87,199.16,153.27,200.14,153.46,201.57z"/>
																									</g>
																								</g>
																							</g>
																						</g>
																					</g>
																				</g>
																			</g>
																		</g>
																	</g>
																</g>
															</g>
														</g>
													</g>
												</g>
											</g>
										</g>
									</g>
								</g>
							</g>
							<g>
								<g>
									<g>
										<g>
											<g>
												<g>
													<g>
														<g>
															<g>
																<g>
																	<g>
																		<g>
																			<g>
																				<g>
																					<g>
																						<g>
																							<g>
																								<g>
																									<g>
																										<g>
																											<path class="st7" d="M153.96,193.39c-0.31,0.39-2.58-0.94-5.58-0.66c-3,0.24-5.06,1.95-5.42,1.62
																												c-0.18-0.14,0.11-0.82,1.01-1.59c0.88-0.77,2.42-1.57,4.3-1.74c1.87-0.16,3.51,0.36,4.48,0.97
																												C153.74,192.6,154.12,193.22,153.96,193.39z"/>
																										</g>
																									</g>
																								</g>
																							</g>
																						</g>
																					</g>
																				</g>
																			</g>
																		</g>
																	</g>
																</g>
															</g>
														</g>
													</g>
												</g>
											</g>
										</g>
									</g>
								</g>
							</g>
							<g>
								<g>
									<g>
										<g>
											<g>
												<g>
													<g>
														<g>
															<g>
																<g>
																	<g>
																		<g>
																			<g>
																				<g>
																					<g>
																						<g>
																							<g>
																								<g>
																									<g>
																										<path class="st7" d="M126.01,204.2c0.19,1.43-0.89,2.77-2.42,2.99c-1.53,0.22-2.92-0.76-3.12-2.19
																											c-0.19-1.43,0.89-2.77,2.42-3C124.41,201.79,125.81,202.77,126.01,204.2z"/>
																									</g>
																								</g>
																							</g>
																						</g>
																					</g>
																				</g>
																			</g>
																		</g>
																	</g>
																</g>
															</g>
														</g>
													</g>
												</g>
											</g>
										</g>
									</g>
								</g>
							</g>
							<g>
								<g>
									<g>
										<g>
											<g>
												<g>
													<g>
														<g>
															<g>
																<g>
																	<g>
																		<g>
																			<g>
																				<g>
																					<g>
																						<g>
																							<g>
																								<g>
																									<g>
																										<g>
																											<path class="st7" d="M124.5,196.66c-0.31,0.39-2.58-0.94-5.58-0.66c-3,0.24-5.06,1.95-5.42,1.62
																												c-0.17-0.14,0.11-0.82,1.01-1.59c0.88-0.77,2.42-1.57,4.29-1.74c1.87-0.16,3.51,0.36,4.48,0.97
																												C124.28,195.87,124.65,196.48,124.5,196.66z"/>
																										</g>
																									</g>
																								</g>
																							</g>
																						</g>
																					</g>
																				</g>
																			</g>
																		</g>
																	</g>
																</g>
															</g>
														</g>
													</g>
												</g>
											</g>
										</g>
									</g>
								</g>
							</g>
							<g>
								<g>
									<g>
										<g>
											<g>
												<g>
													<g>
														<g>
															<g>
																<g>
																	<g>
																		<g>
																			<g>
																				<g>
																					<g>
																						<g>
																							<g>
																								<g>
																									<g>
																										<path class="st7" d="M137.53,217.37c-0.03-0.17,1.81-0.65,4.79-1.31c0.76-0.15,1.47-0.36,1.55-0.89
																											c0.13-0.56-0.27-1.33-0.73-2.17c-0.9-1.74-1.84-3.57-2.83-5.49c-3.95-7.82-6.88-14.27-6.56-14.43
																											c0.32-0.15,3.79,6.06,7.73,13.88c0.95,1.93,1.87,3.77,2.74,5.53c0.37,0.82,0.97,1.74,0.69,2.9
																											c-0.15,0.58-0.68,1.04-1.15,1.21c-0.48,0.19-0.91,0.24-1.28,0.3
																											C139.45,217.35,137.56,217.54,137.53,217.37z"/>
																									</g>
																								</g>
																							</g>
																						</g>
																					</g>
																				</g>
																			</g>
																		</g>
																	</g>
																</g>
															</g>
														</g>
													</g>
												</g>
											</g>
										</g>
									</g>
								</g>
							</g>
							<g>
								<g>
									<g>
										<g>
											<g>
												<g>
													<g>
														<g>
															<g>
																<g>
																	<g>
																		<g>
																			<g>
																				<g>
																					<g>
																						<g>
																							<g>
																								<g>
																									<path class="st12" d="M143.76,251.81c0,0-15.3,2.29-30.63-4.87c0,0,8.94,14.91,31.27,10.89L143.76,251.81z
																										"/>
																								</g>
																							</g>
																						</g>
																					</g>
																				</g>
																			</g>
																		</g>
																	</g>
																</g>
															</g>
														</g>
													</g>
												</g>
											</g>
										</g>
									</g>
								</g>
							</g>
							<g>
								<g>
									<g>
										<g>
											<g>
												<g>
													<g>
														<g>
															<g>
																<g>
																	<g>
																		<g>
																			<g>
																				<g>
																					<g>
																						<path class="st7" d="M124.15,185.11c-0.22,0.82-3.25,0.72-6.74,1.46c-3.5,0.67-6.24,1.94-6.78,1.27
																							c-0.24-0.32,0.18-1.12,1.25-1.99c1.06-0.87,2.81-1.77,4.9-2.2c2.09-0.42,4.06-0.27,5.39,0.12
																							C123.52,184.15,124.24,184.72,124.15,185.11z"/>
																					</g>
																				</g>
																			</g>
																		</g>
																	</g>
																</g>
															</g>
														</g>
													</g>
												</g>
											</g>
										</g>
									</g>
								</g>
							</g>
							<g>
								<g>
									<g>
										<g>
											<g>
												<g>
													<g>
														<g>
															<g>
																<g>
																	<g>
																		<g>
																			<g>
																				<g>
																					<g>
																						<path class="st7" d="M152.03,185.02c-0.46,0.71-2.6,0.21-5.09,0.41c-2.5,0.11-4.55,0.87-5.1,0.22
																							c-0.24-0.32,0.02-1.02,0.88-1.73c0.85-0.71,2.31-1.36,4.03-1.47c1.71-0.1,3.26,0.36,4.19,0.96
																							C151.87,184.01,152.23,184.67,152.03,185.02z"/>
																					</g>
																				</g>
																			</g>
																		</g>
																	</g>
																</g>
															</g>
														</g>
													</g>
												</g>
											</g>
										</g>
									</g>
								</g>
							</g>
						</g>
					</g>
				</g>
			</g>
			<g>
				<g>
					<g>
						<g>
							<path class="st7" d="M158.49,168.19c-5.23-5.75-12.6-9.8-20.55-11.32l-35.06,5.55l-9.35,5.76c-0.77-2.03-1.27-3.29-1.27-3.29
								c-3.44-2.21-12.81-6.67-20.4,1.39c-2.74,2.91-4.75,10.43-4.61,14.29c0.05,1.46,0.3,3.24-0.98,4.09
								c-0.45,0.3-1,0.41-1.54,0.55c-8.88,2.18-14.75,11.65-12.33,19.86c0.16,0.54,0.35,1.09,0.28,1.65
								c-0.11,0.88-0.84,1.56-1.46,2.23c-4.05,4.36-4.72,11.12-1.61,16.12c0.96,1.54,2.26,2.97,2.66,4.71
								c0.71,3.11-1.62,6.01-3.39,8.72c-5.33,8.14-5.95,19.66,1.19,26.58c1.74,1.68,3.94,3.15,4.67,5.37
								c0.36,1.08,0.32,2.24,0.38,3.37c0.26,5.74,3.88,12.03,10.02,12.99c3.4,0.53,7.45-0.51,9.97,1.68
								c1.1,0.95,1.61,2.33,2.35,3.55c2.79,4.64,9.43,6.96,14.82,5.18c5.39-1.78,8.89-7.46,7.81-12.67
								c6.51-2.5,10.83-9.15,10.18-15.65c0,0-3.85-20.05-2.18-25.59c1.67-5.54-2.89-17-5.44-22.56c-2.55-5.55-0.58-18.8-0.26-24.05
								c0.06-0.92-0.22-2.49-0.71-4.45l0,0c0,0,0-0.01-0.01-0.02c-0.31-1.26-0.71-2.68-1.17-4.2c-0.21-1.42-0.3-2.87-0.35-4.2
								c-0.18-4.94,5-8.7,10.15-7.34c1.25,0.33,2.54,0.5,3.83,0.48c4.18-0.07,8.25-2.07,10.64-5.22c5.04,4.52,12.87,6.15,19.49,4.07
								c2.91,3.4,5.87,6.85,9.65,9.43c3.77,2.58,8.52,4.25,13.14,3.58C166.8,181.33,163.73,173.93,158.49,168.19z"/>
						</g>
					</g>
				</g>
				<g>
					<g>
						<g>
							<g>
								<path class="st10" d="M155.1,175.1c-0.06,0,0-0.78-0.18-2.16c-0.19-1.37-0.69-3.39-2.08-5.53
									c-1.36-2.11-3.71-4.34-7.03-5.35c-3.26-1.03-7.43-0.87-10.94,1.16l-0.25,0.14l-0.2-0.21c-1.39-1.5-3.09-2.83-5.01-3.89
									c-4.26-2.31-9.11-3.03-13.26-2.31c-4.18,0.68-7.58,2.68-9.95,4.74c-2.39,2.09-3.81,4.28-4.65,5.82
									c-0.82,1.57-1.12,2.51-1.19,2.48c-0.02-0.01,0.04-0.24,0.18-0.69c0.13-0.45,0.39-1.1,0.76-1.91
									c0.77-1.6,2.15-3.87,4.56-6.07c2.39-2.16,5.85-4.27,10.18-5.01c4.29-0.78,9.31-0.05,13.72,2.34
									c1.98,1.1,3.75,2.48,5.18,4.04l-0.44-0.07c3.73-2.13,8.09-2.26,11.49-1.14c3.47,1.1,5.88,3.48,7.23,5.69
									c1.38,2.24,1.82,4.33,1.94,5.74c0.06,0.71,0.05,1.26,0.02,1.63C155.15,174.91,155.12,175.1,155.1,175.1z"/>
							</g>
						</g>
					</g>
				</g>
				<g>
					<g>
						<g>
							<g>
								<path class="st10" d="M54.52,208.23c-0.02-0.17,3.34,0.01,8.42-1.44c5.02-1.4,11.81-4.8,16.76-11.03
									c0.26-0.33,0.51-0.65,0.75-0.95l0.1-0.13l0.16-0.01c3.83-0.3,7.29-1.82,9.9-3.8c2.63-1.98,4.49-4.34,5.64-6.5
									c2.35-4.37,2.09-7.59,2.3-7.54c0.02,0,0.03,0.19,0.03,0.55c-0.02,0.36,0.02,0.91-0.1,1.59c-0.15,1.38-0.64,3.37-1.78,5.62
									c-1.12,2.25-2.99,4.71-5.68,6.78c-2.67,2.08-6.25,3.68-10.25,4l0.27-0.15c-0.24,0.31-0.5,0.64-0.76,0.97
									c-2.51,3.16-5.55,5.65-8.58,7.45c-3.01,1.83-6.03,2.94-8.61,3.63c-2.59,0.67-4.75,0.92-6.24,0.99
									c-0.74,0.05-1.33,0.02-1.72,0.02C54.72,208.27,54.52,208.25,54.52,208.23z"/>
							</g>
						</g>
					</g>
				</g>
				<g>
					<path class="st10" d="M59.49,268.72c0.03-0.03,0.39,0.4,1.29,0.92c0.45,0.26,1.05,0.51,1.78,0.7c0.74,0.17,1.62,0.26,2.59,0.16
						c0.97-0.11,2.05-0.39,3.04-1.02c0.51-0.3,0.97-0.71,1.4-1.18c0.4-0.49,0.78-1.03,1.02-1.67c0.52-1.25,0.65-2.76,0.33-4.26
						c-0.35-1.48-1.18-2.99-2.57-3.97l-0.38-0.27l0.47,0c2.41-0.02,4.98-0.71,7.31-2.1c2.31-1.42,4.42-3.44,6.04-5.92
						c0.43-0.6,0.77-1.27,1.16-1.92c0.32-0.68,0.69-1.35,0.95-2.07c0.6-1.42,1.01-2.93,1.29-4.48c0.57-3.12,0.57-6.41,0.2-9.72
						c-0.56-5.03-1.87-9.79-3.05-14.24l-0.03-0.13l0.11-0.08c5.15-3.56,8.94-8.2,11.33-12.83c1.26-2.29,2.1-4.61,2.8-6.79
						c0.28-1.11,0.63-2.16,0.8-3.2c0.1-0.52,0.2-1.02,0.3-1.52c0.1-0.49,0.13-0.99,0.19-1.46c0.45-3.82,0.26-6.9-0.03-8.99
						c-0.11-1.05-0.33-1.84-0.4-2.38c-0.04-0.26-0.08-0.46-0.11-0.62c-0.02-0.14-0.03-0.21-0.03-0.21c0,0,0.31,1.11,0.67,3.19
						c0.33,2.09,0.56,5.19,0.14,9.03c-0.06,0.48-0.09,0.98-0.18,1.47c-0.09,0.5-0.19,1.01-0.29,1.53c-0.16,1.05-0.51,2.11-0.78,3.23
						c-0.69,2.19-1.53,4.54-2.79,6.86c-2.39,4.67-6.21,9.37-11.41,12.99l0.08-0.2c1.2,4.44,2.52,9.22,3.08,14.29
						c0.37,3.33,0.37,6.67-0.21,9.83c-0.28,1.58-0.71,3.12-1.31,4.56c-0.27,0.73-0.64,1.41-0.97,2.11
						c-0.39,0.66-0.74,1.34-1.18,1.95c-1.66,2.52-3.81,4.57-6.17,6.01c-2.39,1.41-5.02,2.12-7.49,2.12l0.09-0.28
						c1.46,1.05,2.31,2.62,2.66,4.16c0.32,1.55,0.18,3.11-0.37,4.41c-0.26,0.66-0.66,1.22-1.07,1.73c-0.45,0.48-0.93,0.9-1.46,1.2
						c-1.04,0.64-2.15,0.91-3.14,1.01c-1,0.09-1.89-0.02-2.64-0.2c-0.74-0.21-1.34-0.47-1.79-0.75c-0.45-0.28-0.77-0.52-0.96-0.71
						C59.59,268.82,59.49,268.72,59.49,268.72z"/>
				</g>
			</g>
			<g>
				<g>
					<path class="st10" d="M179.74,281c0-0.01,0.07-0.05,0.21-0.15c0.16-0.1,0.37-0.23,0.64-0.4c0.28-0.17,0.63-0.39,1.02-0.69
						c0.39-0.28,0.86-0.6,1.33-1.02c1.93-1.6,4.57-4.3,6.49-8.47c0.95-2.07,1.7-4.5,2-7.18c0.29-2.68,0.09-5.63-0.8-8.56
						c-0.88-2.94-2.4-5.87-4.59-8.46c-2.15-2.61-5.03-4.83-8.36-6.33l-0.25-0.11l0.19-0.19c2.88-2.86,5-6.7,5.83-10.91
						c0.29-1.35,0.41-2.73,0.43-4.08c0.02-1.36-0.11-2.71-0.37-4.01c-0.24-1.31-0.64-2.58-1.14-3.78c-0.48-1.21-1.11-2.35-1.8-3.43
						c-2.77-4.31-6.92-7.32-11.16-8.75l-0.18-0.06l0.08-0.17c2.16-4.47,2.29-9.28,1.26-13.15c-1.03-3.91-3.2-6.88-5.31-8.86
						c-2.13-2.01-4.2-3.11-5.63-3.74c-0.72-0.31-1.29-0.53-1.68-0.65c-0.18-0.06-0.32-0.11-0.44-0.15c-0.1-0.04-0.15-0.06-0.15-0.06
						c0,0,0.83,0.17,2.3,0.77c1.45,0.61,3.56,1.69,5.73,3.7c2.15,1.98,4.38,4.97,5.44,8.94c1.07,3.92,0.96,8.81-1.22,13.37
						l-0.1-0.23c4.32,1.45,8.54,4.49,11.37,8.87c0.7,1.09,1.34,2.25,1.84,3.48c0.51,1.23,0.92,2.52,1.17,3.85
						c0.26,1.33,0.4,2.71,0.38,4.09c-0.01,1.38-0.14,2.78-0.43,4.16c-0.85,4.29-3,8.19-5.94,11.1l-0.06-0.31
						c3.39,1.53,6.3,3.78,8.48,6.44c2.21,2.63,3.75,5.62,4.63,8.6c0.89,2.98,1.08,5.98,0.77,8.69c-0.33,2.72-1.1,5.16-2.07,7.25
						c-1.97,4.19-4.66,6.89-6.63,8.47c-0.48,0.41-0.95,0.73-1.36,1c-0.39,0.29-0.75,0.5-1.04,0.66c-0.28,0.16-0.49,0.28-0.66,0.38
						C179.82,280.96,179.74,281,179.74,281z"/>
				</g>
			</g>
			<g>
				<path class="st12" d="M129.45,222.45c2.8,0.41,5.54,1.15,8.16,2.22l0.03,0.07c-0.25,1.89-0.72,3.97-2.32,5.03
					c-1.19,0.79-2.82,0.8-4.08,0.14c-1.26-0.67-2.1-1.76-2.38-3.14C128.56,225.38,129.05,223.78,129.45,222.45z"/>
				<g>
					<path class="st7" d="M133.65,230.15c0.02,0.05-0.22,0.22-0.74,0.31c-0.51,0.08-1.33,0.03-2.17-0.43
						c-0.83-0.43-1.71-1.31-2.11-2.52c-0.42-1.19-0.39-2.61-0.04-3.96c0.11-0.37,0.14-0.6,0.37-1.06c0.09-0.27,0.65-0.5,0.89-0.4
						c0.24,0.05,0.34,0.09,0.51,0.13c0.6,0.17,1.18,0.33,1.76,0.5c1.01,0.3,1.99,0.6,2.97,0.89c1.68,0.53,2.71,0.93,2.67,1.05
						c-0.03,0.12-1.12-0.04-2.85-0.42c-1-0.23-2-0.46-3.02-0.7c-0.59-0.15-1.17-0.29-1.78-0.44l-0.42-0.1
						c-0.03,0.07-0.03-0.18-0.04-0.15c-0.03-0.01,0.15,0.15,0.1,0.12c-0.06,0.13-0.19,0.54-0.26,0.81
						c-0.32,1.22-0.36,2.45-0.05,3.46c0.29,1.02,0.95,1.77,1.63,2.21C132.47,230.4,133.63,230,133.65,230.15z"/>
				</g>
			</g>
		</g>
		<g>
			<g>
				<path class="st10" d="M74.08,447.41h119.24l-2.81-47.48l-4.22-56.93c-0.79-10.72-4.54-21.02-10.84-29.79l-9.06-12.62
					l-11.21-15.03l-6.9-13.53l-42.81-17.5l-5.29,10.91c0,0-6.23,4.48-10.22,7.89c-7.76,6.63-12.3,15.35-14.88,25.16
					c-0.03,0.1-0.05,0.19-0.08,0.29c-2.5,9.63-0.55,23.55-0.55,23.55l14.24,68.45c-4.94,10.01-8.6,20.6-10.79,31.53
					C77.27,425.37,75.35,437.49,74.08,447.41z"/>
				<g>
					<g>
						<path class="st7" d="M150.16,279.19c-0.06,0.03-0.4-0.57-0.98-1.69c-0.65-1.31-1.44-2.91-2.39-4.82l0.6-0.01
							c-1.29,3.18-2.9,7.13-4.69,11.55l-0.17,0.42l-0.43-0.18c-2.13-0.86-4.41-1.79-6.77-2.74c-6.97-2.84-13.25-5.47-17.78-7.41
							c-2.11-0.93-3.9-1.71-5.35-2.35c-1.25-0.57-1.94-0.92-1.91-0.98c0.03-0.06,0.76,0.17,2.05,0.64c1.48,0.56,3.31,1.25,5.46,2.07
							c4.6,1.78,10.92,4.31,17.89,7.15c2.35,0.97,4.63,1.9,6.76,2.78l-0.6,0.25c1.89-4.38,3.58-8.29,4.94-11.44l0.3-0.7l0.3,0.69
							c0.84,1.96,1.54,3.6,2.12,4.94C149.98,278.52,150.22,279.17,150.16,279.19z"/>
					</g>
				</g>
				<g>
					<path class="st7" d="M147.18,417.59c-0.02,0.06-0.75-0.07-2.06-0.37c-1.31-0.29-3.19-0.79-5.49-1.48
						c-4.6-1.36-10.87-3.58-17.54-6.62c-6.66-3.06-12.42-6.37-16.45-8.96c-2.01-1.3-3.61-2.39-4.69-3.19
						c-1.08-0.79-1.65-1.26-1.62-1.31c0.04-0.05,0.69,0.31,1.83,1c1.32,0.8,2.93,1.77,4.84,2.93c4.1,2.44,9.87,5.63,16.49,8.67
						c6.62,3.03,12.81,5.33,17.34,6.85c2.12,0.69,3.91,1.28,5.38,1.76C146.5,417.27,147.2,417.53,147.18,417.59z"/>
				</g>
			</g>
			<g>
				<path class="st13" d="M79.19,323.27c0,0,21.97,60.3,29.2,71.23c7.23,10.92,10.81,14.02,21.84,12.13
					c11.03-1.89,59.46-17.8,59.46-17.8l-0.71-9.88l-44.83,9.48l-25.87-5.31l-23.62-36.37L79.19,323.27z"/>
				<g>
					<path class="st10" d="M173.42,346.73l-2.44-3.98l-11.84,2.81l-17.9,4c0,0-10.4-60.58-25.41-70.3
						c-15.02-9.72-25.99-8-35.23,9.14c-9.24,17.15-4.26,27.14-4.26,27.14s23.9,66.77,39.5,80.4c15.59,13.63,67-12.09,67-12.09
						l10.42-8.65L173.42,346.73z"/>
					<g>
						<path class="st7" d="M173.42,346.73c0.01-0.01,0.13,0.15,0.37,0.46c0.25,0.34,0.59,0.8,1.02,1.4c0.91,1.28,2.22,3.12,3.92,5.5
							c3.42,4.87,8.41,11.96,14.74,20.96l0.14,0.2l-0.19,0.16c-3.14,2.62-6.64,5.55-10.39,8.68l-0.03,0.02l-0.03,0.02
							c-7.97,3.88-17.15,7.81-27.54,11.2c-5.2,1.66-10.71,3.19-16.56,4.16c-2.93,0.47-5.94,0.81-9.02,0.84
							c-3.07,0.02-6.26-0.24-9.31-1.29c-0.75-0.3-1.53-0.52-2.23-0.95l-1.08-0.58c-0.34-0.23-0.66-0.48-1-0.73
							c-0.7-0.45-1.22-1.08-1.79-1.66l-1.69-1.77c-1.05-1.24-1.98-2.59-2.98-3.89c-0.98-1.32-1.8-2.75-2.71-4.13
							c-3.48-5.64-6.67-11.62-9.65-17.85c-6.03-12.43-11.55-25.71-16.89-39.44c-1.61-4.16-3.18-8.3-4.63-12.34l0.02,0.05
							c-1.53-3.75-1.55-7.68-1.16-11.46c0.47-3.78,1.54-7.43,2.97-10.87c1.41-3.45,3.17-6.7,5.21-9.73
							c2.04-3.02,4.45-5.84,7.48-7.87c3-2.05,6.67-3.11,10.23-2.89c3.57,0.22,6.91,1.39,9.97,2.85c1.51,0.79,3,1.57,4.4,2.47
							c1.46,0.78,2.78,1.96,3.92,3.13c2.21,2.47,3.87,5.26,5.33,8.05c2.87,5.61,4.95,11.31,6.77,16.81
							c1.8,5.51,3.3,10.83,4.59,15.93c2.6,10.18,4.49,19.39,5.89,27.35l-0.33-0.22c7.16-1.57,13.28-2.91,18.29-4.01
							c4.95-1.14,8.8-2.02,11.5-2.64l0.07-0.02l0.04,0.06c0.78,1.32,1.37,2.32,1.79,3.02C173.25,346.39,173.42,346.73,173.42,346.73
							s-0.23-0.31-0.65-0.96c-0.44-0.69-1.06-1.67-1.88-2.97l0.11,0.05c-2.69,0.66-6.52,1.6-11.46,2.81
							c-5,1.14-11.1,2.53-18.25,4.17l-0.28,0.06l-0.05-0.28c-1.46-7.93-3.4-17.12-6.04-27.27c-1.32-5.07-2.84-10.38-4.65-15.86
							c-1.83-5.46-3.93-11.13-6.78-16.67c-1.45-2.75-3.09-5.48-5.23-7.85c-1.13-1.14-2.27-2.18-3.75-2.97
							c-1.38-0.89-2.85-1.65-4.33-2.42c-3-1.42-6.24-2.55-9.63-2.74c-3.39-0.19-6.81,0.81-9.67,2.76c-2.88,1.94-5.22,4.67-7.22,7.63
							c-1.99,2.97-3.73,6.19-5.11,9.57c-1.39,3.38-2.44,6.94-2.89,10.62c-0.39,3.64-0.31,7.55,1.08,10.93l0.02,0.05
							c1.45,4.02,3.02,8.16,4.63,12.31c5.33,13.72,10.83,26.98,16.84,39.38c2.97,6.22,6.13,12.19,9.58,17.78
							c0.9,1.37,1.71,2.8,2.68,4.1c0.98,1.28,1.9,2.61,2.92,3.83l1.64,1.71c0.55,0.56,1.05,1.18,1.7,1.59
							c0.31,0.23,0.61,0.47,0.93,0.68l1.01,0.55c0.65,0.41,1.4,0.62,2.11,0.91c2.91,1.01,6.01,1.28,9.02,1.27
							c3.02-0.03,6-0.35,8.89-0.81c5.79-0.95,11.28-2.45,16.46-4.08c10.35-3.33,19.55-7.21,27.5-11.03l-0.06,0.04
							c3.77-3.11,7.29-6.01,10.45-8.62l-0.05,0.36c-6.24-9.07-11.16-16.2-14.53-21.11c-1.65-2.42-2.92-4.29-3.8-5.58
							c-0.41-0.61-0.72-1.09-0.96-1.44C173.51,346.91,173.41,346.74,173.42,346.73z"/>
					</g>
				</g>
				<g>
					<path class="st7" d="M132.76,380.09c-0.11,0.01-0.34-1.78-0.27-4.69c0.06-2.9,0.5-6.93,1.63-11.23
						c1.14-4.3,2.76-8.02,4.14-10.59c1.38-2.57,2.46-4.02,2.56-3.96c0.13,0.08-0.74,1.64-1.95,4.25c-1.21,2.61-2.69,6.3-3.82,10.53
						c-1.11,4.23-1.65,8.17-1.88,11.03C132.92,378.3,132.91,380.08,132.76,380.09z"/>
				</g>
				<g>
					<path class="st7" d="M182.82,383.86c-0.05,0.04-0.52-0.38-1.32-1.19c-0.8-0.81-1.92-2.01-3.27-3.54
						c-2.69-3.05-6.25-7.42-9.61-12.66c-3.35-5.24-5.71-10.4-6.98-14.26c-0.64-1.93-1.08-3.52-1.29-4.63
						c-0.23-1.11-0.32-1.73-0.26-1.75c0.16-0.04,0.75,2.4,2.19,6.16c1.42,3.77,3.84,8.79,7.16,13.98c3.32,5.18,6.77,9.59,9.32,12.74
						C181.3,381.85,182.92,383.77,182.82,383.86z"/>
				</g>
			</g>
		</g>
		<g>
			<g>
				<g>
					<g>
						<g>
							<g>
								<g>
									<g>
										<g>
											<g>
												<g>
													<g>
														<path class="st11" d="M224.31,347.74l13.84-3.99l17.17-6.49l13.62-7.39c0,0,1.19-1.18-0.48-2.65
															c-1.67-1.47-9.08,2.63-9.08,2.63l-5.87,2.19c0,0-4.95,0.41-4.67-0.06c0.28-0.46,7.95-4.17,7.95-4.17l13.09-7.12
															c0,0,3.69-1.91,2.55-4.36c-0.55-1.17-1.91-1.86-4.42-0.89c-2.51,0.96-6.47,3.45-7.89,4.03
															c-1.42,0.58-9.51,4.21-9.51,4.21l16.75-11.48c0,0,5.46-3.26,3.71-5.56c-1.75-2.3-5.08,0.24-6.99,0.98
															c-1.91,0.74-12.43,7.46-16.53,9.32c-3.51,1.6-2.67,0.27-2.67,0.27s5.56-3.44,9.95-6.15c4.39-2.71,7.72-5.4,4.86-7.18
															c-1.86-1.16-10.27,3.33-10.27,3.33L237,314.16l-5.92,2.62l4.93-4.42c0,0,3.71-2.55,5.4-6.72
															c1.73-4.27-1.77-4.42-1.77-4.42l-20.26,13.86c-3.15,2.75-6.87,16.01-6.87,16.01l-39.09,15.06l16.63,24.04
															L224.31,347.74z"/>
														<g>
															<path class="st12" d="M224.31,347.74c0,0-0.19,0.14-0.58,0.4c-0.4,0.27-0.97,0.65-1.72,1.15
																c-1.53,1.01-3.78,2.5-6.69,4.44c-5.86,3.86-14.41,9.5-25.18,16.6l-0.13,0.08l-0.09-0.12
																c-4.91-7.08-10.49-15.13-16.66-24.02l-0.14-0.2l0.23-0.09c11.69-4.51,24.85-9.6,39.08-15.09l-0.14,0.15
																c0.76-2.66,1.65-5.39,2.68-8.15c0.53-1.38,1.08-2.76,1.74-4.12c0.68-1.35,1.36-2.73,2.52-3.86l0.01-0.01l0.02-0.01
																c6.43-4.4,13.25-9.07,20.26-13.87l0.07-0.05l0.08,0.01c0.63,0.06,1.23,0.27,1.73,0.7c0.49,0.44,0.74,1.11,0.75,1.74
																c0.03,1.29-0.51,2.44-1.06,3.53c-1.16,2.19-2.87,4.09-4.91,5.62l0.03-0.02c-1.54,1.38-3.23,2.9-4.93,4.42l-0.28-0.43
																c1.86-0.82,3.88-1.72,5.92-2.62l-0.02,0.01c3.42-1.91,6.93-3.87,10.5-5.87c1.77-1.02,3.62-1.98,5.53-2.82
																c0.96-0.42,1.92-0.82,2.92-1.16c1-0.32,2.02-0.66,3.15-0.64c0.26,0.02,0.54,0.05,0.81,0.21
																c0.22,0.16,0.43,0.29,0.62,0.48c0.4,0.34,0.65,0.95,0.58,1.5c-0.06,0.55-0.33,1.03-0.63,1.42
																c-0.3,0.41-0.65,0.76-1.01,1.09c-1.45,1.31-3.09,2.34-4.7,3.34c-3.24,2-6.45,3.98-9.63,5.95l0.08-0.08
																c-0.37,0.22,0.53,0.1,1.05-0.12c0.58-0.21,1.16-0.45,1.72-0.73c1.12-0.55,2.23-1.15,3.32-1.77
																c2.18-1.23,4.32-2.51,6.45-3.77c1.07-0.63,2.13-1.26,3.19-1.88c1.07-0.61,2.11-1.25,3.27-1.75
																c1.09-0.46,2.15-1.12,3.32-1.53c0.59-0.21,1.21-0.37,1.87-0.34c0.66,0.02,1.33,0.32,1.77,0.81
																c0.47,0.46,0.72,1.23,0.53,1.88c-0.16,0.66-0.54,1.18-0.93,1.65c-0.8,0.94-1.77,1.68-2.77,2.35
																c-1.98,1.32-3.9,2.66-5.83,3.97c-3.85,2.63-7.62,5.22-11.33,7.76l-0.23-0.42c2.5-1.1,4.96-2.2,7.4-3.27
																c1.22-0.56,2.44-1.02,3.57-1.66c1.15-0.63,2.3-1.25,3.44-1.88c1.15-0.6,2.3-1.2,3.55-1.61
																c0.63-0.19,1.29-0.32,1.97-0.27c0.67,0.05,1.37,0.34,1.82,0.88c0.44,0.53,0.67,1.23,0.59,1.92
																c-0.08,0.69-0.45,1.29-0.88,1.77c-0.43,0.48-0.93,0.89-1.46,1.23c-0.54,0.35-1.09,0.61-1.62,0.91
																c-4.31,2.33-8.45,4.62-12.5,6.76c-2.05,1-4.07,1.99-6.01,3.03c-0.46,0.25-1.01,0.54-1.34,0.8
																c-0.02,0.01-0.03,0.05-0.01-0.05c0.01-0.03-0.02-0.08-0.04-0.09c0-0.01-0.01-0.01-0.01-0.01
																c0.03,0.01,0.08,0.03,0.14,0.04c0.12,0.02,0.25,0.03,0.38,0.04c0.26,0.01,0.53,0.02,0.8,0.01
																c1.07-0.01,2.14-0.08,3.19-0.16l-0.05,0.01c2.1-0.78,4-1.49,5.87-2.18l-0.02,0.01c2.02-1.07,4.01-2.01,6.08-2.62
																c0.52-0.15,1.04-0.27,1.58-0.32c0.53-0.03,1.13-0.05,1.62,0.34c0.4,0.35,0.76,0.79,0.9,1.34
																c0.14,0.55-0.02,1.15-0.41,1.56l-0.01,0.02l-0.02,0.01c-4.97,2.68-9.52,5.14-13.64,7.36l-0.01,0l-0.01,0
																c-7.02,2.63-12.67,4.75-17.18,6.44l0,0l0,0c-4.54,1.29-8,2.27-10.34,2.93c-1.16,0.32-2.03,0.57-2.63,0.73
																C224.61,347.67,224.31,347.74,224.31,347.74s0.29-0.1,0.87-0.28c0.6-0.18,1.47-0.44,2.62-0.78
																c2.33-0.68,5.78-1.69,10.32-3.02l-0.01,0c4.51-1.72,10.14-3.86,17.15-6.53l-0.02,0.01
																c4.11-2.24,8.65-4.71,13.61-7.41l-0.04,0.03c0.29-0.32,0.43-0.81,0.32-1.25c-0.12-0.44-0.43-0.84-0.8-1.16
																c-0.33-0.27-0.87-0.29-1.36-0.25c-0.5,0.05-1.01,0.17-1.51,0.31c-2.01,0.6-4.01,1.55-5.99,2.61l-0.01,0.01l-0.01,0
																c-1.86,0.7-3.77,1.41-5.86,2.19l-0.03,0.01l-0.03,0c-1.06,0.08-2.13,0.15-3.22,0.17c-0.27,0-0.55,0-0.83-0.01
																c-0.14-0.01-0.28-0.02-0.43-0.04c-0.07-0.01-0.15-0.03-0.25-0.07c-0.03-0.02-0.06-0.04-0.09-0.07
																c-0.03-0.03-0.08-0.12-0.08-0.18c0.02-0.18,0.07-0.17,0.1-0.21c0.52-0.43,0.97-0.61,1.46-0.9
																c1.95-1.05,3.96-2.04,6.02-3.05c4.03-2.14,8.18-4.44,12.47-6.77c0.53-0.3,1.09-0.57,1.59-0.89
																c0.5-0.33,0.97-0.71,1.37-1.16c0.39-0.44,0.71-0.96,0.77-1.53c0.06-0.55-0.12-1.14-0.49-1.58
																c-0.37-0.44-0.92-0.68-1.51-0.72c-0.59-0.04-1.2,0.07-1.79,0.25c-1.18,0.39-2.33,0.99-3.47,1.58
																c-1.14,0.62-2.28,1.25-3.43,1.88c-1.16,0.65-2.42,1.14-3.61,1.69c-2.43,1.08-4.89,2.17-7.38,3.28l-0.23-0.42
																c3.71-2.54,7.49-5.13,11.33-7.77c1.93-1.31,3.86-2.66,5.82-3.98c0.96-0.65,1.91-1.38,2.66-2.26
																c0.37-0.44,0.71-0.92,0.83-1.44c0.14-0.52-0.03-1.03-0.41-1.42c-0.74-0.86-2.02-0.75-3.1-0.34
																c-1.12,0.39-2.15,1.03-3.3,1.53c-2.16,1.01-4.26,2.37-6.39,3.6c-2.13,1.26-4.27,2.54-6.46,3.78
																c-1.09,0.62-2.2,1.23-3.35,1.78c-0.57,0.28-1.16,0.53-1.77,0.75c-0.31,0.11-0.62,0.2-0.97,0.25
																c-0.18,0-0.38,0.07-0.66-0.13c-0.15-0.11-0.18-0.33-0.15-0.45c0.02-0.13,0.06-0.22,0.12-0.32l0.03-0.05l0.05-0.03
																c3.18-1.97,6.39-3.95,9.63-5.95c1.61-1,3.23-2.02,4.62-3.28c0.34-0.32,0.68-0.65,0.94-1.02
																c0.28-0.36,0.49-0.77,0.53-1.17c0.04-0.4-0.1-0.79-0.43-1.08c-0.14-0.15-0.35-0.28-0.52-0.4
																c-0.15-0.09-0.37-0.12-0.58-0.14c-0.97-0.02-1.99,0.3-2.96,0.62c-0.98,0.33-1.94,0.73-2.88,1.14
																c-1.9,0.83-3.71,1.77-5.49,2.8c-3.57,2-7.08,3.96-10.5,5.86l-0.01,0.01l-0.01,0c-2.04,0.9-4.06,1.8-5.92,2.62
																l-1.49,0.66l1.21-1.08c1.7-1.52,3.39-3.03,4.93-4.42l0.01-0.01l0.02-0.01c1.95-1.46,3.64-3.34,4.75-5.44
																c0.53-1.05,1.04-2.17,1-3.27c-0.01-0.54-0.21-1.05-0.59-1.39c-0.37-0.34-0.92-0.53-1.41-0.58l0.15-0.04
																c-7.01,4.79-13.84,9.46-20.27,13.85l0.02-0.02c-1.04,1.01-1.74,2.39-2.4,3.71c-0.65,1.34-1.2,2.72-1.72,4.08
																c-1.03,2.74-1.92,5.46-2.68,8.1l-0.03,0.11l-0.11,0.04c-14.23,5.47-27.41,10.53-39.1,15.02l0.09-0.29
																c6.14,8.91,11.71,16.98,16.59,24.07l-0.21-0.04c10.82-7.05,19.39-12.65,25.28-16.49c2.93-1.9,5.19-3.37,6.73-4.37
																c0.76-0.49,1.34-0.86,1.74-1.11C224.1,347.86,224.31,347.74,224.31,347.74z"/>
														</g>
													</g>
												</g>
											</g>
										</g>
									</g>
								</g>
							</g>
						</g>
					</g>
				</g>
			</g>
		</g>
	</g>
</g>
</svg>
