<?xml version="1.0" standalone="no"?>
<!DOCTYPE svg PUBLIC "-//W3C//DTD SVG 20010904//EN"
 "http://www.w3.org/TR/2001/REC-SVG-20010904/DTD/svg10.dtd">
<svg version="1.0" xmlns="http://www.w3.org/2000/svg"
 width="1143.000000pt" height="1280.000000pt" viewBox="0 0 1143.000000 1280.000000"
 preserveAspectRatio="xMidYMid meet">
<metadata>
Created by potrace 1.15, written by Peter Selinger 2001-2017
</metadata>
<g transform="translate(0.000000,1280.000000) scale(0.100000,-0.100000)"
fill="#795548" stroke="none">
<path d="M6068 12753 c-16 -37 -23 -75 -26 -158 -5 -128 13 -234 54 -321 14
-30 24 -56 23 -58 -2 -1 -62 -25 -132 -53 -276 -110 -429 -233 -456 -366 -6
-28 -33 -378 -61 -777 -27 -399 -55 -750 -61 -781 -47 -234 165 -348 593 -319
74 5 158 12 188 16 53 7 53 7 47 -17 -4 -13 -7 -31 -7 -39 0 -11 -18 -20 -59
-28 -114 -24 -141 -88 -76 -178 44 -62 41 -50 54 -179 16 -153 44 -265 96
-371 55 -113 126 -184 212 -211 42 -13 61 -25 72 -47 9 -15 55 -94 102 -175
l87 -146 -47 -5 c-86 -10 -112 -42 -82 -102 10 -21 32 -41 59 -54 37 -18 41
-22 28 -33 -22 -19 -29 -71 -16 -119 24 -90 132 -157 335 -208 28 -7 27 -8
-20 -15 -72 -10 -104 -25 -117 -55 -10 -22 -9 -32 7 -62 42 -78 212 -109 648
-119 l259 -6 23 -36 c12 -20 37 -49 55 -66 28 -27 38 -30 95 -30 49 0 70 5 93
22 l29 21 94 -57 c52 -31 184 -116 294 -188 239 -155 382 -244 489 -303 l79
-43 -6 -131 c-10 -201 -51 -505 -127 -954 -22 -128 -40 -238 -40 -244 0 -8 -3
-8 -9 -2 -21 20 -380 687 -375 695 2 5 -8 11 -23 14 -53 11 -33 6 -643 185
-135 40 -319 94 -410 120 -91 27 -257 75 -370 108 -113 34 -277 81 -365 107
-88 25 -203 59 -255 75 -268 81 -796 233 -805 232 -5 0 -583 -97 -1282 -215
l-1273 -214 0 106 c0 58 3 123 6 144 l7 37 116 0 c114 0 316 19 417 39 186 37
341 126 393 228 13 27 30 42 55 51 20 7 42 24 49 37 6 13 33 45 58 72 47 50
47 50 123 56 154 11 272 99 407 299 209 314 265 603 135 706 l-25 19 19 74
c31 117 53 340 45 444 -10 135 -32 248 -70 362 -44 132 -88 218 -195 383 -151
234 -190 328 -190 465 0 139 37 221 168 372 118 136 142 184 121 240 -57 152
-455 293 -834 294 -264 1 -398 -62 -436 -205 -17 -63 3 -128 73 -242 94 -153
112 -197 112 -279 0 -44 -6 -84 -16 -107 l-17 -38 -78 78 c-81 80 -269 235
-409 336 l-80 58 86 87 c74 74 94 101 138 191 55 111 78 187 89 284 l6 59 76
-6 c81 -5 223 -47 312 -92 57 -29 57 -30 -20 75 -72 99 -200 231 -278 287 -35
25 -63 45 -63 46 0 1 7 24 15 51 22 71 19 206 -5 294 -72 259 -273 461 -516
520 -67 16 -94 18 -184 10 -207 -17 -376 -38 -435 -53 -161 -42 -275 -134
-343 -276 -66 -134 -85 -219 -88 -389 -1 -88 -9 -174 -19 -220 -39 -178 -15
-403 61 -569 39 -85 38 -81 20 -81 -50 0 -362 -110 -576 -203 -266 -115 -376
-182 -469 -284 -59 -64 -62 -65 -99 -59 l-38 6 -41 -98 c-92 -217 -117 -366
-117 -687 0 -244 5 -308 49 -575 13 -80 32 -195 41 -256 l17 -111 -57 -494
c-31 -272 -63 -561 -70 -644 -15 -153 -18 -195 -61 -885 -14 -217 -30 -451
-35 -520 -14 -179 -47 -656 -64 -930 -14 -224 -22 -438 -46 -1200 -19 -600
-44 -1035 -71 -1240 -17 -127 -22 -147 -41 -160 -122 -83 -155 -158 -165 -381
l-6 -137 39 -6 c67 -12 70 -18 35 -70 -47 -68 -59 -113 -59 -215 1 -84 3 -92
27 -115 47 -45 207 -93 416 -125 212 -33 599 -44 695 -21 70 16 124 44 144 72
20 28 21 86 2 107 -12 13 -12 24 -3 58 7 29 8 54 1 80 -9 33 -6 46 22 106 55
116 54 213 -2 338 l-27 60 36 197 c69 372 128 760 183 1202 14 118 27 216 28
217 1 2 33 -9 70 -24 l68 -27 -3 -1253 c-3 -1233 -3 -1254 16 -1272 11 -10
409 -250 885 -533 476 -283 1056 -629 1290 -768 234 -139 428 -255 432 -257 5
-2 131 24 280 58 150 34 309 70 353 79 44 10 141 32 215 49 74 17 254 58 400
91 146 33 326 74 400 91 74 17 171 39 215 49 108 24 587 132 755 171 74 17
171 39 215 49 87 19 350 79 595 135 85 20 184 42 220 50 182 40 381 87 427
100 72 21 85 43 91 160 4 76 8 95 21 99 34 10 193 46 203 46 6 0 8 -23 6 -56
l-3 -57 210 6 c226 7 324 21 411 61 58 27 94 72 94 118 0 18 9 33 29 47 41 29
74 86 68 117 -3 18 2 29 22 44 55 39 104 168 88 233 -4 13 -18 36 -31 50 -24
26 -25 31 -16 79 36 189 54 371 90 913 26 383 41 497 130 975 17 91 57 318 90
505 82 466 151 841 174 935 l12 55 7 -70 c37 -380 41 -455 42 -905 1 -407 3
-475 19 -545 21 -95 39 -152 65 -203 74 -147 109 -359 126 -767 8 -187 -10
-609 -29 -690 -31 -130 -101 -305 -122 -305 -30 0 -144 -174 -144 -221 0 -33
41 -69 97 -85 l55 -16 -39 -42 c-21 -22 -97 -102 -168 -176 -150 -156 -187
-216 -193 -316 -2 -33 1 -70 6 -81 8 -15 8 -25 -2 -39 -62 -88 23 -167 246
-228 253 -70 512 -73 813 -9 147 31 169 48 185 147 5 31 18 69 29 85 35 49
124 124 191 161 34 19 74 45 86 57 27 25 32 71 12 106 -7 12 -15 56 -19 97 -6
74 -6 76 25 111 38 45 66 119 60 156 -6 31 -40 73 -61 73 -15 0 -15 -12 -3
220 36 687 58 1592 70 2885 17 1726 17 2385 2 2485 -19 128 -49 241 -102 385
-78 212 -81 229 -90 675 -14 679 -59 1096 -146 1360 -65 196 -158 338 -351
536 -204 208 -399 362 -546 429 -51 24 -57 30 -57 57 0 43 -27 94 -77 145 -47
49 -52 72 -24 111 79 113 132 291 134 457 1 61 5 112 9 115 12 9 28 179 28
301 0 130 -21 274 -54 365 -80 219 -267 402 -547 532 l-104 49 -87 -8 c-395
-37 -726 -256 -792 -525 -8 -33 -18 -100 -21 -150 l-7 -91 -61 -11 c-80 -15
-195 -71 -250 -121 -41 -38 -108 -144 -97 -154 3 -3 34 -1 70 5 87 12 258 -5
371 -38 14 -4 15 -10 2 -57 -20 -79 -29 -202 -21 -304 21 -271 191 -524 418
-621 l35 -15 -90 -18 c-174 -34 -265 -81 -368 -188 -94 -99 -160 -200 -292
-451 -180 -340 -238 -424 -382 -555 -48 -44 -107 -98 -130 -121 l-42 -40 -6
65 c-39 429 -102 700 -215 924 -28 54 -50 100 -50 102 0 3 6 5 13 5 23 0 279
130 365 186 104 68 200 162 230 226 30 65 30 160 -1 204 -87 124 -138 203
-242 374 -65 107 -150 245 -188 305 -276 431 -488 620 -788 702 -71 20 -329
25 -426 10 l-53 -9 0 29 c0 48 -37 179 -70 248 -42 89 -114 181 -164 210 -24
14 -46 25 -50 25 -4 0 -17 -21 -28 -47z m2610 -4190 c5 -21 53 -174 107 -341
53 -167 95 -305 92 -308 -2 -2 -60 19 -128 47 -68 28 -201 81 -295 118 l-172
67 187 226 c102 125 189 227 192 227 4 1 11 -16 17 -36z m-104 -4615 c-2 -18
-11 -114 -19 -213 -33 -387 -83 -787 -100 -803 -4 -4 -5 8 -1 27 3 18 6 251 6
516 l0 483 48 10 c72 15 71 15 66 -20z"/>
</g>
</svg>
