<svg width="242" height="172" viewBox="0 0 242 172" fill="none" xmlns="http://www.w3.org/2000/svg">
<path opacity="0.1" d="M22.0078 164.47C30.4792 164.47 37.3466 162.083 37.3466 159.138C37.3466 156.193 30.4792 153.806 22.0078 153.806C13.5364 153.806 6.66895 156.193 6.66895 159.138C6.66895 162.083 13.5364 164.47 22.0078 164.47Z" fill="black"/>
<path opacity="0.1" d="M212.84 156.589C221.311 156.589 228.179 154.201 228.179 151.256C228.179 148.311 221.311 145.924 212.84 145.924C204.368 145.924 197.501 148.311 197.501 151.256C197.501 154.201 204.368 156.589 212.84 156.589Z" fill="black"/>
<path d="M212.215 152.01C212.215 152.01 216.309 138.401 211.444 128.383C209.379 124.191 208.755 119.46 209.663 114.89C210.113 112.727 210.765 110.608 211.619 108.562" stroke="#535461" stroke-width="0.7426" stroke-miterlimit="10"/>
<path d="M143.149 5.50554C124.937 12.3819 105.192 12.7051 86.8605 6.23269C60.8736 -2.94182 26.928 -5.2938 14.3522 36.7546C-7.10932 108.589 36.8051 134.236 36.8051 134.236C36.8051 134.236 67.4644 140.96 84.4371 153.097C108.552 170.342 138.082 176.114 165.895 168.025C183.685 162.855 198.932 154.362 203.292 140.484C215.483 101.649 207.744 78.3092 229.812 68.0664C251.879 57.8236 239.597 19.8957 223.909 19.0339C208.222 18.1721 171.256 26.9696 159.819 9.47338C155.734 3.25231 149.501 3.10868 143.149 5.50554Z" fill="#CECECE"/>
<path d="M208.599 102.223C208.599 103.893 211.683 108.732 211.683 108.732C211.683 108.732 214.767 103.893 214.767 102.223C214.767 100.554 213.381 99.1982 211.674 99.1982C209.976 99.2072 208.589 100.563 208.599 102.223Z" fill="#079D49"/>
<path d="M203.484 111.471C204.411 112.871 209.69 115.295 209.69 115.295C209.69 115.295 209.598 109.594 208.671 108.194C207.744 106.794 205.834 106.399 204.402 107.296C202.97 108.203 202.566 110.07 203.484 111.471Z" fill="#079D49"/>
<path d="M203.714 127.261C205.238 128.015 211.049 127.494 211.049 127.494C211.049 127.494 208.019 122.62 206.496 121.865C204.972 121.111 203.118 121.713 202.346 123.203C201.575 124.693 202.19 126.507 203.714 127.261Z" fill="#079D49"/>
<path d="M206.635 139.174C208.003 140.171 213.823 140.611 213.823 140.611C213.823 140.611 211.684 135.305 210.316 134.318C208.948 133.321 207.011 133.608 205.992 134.946C204.974 136.293 205.258 138.178 206.635 139.174Z" fill="#079D49"/>
<path d="M216.18 115.617C214.959 116.784 209.259 117.987 209.259 117.987C209.259 117.987 210.654 112.448 211.884 111.29C213.105 110.132 215.06 110.159 216.254 111.353C217.428 112.538 217.401 114.45 216.18 115.617Z" fill="#079D49"/>
<path d="M219.412 129.586C217.888 130.34 212.077 129.819 212.077 129.819C212.077 129.819 215.106 124.944 216.63 124.208C218.154 123.454 220.008 124.056 220.779 125.546C221.55 127.036 220.935 128.849 219.412 129.603V129.586Z" fill="#079D49"/>
<path d="M220.651 143.581C219.284 144.577 213.464 145.017 213.464 145.017C213.464 145.017 215.603 139.712 216.97 138.724C218.338 137.728 220.275 138.015 221.294 139.353C222.313 140.69 222.028 142.594 220.651 143.581Z" fill="#079D49"/>
<path d="M22.0081 159.174C22.0081 159.174 30.7653 130.134 20.3742 108.742C16.0139 99.7646 14.5819 89.6924 16.583 79.9523C17.5469 75.3291 18.9421 70.8137 20.7505 66.4419" stroke="#535461" stroke-width="0.7426" stroke-miterlimit="10"/>
<path d="M14.2881 52.9217C14.2881 56.4856 20.879 66.8092 20.879 66.8092C20.879 66.8092 27.4698 56.4766 27.4698 52.9217C27.4698 49.3579 24.5232 46.4763 20.879 46.4673C17.2347 46.4673 14.2881 49.3489 14.2881 52.9217C14.279 52.9128 14.279 52.9217 14.2881 52.9217Z" fill="#079D49"/>
<path d="M3.39213 72.6449C5.37489 75.6433 16.6473 80.7961 16.6473 80.7961C16.6473 80.7961 16.4453 68.6232 14.4625 65.6339C12.4155 62.6894 8.31232 61.9264 5.30147 63.9372C2.39159 65.8763 1.54707 69.7005 3.39213 72.6449Z" fill="#079D49"/>
<path d="M3.86016 106.345C7.10967 107.952 19.5111 106.838 19.5111 106.838C19.5111 106.838 13.0396 96.434 9.79925 94.8361C6.54973 93.2292 2.58422 94.513 0.941103 97.6908C-0.702015 100.869 0.610637 104.747 3.86016 106.354V106.345Z" fill="#079D49"/>
<path d="M10.0836 131.768C13.0119 133.886 25.4225 134.838 25.4225 134.838C25.4225 134.838 20.8511 123.509 17.9228 121.399C14.9946 119.281 10.8639 119.891 8.7067 122.746C6.54036 125.618 7.15538 129.649 10.0836 131.768Z" fill="#079D49"/>
<path d="M30.4811 81.4691C27.8741 83.9467 15.7021 86.5231 15.7021 86.5231C15.7021 86.5231 18.6855 74.7004 21.2924 72.2227C23.9086 69.7361 28.0852 69.79 30.6187 72.3484C33.1614 74.9069 33.1063 78.9914 30.4902 81.4691H30.4811Z" fill="#079D49"/>
<path d="M37.3843 111.309C34.1348 112.915 21.7334 111.802 21.7334 111.802C21.7334 111.802 28.2049 101.398 31.4453 99.8C34.6948 98.1931 38.6602 99.4768 40.3034 102.655C41.9465 105.833 40.6338 109.711 37.3843 111.318V111.309Z" fill="#079D49"/>
<path d="M40.0263 141.193C37.0981 143.312 24.6875 144.264 24.6875 144.264C24.6875 144.264 29.2589 132.935 32.1871 130.825C35.1154 128.706 39.2461 129.317 41.4033 132.172C43.5696 135.035 42.9546 139.075 40.0263 141.193Z" fill="#079D49"/>
<path d="M101.658 95.6528H97.0225V160.602H101.658V95.6528Z" fill="#40414D"/>
<path d="M202.814 95.6528H198.179V160.602H202.814V95.6528Z" fill="#40414D"/>
<path d="M95.2496 90.3745H202.273C206.412 90.3745 209.772 93.6601 209.772 97.7087V98.6783H87.75V97.7087C87.75 93.6511 91.1097 90.3745 95.2496 90.3745Z" fill="#DFE6F5"/>
<path opacity="0.1" d="M94.9117 90.3745H201.935C206.075 90.3745 209.434 93.6601 209.434 97.7087V98.6783H87.4121V97.7087C87.4121 93.6511 90.7718 90.3745 94.9117 90.3745Z" fill="black"/>
<path d="M95.2496 88.8569H202.273C206.412 88.8569 209.772 92.1425 209.772 96.1912V97.1607H87.75V96.1912C87.75 92.1425 91.1097 88.8569 95.2496 88.8569Z" fill="#E6EFFF"/>
<path d="M82.2344 89.4042C82.2344 89.4042 103.925 83.5063 105.431 83.2191C106.936 82.9228 116.281 79.9784 118.089 76.4414C119.898 72.9045 111.159 71.136 103.329 77.0339C95.4895 82.9228 84.3457 82.6356 84.3457 82.6356L82.2344 89.4042Z" fill="#F8BDC5"/>
<path d="M200.503 145.125H100.107V149.658H200.503V145.125Z" fill="#40414D"/>
<path d="M77.7461 140.861C77.7461 140.861 66.7308 143.222 67.6304 150.287C68.53 157.352 81.7942 162.056 85.4109 162.954C89.0276 163.851 93.241 159.139 88.7247 157.954C84.2084 156.769 85.108 147.055 85.108 147.055L77.7461 140.861Z" fill="#8C6239"/>
<path opacity="0.1" d="M76.6711 140.861C76.6711 140.861 67.6202 144.003 68.529 151.068C69.4286 158.133 81.8024 162.065 85.41 162.963C89.0175 163.86 93.24 159.147 88.7237 157.963C84.2074 156.778 85.107 147.064 85.107 147.064L76.6711 140.861Z" fill="black"/>
<path d="M60.6155 126.866H56.5674V162.926H60.6155V126.866Z" fill="#40414D"/>
<path d="M92.6253 126.866H88.5771V162.926H92.6253V126.866Z" fill="#40414D"/>
<path d="M75.3954 141.759C75.3954 141.759 66.5097 144.066 66.3537 151.185C66.2986 153.95 80.5175 162.954 84.1342 163.851C87.7509 164.749 91.3309 161.409 87.448 158.851C78.342 152.863 83.8313 147.953 83.8313 147.953L75.3954 141.759Z" fill="#8C6239"/>
<path opacity="0.1" d="M72.6318 142.674C72.742 146.22 79.4705 148.797 82.6466 149.65L84.051 147.387L74.486 142.064C73.8618 142.226 73.2377 142.432 72.6318 142.674Z" fill="black"/>
<path d="M77.2304 116.551C66.9402 116.551 59 118.508 59 120.923C59 123.338 66.9402 125.286 77.2304 125.286C87.5205 125.286 95.8646 123.329 95.8646 120.923C95.8646 118.517 87.5205 116.551 77.2304 116.551Z" fill="#F6C6CD"/>
<path d="M53.3281 122.054V120.923H95.8656V124.559C95.8656 126.489 94.2592 128.06 92.2856 128.06H59.46C56.0728 128.06 53.3281 125.376 53.3281 122.054Z" fill="#40414D"/>
<path d="M53.9708 123.94L44.2957 82.0171C44.0019 80.7603 44.8097 79.5125 46.0948 79.2252L46.9761 79.0277C48.2612 78.7405 49.5371 79.5304 49.8308 80.7872L60.4606 126.821L59.1296 127.118C56.798 127.638 54.494 126.211 53.9708 123.94Z" fill="#40414D"/>
<path opacity="0.1" d="M193.976 147.926C194.462 149.021 194.627 150.215 194.462 151.4C193.563 158.474 180.298 163.187 176.682 164.067C174.772 164.534 172.698 163.448 171.835 162.137C172.395 163.681 174.8 165.189 176.985 164.659C180.601 163.78 193.856 159.058 194.765 151.993C194.967 150.583 194.683 149.156 193.976 147.926Z" fill="white"/>
<path d="M128.48 78.6402C128.508 78.4696 128.113 78.2811 127.59 78.2003L108.634 75.5162C107.845 75.4085 107.202 75.5252 107.165 75.7765C107.147 76.0279 107.735 76.3151 108.506 76.4139L127.498 78.8197C128.021 78.8826 128.462 78.8018 128.48 78.6402Z" fill="#079D49"/>
<path d="M128.536 79.5375C128.517 79.7081 128.086 79.8069 127.562 79.762L108.478 78.0922C107.707 78.0294 107.092 77.7601 107.111 77.5087C107.138 77.2574 107.79 77.1227 108.57 77.1945L127.627 79.1246C128.15 79.1874 128.554 79.358 128.536 79.5375Z" fill="#079D49"/>
<path d="M135.87 86.2078C140.99 86.2078 145.141 82.1485 145.141 77.141C145.141 72.1336 140.99 68.0742 135.87 68.0742C130.75 68.0742 126.599 72.1336 126.599 77.141C126.599 82.1485 130.75 86.2078 135.87 86.2078Z" fill="#FFD77C" stroke="#FFAB50" stroke-width="0.3713" stroke-miterlimit="10"/>
<path d="M135.871 84.3227C139.927 84.3227 143.214 81.1074 143.214 77.1411C143.214 73.1748 139.927 69.9595 135.871 69.9595C131.815 69.9595 128.527 73.1748 128.527 77.1411C128.527 81.1074 131.815 84.3227 135.871 84.3227Z" fill="#FFD77C" stroke="#FFAB50" stroke-width="0.3713" stroke-miterlimit="10"/>
<path d="M135.87 82.617C138.962 82.617 141.469 80.1653 141.469 77.141C141.469 74.1167 138.962 71.665 135.87 71.665C132.778 71.665 130.271 74.1167 130.271 77.141C130.271 80.1653 132.778 82.617 135.87 82.617Z" fill="#FFD77C" stroke="#FFAB50" stroke-width="0.3713" stroke-miterlimit="10"/>
<path d="M135.868 80.2197C137.607 80.2197 139.017 78.8412 139.017 77.1406C139.017 75.4401 137.607 74.0615 135.868 74.0615C134.129 74.0615 132.72 75.4401 132.72 77.1406C132.72 78.8412 134.129 80.2197 135.868 80.2197Z" fill="#FFD77C" stroke="#FFAB50" stroke-width="0.3713" stroke-miterlimit="10"/>
<path d="M141.277 91.1184C146.397 91.1184 150.548 87.0591 150.548 82.0517C150.548 77.0442 146.397 72.9849 141.277 72.9849C136.157 72.9849 132.006 77.0442 132.006 82.0517C132.006 87.0591 136.157 91.1184 141.277 91.1184Z" fill="#FFD77C" stroke="#FFAB50" stroke-width="0.3713" stroke-miterlimit="10"/>
<path d="M141.275 89.2333C145.331 89.2333 148.619 86.018 148.619 82.0517C148.619 78.0854 145.331 74.8701 141.275 74.8701C137.219 74.8701 133.932 78.0854 133.932 82.0517C133.932 86.018 137.219 89.2333 141.275 89.2333Z" fill="#FFD77C" stroke="#FFAB50" stroke-width="0.3713" stroke-miterlimit="10"/>
<path d="M141.275 87.5277C144.368 87.5277 146.875 85.076 146.875 82.0517C146.875 79.0274 144.368 76.5757 141.275 76.5757C138.183 76.5757 135.676 79.0274 135.676 82.0517C135.676 85.076 138.183 87.5277 141.275 87.5277Z" fill="#FFD77C" stroke="#FFAB50" stroke-width="0.3713" stroke-miterlimit="10"/>
<path d="M141.276 85.1304C143.015 85.1304 144.425 83.7518 144.425 82.0513C144.425 80.3507 143.015 78.9722 141.276 78.9722C139.538 78.9722 138.128 80.3507 138.128 82.0513C138.128 83.7518 139.538 85.1304 141.276 85.1304Z" fill="#FFD77C" stroke="#FFAB50" stroke-width="0.3713" stroke-miterlimit="10"/>
<path d="M130.463 91.1184C135.583 91.1184 139.734 87.0591 139.734 82.0517C139.734 77.0442 135.583 72.9849 130.463 72.9849C125.342 72.9849 121.191 77.0442 121.191 82.0517C121.191 87.0591 125.342 91.1184 130.463 91.1184Z" fill="#FFD77C" stroke="#FFAB50" stroke-width="0.3713" stroke-miterlimit="10"/>
<path d="M130.463 89.2333C134.518 89.2333 137.806 86.018 137.806 82.0517C137.806 78.0854 134.518 74.8701 130.463 74.8701C126.407 74.8701 123.119 78.0854 123.119 82.0517C123.119 86.018 126.407 89.2333 130.463 89.2333Z" fill="#FFD77C" stroke="#FFAB50" stroke-width="0.3713" stroke-miterlimit="10"/>
<path d="M130.464 87.5277C133.556 87.5277 136.063 85.076 136.063 82.0517C136.063 79.0274 133.556 76.5757 130.464 76.5757C127.371 76.5757 124.864 79.0274 124.864 82.0517C124.864 85.076 127.371 87.5277 130.464 87.5277Z" fill="#FFD77C" stroke="#FFAB50" stroke-width="0.3713" stroke-miterlimit="10"/>
<path d="M130.463 85.1304C132.202 85.1304 133.612 83.7518 133.612 82.0513C133.612 80.3507 132.202 78.9722 130.463 78.9722C128.724 78.9722 127.314 80.3507 127.314 82.0513C127.314 83.7518 128.724 85.1304 130.463 85.1304Z" fill="#FFD77C" stroke="#FFAB50" stroke-width="0.3713" stroke-miterlimit="10"/>
<path d="M155.183 79.4028V81.1803C155.183 88.5414 149.079 94.5112 141.551 94.5112H130.206C122.679 94.5112 116.574 88.5414 116.574 81.1803V79.4028H155.183Z" fill="#079D49"/>
<path opacity="0.1" d="M116.565 79.4028C116.565 79.4118 116.565 79.4118 116.565 79.4028C116.565 87.7515 123.487 94.5112 132.014 94.5112H139.734C140.882 94.5112 142.02 94.3765 143.14 94.1341H135.475C127.094 94.1341 120.246 87.5989 120.035 79.4118H116.565V79.4028Z" fill="black"/>
<path opacity="0.05" d="M82.2344 89.4042C82.2344 89.4042 103.925 83.5063 105.431 83.2191C106.936 82.9228 116.281 79.9784 118.089 76.4414C119.898 72.9045 111.159 71.136 103.329 77.0339C95.4895 82.9228 84.3457 82.6356 84.3457 82.6356L82.2344 89.4042Z" fill="black"/>
<path d="M91.1352 47.3776C91.2224 42.0782 86.9002 37.7129 81.4813 37.6276C76.0624 37.5423 71.5988 41.7692 71.5115 47.0686C71.4242 52.368 75.7464 56.7332 81.1653 56.8186C86.5843 56.9039 91.0479 52.677 91.1352 47.3776Z" fill="#FFB9B9"/>
<path d="M83.3917 54.3857C81.8679 56.7287 82.74 61.4237 82.74 61.4237L83.4284 69.1349L66.6025 59.5026C67.6949 58.4613 68.9433 57.5995 70.311 56.9441C72.2754 56.0913 73.3678 48.8379 73.3678 48.8379C73.3678 48.8379 84.9247 52.0427 83.3917 54.3857Z" fill="#FFB9B9"/>
<path d="M82.96 46.7552C82.5194 47.4464 81.2159 43.7479 80.1236 43.2811C79.0312 42.8143 77.0669 49.3047 77.0669 49.9959C77.0669 50.6871 73.5787 52.0786 73.138 53.2366C72.6974 54.3946 71.1736 54.628 71.1736 53.47C71.1736 52.312 67.2449 44.6725 66.1617 41.1984C65.0693 37.7243 71.8346 33.559 73.3583 32.4009C74.8821 31.2429 82.2991 30.5517 82.9509 31.4763C83.6026 32.4009 87.7517 32.1675 87.7517 32.1675C87.7517 32.1675 88.844 32.6343 89.0643 33.3256C89.2846 34.0168 89.2847 34.2502 89.505 33.7924C89.7253 33.3346 89.9456 34.0258 89.9456 34.0258C89.9456 34.0258 90.1659 35.875 90.3862 35.6506C90.6065 35.4262 91.0379 35.6506 91.0379 35.6506C91.0379 35.6506 91.2583 36.8087 91.6897 36.8087C92.1211 36.8087 91.2491 38.2001 90.8176 39.816C90.3862 41.4318 84.2727 41.8986 84.2727 41.8986C84.2727 41.8986 83.3915 46.064 82.96 46.7552Z" fill="#3F3D56"/>
<path d="M82.6653 111.166L101.437 122.531L77.0107 140.88L84.1616 146.706L107.101 128.06C114.38 125.744 115.601 121.839 115.289 118.868C115.05 116.713 113.719 114.819 111.737 113.85L101.006 108.517C98.4631 107.288 95.7735 106.363 93.0013 105.779C88.3382 104.747 82.6561 100.384 82.6561 100.384V111.166H82.6653Z" fill="#4C495E"/>
<path opacity="0.1" d="M82.6653 111.166L101.437 122.531L77.0107 140.88L84.1616 146.706L107.101 128.06C114.38 125.744 115.601 121.839 115.289 118.868C115.05 116.713 113.719 114.819 111.737 113.85L101.006 108.517C98.4631 107.288 95.7735 106.363 93.0013 105.779C88.3382 104.747 82.6561 100.384 82.6561 100.384V111.166H82.6653Z" fill="black"/>
<path d="M59.5423 104.881C58.9456 106.551 58.9181 108.257 59.2026 109.863C60.2583 115.788 65.5456 120.034 71.6683 120.573C73.752 120.753 76.1937 120.762 78.9292 120.42C88.1637 119.253 93.6989 126.893 93.6989 126.893L73.1462 141.463C72.2558 146.409 84.7673 149.039 84.7673 149.039C84.7673 149.039 101.153 136.22 107.11 132.135C113.068 128.051 111.36 123.185 110.093 121.938C108.45 120.34 88.3473 108.248 88.3473 108.248L84.7673 97.7534C84.749 97.7624 61.9289 98.1933 59.5423 104.881Z" fill="#4C495E"/>
<path opacity="0.1" d="M70.3107 57.9769C70.3107 57.9769 63.1049 57.4562 59.6809 67.3848C56.257 77.3134 59.3872 107.826 59.3872 107.826C59.3872 107.826 63.0039 109.272 64.702 109.146C66.4002 109.02 73.0278 106.623 75.6256 106.076C78.2234 105.528 83.8595 106.3 86.0626 105.609C88.2657 104.918 86.3196 77.8879 85.98 70.1677C85.6403 62.4474 82.7396 62.4564 82.7396 62.4564C82.7396 62.4564 81.9961 71.0025 70.3107 57.9769Z" fill="black"/>
<path d="M70.3107 56.9437C70.3107 56.9437 63.1049 56.423 59.6809 66.3516C56.257 76.2802 59.3872 106.793 59.3872 106.793C59.3872 106.793 63.0039 108.238 64.702 108.113C66.4002 107.987 73.0278 105.59 75.6256 105.043C78.2234 104.495 83.8595 105.267 86.0626 104.576C88.2657 103.884 86.3196 76.8547 85.98 69.1345C85.6403 61.4142 82.7396 61.4232 82.7396 61.4232C82.7396 61.4232 81.9961 69.9783 70.3107 56.9437Z" fill="#079D49"/>
<path opacity="0.1" d="M59.8645 82.0431C60.094 82.6984 73.2573 84.6554 74.3221 83.1024C75.1483 81.8995 73.1104 70.7141 72.1374 65.678C71.8528 64.2147 70.7146 63.0657 69.2551 62.7874L66.0515 62.168C61.9024 62.2488 59.635 81.3967 59.8645 82.0431Z" fill="black"/>
<path d="M58.5231 80.3289C58.7342 80.9393 71.2458 82.9771 72.2831 81.5498C73.0909 80.4456 71.3468 70.0233 70.5206 65.3283C70.282 63.9638 69.208 62.8776 67.8219 62.5903L64.7835 61.9619C60.818 61.9799 58.3212 79.7184 58.5231 80.3289Z" fill="#079D49"/>
<path d="M62.9397 80.311C62.9397 80.311 63.5088 88.13 62.9397 91.7657C62.7928 92.6455 62.9122 93.5611 63.2977 94.369C64.133 96.0567 65.9046 97.116 67.8231 97.0532C71.1094 96.9903 77.3697 96.3709 79.8023 95.6797C82.3909 94.9346 88.3851 92.8878 92.9472 92.6096C97.5094 92.3313 105.082 87.4388 105.22 85.9037C105.44 83.5158 94.0763 82.8336 90.9369 85.9037C87.7976 88.9739 72.6607 88.139 72.6607 88.139L72.9452 81.9897L62.9397 80.311Z" fill="#F8BDC5"/>
</svg>
