<?xml version="1.0" encoding="utf-8"?>
<!-- Generator: Adobe Illustrator 24.2.3, SVG Export Plug-In . SVG Version: 6.00 Build 0)  -->
<svg version="1.1" xmlns="http://www.w3.org/2000/svg" xmlns:xlink="http://www.w3.org/1999/xlink" x="0px" y="0px"
	 viewBox="0 0 2500 2500" style="enable-background:new 0 0 2500 2500;" xml:space="preserve">
<style type="text/css">
	.st0{fill:#FFFFFF;}
	.st1{fill:#F2E6DC;}
	.st2{fill:#F7F1EB;}
	.st3{fill:#E6D0BE;}
	.st4{fill:#D87355;}
	.st5{fill:#D3BBA3;}
	.st6{fill:#363E44;}
	.st7{fill:#EFBC73;}
	.st8{fill:#BC8271;}
	.st9{fill:#8B865C;}
</style>
<g id="Background">
	<rect class="st0" width="2500" height="2500"/>
</g>
<g id="Illustration">
	<g id="Access_control_system_1_">
		<ellipse class="st1" cx="1250" cy="1250" rx="916.66" ry="915"/>
		<g>
			<g>
				<path class="st2" d="M2116.82,1228.56h-18.38c-1.65-8.94-3.99-17.64-6.98-26.04l15.91-9.17l-31.1-53.78l-15.94,9.19
					c-5.85-6.84-12.23-13.21-19.08-19.05l9.21-15.92l-53.88-31.05l-9.18,15.88c-8.41-2.98-17.13-5.32-26.09-6.97v-18.35h-62.21
					l0,18.35c-8.96,1.64-17.67,3.99-26.09,6.97l-9.18-15.88l-53.88,31.05l9.21,15.92c-6.85,5.84-13.23,12.21-19.08,19.05
					l-15.94-9.19l-31.1,53.78l15.91,9.17c-2.98,8.4-5.33,17.1-6.98,26.04h-18.38l0,62.1h18.38c1.65,8.94,3.99,17.64,6.98,26.04
					l-15.91,9.17l31.1,53.78l15.94-9.19c5.85,6.84,12.23,13.21,19.08,19.05l-9.21,15.92l53.88,31.05l9.18-15.88
					c8.41,2.98,17.13,5.32,26.09,6.96v18.35h62.21v-18.35c8.96-1.64,17.67-3.99,26.09-6.96l9.18,15.88l53.88-31.05l-9.21-15.92
					c6.85-5.84,13.23-12.21,19.08-19.05l15.94,9.19l31.1-53.78l-15.91-9.17c2.98-8.4,5.33-17.1,6.98-26.04h18.38V1228.56z
					 M2058.32,1309.74c-12.95,36.16-41.67,64.83-77.9,77.76c-113.86,40.63-219.06-64.37-178.35-178.03
					c12.95-36.17,41.67-64.83,77.9-77.76C1993.83,1091.08,2099.03,1196.08,2058.32,1309.74z"/>
			</g>
		</g>
		<g>
			<g>
				<g>
					<polygon class="st3" points="1722.2,1978.15 992.09,1978.15 1374.07,597.64 2104.19,597.64 					"/>
					<path class="st4" d="M1672.67,2060.67H991.46c-20.46,0-37.69-7.84-48.52-22.08c-11.45-15.04-14.45-35.25-8.46-56.88
						L1322.2,580.43c11.97-43.25,56.82-78.43,99.99-78.43h681.21c20.46,0,37.69,7.84,48.52,22.08
						c11.45,15.04,14.45,35.24,8.46,56.88l-387.73,1401.27C1760.69,2025.48,1715.83,2060.67,1672.67,2060.67z M1422.19,504
						c-42.33,0-86.32,34.53-98.06,76.96L936.4,1982.24c-5.82,21.02-2.93,40.6,8.13,55.14c10.45,13.73,27.11,21.29,46.93,21.29
						h681.21c42.33,0,86.32-34.53,98.06-76.96l387.73-1401.27c5.82-21.02,2.93-40.6-8.13-55.14
						c-10.45-13.73-27.11-21.29-46.93-21.29H1422.19z"/>
				</g>
				<g>
					<polygon class="st1" points="1875.63,1289.39 1214.77,1289.39 1370.81,725.45 2031.67,725.45 					"/>
				</g>
			</g>
			<g>
				<polygon class="st1" points="1551.51,1895.76 1124.26,1895.76 1156.18,1783.3 1583.43,1783.3 				"/>
			</g>
			<g>
				<polygon class="st0" points="1727.93,1557.11 1733.94,1534.95 1408.04,1536.77 1396.02,1581.09 1721.92,1579.28 				"/>
				<polygon class="st0" points="1703.42,1523.79 1590.36,1524.42 1596.04,1503.47 1709.1,1502.84 				"/>
				<polygon class="st0" points="1691.36,1460.56 1607.54,1461.03 1613.22,1440.08 1697.04,1439.61 				"/>
				<polygon class="st0" points="1711.94,1492.37 1598.88,1493 1604.55,1472.06 1717.62,1471.43 				"/>
				<path class="st0" d="M1462.77,1465.16c-37.91-51.77-122.26-51.3-188.4,1.05c-66.14,52.35-89.03,136.76-51.12,188.53
					c37.91,51.77,122.26,51.3,188.4-1.05C1477.79,1601.34,1500.68,1516.93,1462.77,1465.16z M1287.21,1600.84l-29.59-40.41
					l51.63-40.86l29.59,40.41L1287.21,1600.84z"/>
			</g>
		</g>
		<g>
			<rect x="478.22" y="789.26" class="st3" width="454.63" height="272.8"/>
			<g>
				<rect x="507.73" y="870.32" class="st0" width="241.2" height="191.75"/>
				<g>
					<path class="st3" d="M737.18,906.88H519.49c-0.55,0-1-0.45-1-1c0-0.55,0.45-1,1-1h217.69c0.55,0,1,0.45,1,1
						C738.18,906.43,737.73,906.88,737.18,906.88z"/>
					<path class="st3" d="M737.18,935.66H519.49c-0.55,0-1-0.45-1-1s0.45-1,1-1h217.69c0.55,0,1,0.45,1,1
						S737.73,935.66,737.18,935.66z"/>
					<path class="st3" d="M737.18,964.44H519.49c-0.55,0-1-0.45-1-1c0-0.55,0.45-1,1-1h217.69c0.55,0,1,0.45,1,1
						C738.18,963.99,737.73,964.44,737.18,964.44z"/>
					<path class="st3" d="M737.18,993.21H519.49c-0.55,0-1-0.45-1-1c0-0.55,0.45-1,1-1h217.69c0.55,0,1,0.45,1,1
						C738.18,992.77,737.73,993.21,737.18,993.21z"/>
					<path class="st3" d="M737.18,1021.99H519.49c-0.55,0-1-0.45-1-1c0-0.55,0.45-1,1-1h217.69c0.55,0,1,0.45,1,1
						C738.18,1021.54,737.73,1021.99,737.18,1021.99z"/>
				</g>
			</g>
			<polygon class="st2" points="1016.58,394.85 778.88,608.34 778.88,1060.47 1254.28,1060.47 1254.28,608.34 			"/>
			<path class="st5" d="M1254.28,592.08c-0.24,0-0.48-0.08-0.67-0.26l-237.03-212.89L779.55,591.83c-0.41,0.37-1.04,0.34-1.41-0.08
				c-0.37-0.41-0.34-1.04,0.08-1.41l237.7-213.49c0.38-0.34,0.96-0.34,1.34,0l237.7,213.49c0.41,0.37,0.45,1,0.08,1.41
				C1254.82,591.97,1254.55,592.08,1254.28,592.08z"/>
			<g>
				<rect x="1040.5" y="808.38" class="st3" width="141.38" height="210.38"/>
				
					<rect x="1493.06" y="763.23" transform="matrix(-1 -1.224647e-16 1.224647e-16 -1 3088.6174 1736.8311)" class="st3" width="102.5" height="210.38"/>
			</g>
			<g>
				<path class="st0" d="M1273.98,1062.6H781.47c-0.55,0-1-0.45-1-1s0.45-1,1-1h492.51c0.55,0,1,0.45,1,1
					S1274.53,1062.6,1273.98,1062.6z"/>
			</g>
			<g>
				<rect x="818.15" y="808.38" class="st3" width="185.21" height="181.72"/>
			</g>
			<g>
				<rect x="818.15" y="737.19" class="st3" width="394.66" height="52.08"/>
			</g>
			<polygon class="st3" points="1212.81,710.48 820.34,710.48 820.34,606.75 1016.63,429.28 1212.81,606.75 			"/>
			<g>
				<path class="st0" d="M909.48,702.86c-0.55,0-1-0.45-1-1V536.37c0-0.55,0.45-1,1-1c0.55,0,1,0.45,1,1v165.49
					C910.48,702.41,910.03,702.86,909.48,702.86z"/>
				<path class="st0" d="M1123.68,702.86c-0.55,0-1-0.45-1-1V536.37c0-0.55,0.45-1,1-1s1,0.45,1,1v165.49
					C1124.68,702.41,1124.23,702.86,1123.68,702.86z"/>
			</g>
			<g>
				<path class="st0" d="M909.48,702.86c-0.55,0-1-0.45-1-1V536.37c0-0.55,0.45-1,1-1c0.55,0,1,0.45,1,1v165.49
					C910.48,702.41,910.03,702.86,909.48,702.86z"/>
				<path class="st0" d="M1123.68,702.86c-0.55,0-1-0.45-1-1V536.37c0-0.55,0.45-1,1-1s1,0.45,1,1v165.49
					C1124.68,702.41,1124.23,702.86,1123.68,702.86z"/>
			</g>
			<g>
				<path class="st0" d="M910.75,985.04c-0.55,0-1-0.45-1-1V815.19c0-0.55,0.45-1,1-1c0.55,0,1,0.45,1,1v168.84
					C911.75,984.59,911.3,985.04,910.75,985.04z"/>
			</g>
		</g>
		<g>
			<polygon class="st6" points="1932.96,1236.39 1042.77,1236.39 1222.91,585.37 2113.09,585.37 			"/>
			<g>
				<polygon class="st0" points="2027.27,690.07 1247.76,690.07 1259.29,647.82 2038.8,647.82 				"/>
			</g>
			<g>
				<g>
					<polygon class="st7" points="1915.77,901.74 1208.29,901.74 1240.1,786.93 1947.58,786.93 					"/>
					<g>
						
							<ellipse transform="matrix(0.779 -0.627 0.627 0.779 -247.7212 989.0328)" class="st0" cx="1279.12" cy="845.92" rx="29.55" ry="22.47"/>
						
							<ellipse transform="matrix(0.779 -0.627 0.627 0.779 -230.9143 1036.7172)" class="st0" cx="1355.16" cy="845.92" rx="29.55" ry="22.47"/>
						
							<ellipse transform="matrix(0.779 -0.627 0.627 0.779 -214.1076 1084.399)" class="st0" cx="1431.21" cy="845.92" rx="29.55" ry="22.47"/>
						
							<ellipse transform="matrix(0.779 -0.627 0.627 0.779 -197.3009 1132.0809)" class="st0" cx="1507.25" cy="845.92" rx="29.55" ry="22.47"/>
						
							<ellipse transform="matrix(0.779 -0.627 0.627 0.779 -180.4961 1179.7529)" class="st0" cx="1583.29" cy="845.92" rx="29.55" ry="22.47"/>
						
							<ellipse transform="matrix(0.779 -0.627 0.627 0.779 -163.6897 1227.4344)" class="st0" cx="1659.33" cy="845.92" rx="29.55" ry="22.47"/>
						
							<ellipse transform="matrix(0.779 -0.627 0.627 0.779 -146.8832 1275.116)" class="st0" cx="1735.37" cy="845.92" rx="29.55" ry="22.47"/>
					</g>
				</g>
			</g>
			<g>
				<g>
					<polygon class="st7" points="1868.21,1074.41 1160.73,1074.41 1192.54,959.61 1900.02,959.61 					"/>
					<g>
						
							<ellipse transform="matrix(0.779 -0.627 0.627 0.779 -366.5096 997.3778)" class="st4" cx="1231.57" cy="1018.6" rx="29.55" ry="22.47"/>
						
							<ellipse transform="matrix(0.779 -0.627 0.627 0.779 -349.7031 1045.0588)" class="st4" cx="1307.61" cy="1018.6" rx="29.55" ry="22.47"/>
						
							<ellipse transform="matrix(0.779 -0.627 0.627 0.779 -332.8965 1092.7406)" class="st4" cx="1383.65" cy="1018.6" rx="29.55" ry="22.47"/>
						
							<ellipse transform="matrix(0.779 -0.627 0.627 0.779 -316.09 1140.4222)" class="st4" cx="1459.69" cy="1018.6" rx="29.55" ry="22.47"/>
					</g>
				</g>
			</g>
		</g>
		<g>
			<g>
				<g>
					<g>
						<path class="st6" d="M1019.98,1034.53c-0.42,0-0.83-0.02-1.25-0.05c-5.81-0.48-10.97-4.18-14.54-10.43
							c-3.5-6.12-5.05-13.99-4.38-22.16c1.41-16.99,12.19-30.02,24.03-29.04c5.81,0.48,10.97,4.18,14.54,10.43
							c3.5,6.13,5.06,13.99,4.38,22.16C1041.4,1021.83,1031.32,1034.53,1019.98,1034.53z M1022.57,974.81
							c-10.31,0-19.5,11.91-20.77,27.25c-0.64,7.76,0.82,15.22,4.12,21c3.23,5.66,7.84,9.01,12.97,9.43
							c10.79,0.89,20.56-11.32,21.88-27.21c0.64-7.76-0.82-15.22-4.12-21c-3.23-5.66-7.84-9.01-12.97-9.43
							C1023.31,974.82,1022.94,974.81,1022.57,974.81z"/>
						<path class="st8" d="M1014.91,997.79c3.9-46.49,2.07-73.94-16.44-95.58c-24.87-29.09-66.97-26.32-71.36-25.96
							c-2.8,0.23-42.85,1.06-64.79,34.8c-21.67,33.32-17.41,91.05,1.38,125.66l-37.15,85.58c-11.67,25.66-6.98,36.13,18.72,47.78
							l5.82,2.64c25.7,11.65,56,0.29,67.67-25.37l24.28-53.39c16.93,6.03,31.97,7.15,40.89,1.25
							C999.91,1084.63,1010.31,1052.54,1014.91,997.79z"/>
						<path class="st6" d="M1040.57,1008.25c-0.07,0-0.14-0.01-0.21-0.02l-82.75-17.94c-0.54-0.12-0.88-0.65-0.77-1.19
							c0.12-0.54,0.65-0.88,1.19-0.77l82.75,17.94c0.54,0.12,0.88,0.65,0.77,1.19C1041.45,1007.93,1041.04,1008.25,1040.57,1008.25z
							"/>
						<path class="st6" d="M944.35,1094.02c-0.13,0-0.26-0.03-0.39-0.08c-0.51-0.22-0.75-0.8-0.53-1.31l8.37-19.78
							c0.22-0.51,0.8-0.75,1.31-0.53c0.51,0.22,0.75,0.8,0.53,1.31l-8.37,19.78C945.11,1093.79,944.74,1094.02,944.35,1094.02z"/>
						<path class="st6" d="M940.45,1018.01c-0.42,0-0.81-0.27-0.95-0.69c-2.23-6.83-3.55-11.19-4.51-14.37
							c-0.47-1.55-0.86-2.83-1.23-3.99c-0.17-0.53,0.12-1.09,0.65-1.26c0.52-0.17,1.09,0.12,1.26,0.65
							c0.37,1.17,0.76,2.45,1.23,4.02c0.96,3.17,2.27,7.52,4.5,14.33c0.17,0.52-0.12,1.09-0.64,1.26
							C940.65,1018,940.55,1018.01,940.45,1018.01z"/>
						<path class="st6" d="M1010.49,903.82c-14.99-38.99-90.88-54.83-133.53-31.72c-57.68,31.26-72.6,111.46-42.38,154.77
							c10.14,14.53,28.74,35.14,58.54,34.87c17.4-0.16,24.16-22.56,25.69-28c-12.3-8.52-16.64-24.5-10.6-37.35
							c6.08-12.94,21.12-19.35,33.63-16.05c8.3,2.19,13.28,8.07,15.22,10.65C996.79,963.6,1021.17,931.6,1010.49,903.82z"/>
					</g>
					<g>
						<path class="st6" d="M788.95,686.94c-133.42,15.8-126.07-150.42-126.07-150.42L532,722.53
							c14.75,73.14,80.08,97.37,80.08,97.37c-55.58,0.7-87.09-37.68-102.57-65.4l-36.45,51.81c0,0,32.98,127.95,163.26,76.09
							c130.28-51.85,210.91,58.66,210.91,58.66l21.65-58.66C868.88,882.4,922.37,671.14,788.95,686.94z"/>
						<g>
							<path class="st0" d="M832.41,914.5c-0.2,0-0.4-0.06-0.58-0.18c-0.45-0.32-0.56-0.94-0.24-1.39
								c7.41-10.5,15.07-21.36,20.23-33.33c2.86-6.64,4.22-12.1,4.27-17.2c0.07-6.35-2.08-12.15-5.89-15.92
								c-4.29-4.24-10.73-5.66-15.68-3.44c-3.04,1.36-5.35,4.09-6.52,7.67c-1.34,4.1-0.95,8.64,1.05,12.14
								c3.21,5.64,9.95,9.03,16.41,8.25c0.56-0.07,1.05,0.32,1.11,0.87c0.07,0.55-0.32,1.05-0.87,1.11
								c-7.24,0.88-14.79-2.92-18.39-9.24c-2.27-3.99-2.72-9.13-1.21-13.75c1.35-4.13,4.05-7.28,7.6-8.88
								c5.68-2.55,13.04-0.98,17.91,3.84c4.19,4.15,6.56,10.48,6.48,17.36c-0.06,5.37-1.47,11.08-4.43,17.97
								c-5.24,12.17-12.97,23.11-20.43,33.7C833.04,914.35,832.73,914.5,832.41,914.5z"/>
							<path class="st0" d="M823.67,908.25c-0.19,0-0.38-0.05-0.55-0.16c-0.46-0.3-0.59-0.92-0.29-1.38l10.05-15.36
								c0.3-0.46,0.92-0.59,1.38-0.29c0.46,0.3,0.59,0.92,0.29,1.38l-10.05,15.36C824.32,908.09,824,908.25,823.67,908.25z"/>
						</g>
						<path class="st6" d="M839.97,929.01c-0.24,0-0.48-0.09-0.67-0.26c-31.52-28.85-75.82-44.24-118.47-41.19
							c-23.69,1.69-46.94,8.75-69.43,15.58c-5.18,1.57-10.53,3.2-15.81,4.73c-26.44,7.69-57.47,14.8-87.17,9.27
							c-26.7-4.97-56.99-23.68-64.46-54.29c-0.13-0.54,0.2-1.08,0.73-1.21c0.53-0.13,1.08,0.2,1.21,0.73
							c7.26,29.74,36.82,47.95,62.88,52.8c29.3,5.45,60.04-1.61,86.25-9.23c5.26-1.53,10.61-3.15,15.78-4.72
							c22.59-6.86,45.96-13.95,69.87-15.66c43.18-3.09,88.04,12.5,119.96,41.71c0.41,0.37,0.44,1.01,0.06,1.41
							C840.51,928.9,840.25,929.01,839.97,929.01z"/>
						<path class="st6" d="M759.5,958.02c-4.02,0-8.04-1.04-11.5-3.13c-7.08-4.27-11.36-12.67-10.66-20.9
							c0.62-7.31,5.07-14.75,12.52-20.95c11.83-9.84,28-14.56,43.28-12.61c15.27,1.95,29.75,10.57,38.72,23.06
							c0.32,0.45,0.22,1.07-0.23,1.4c-0.45,0.32-1.07,0.22-1.4-0.23c-8.65-12.05-22.61-20.36-37.34-22.24
							c-14.74-1.88-30.34,2.67-41.75,12.16c-7.04,5.86-11.23,12.81-11.8,19.58c-0.64,7.49,3.26,15.13,9.7,19.02
							c6.45,3.89,15.04,3.78,21.38-0.26c4.83-3.08,8.77-9.33,6.93-15.33c-0.87-2.84-3.64-5.28-6.88-6.06
							c-2.38-0.58-4.6-0.18-6.21,1.08l1.9,2.94c0.3,0.46,0.17,1.08-0.29,1.38c-0.46,0.3-1.08,0.17-1.38-0.3l-2.8-4.32l0.56-0.57
							c2.14-2.19,5.31-2.98,8.7-2.16c3.97,0.96,7.24,3.88,8.32,7.42c2.13,6.95-2.3,14.11-7.77,17.6
							C767.93,956.88,763.71,958.02,759.5,958.02z"/>
					</g>
				</g>
			</g>
			<path class="st6" d="M431.1,1820.3c0,0-21.22,110.17,33.8,161.76h1002.55c0,0,117.63-280.36-498.61-257.11L431.1,1820.3z"/>
			<g>
				<g>
					<path class="st8" d="M426.49,1407.51c-7.08,1.52-37.61,73.71-68.24,150.49c-35.03,87.81,29.44,183.31,124.13,183.98l31.32,0.22
						L643,1386.37L426.49,1407.51z"/>
					<path class="st9" d="M531.04,1418.1H376.49l75.56-151.86c37.77-75.9,115.34-123.9,200.24-123.9h235.96L531.04,1418.1z"/>
				</g>
				<g>
					<path class="st8" d="M1204.83,1224.15c87.32,35.27,167.56,55.54,223.99,96.25c69.87,50.4,97.73,125.86,65.92,159.62
						c-33.35,35.4-165.68,61.25-342.53-18.74C1156.33,1389.07,1161.29,1296.45,1204.83,1224.15z"/>
					<path class="st8" d="M1353.84,1319.89c21.32-49.92,74.8-161.45,120.5-244.24c47.99-86.94,131.53-208.34,148.4-196.45
						c9.6,6.77,1.64,25.68-23.01,74.8c3.73-1.24,15.21-2.75,23.09,4.99c11.66,11.45,5.74,23.94,5.65,25.27
						c1.23-0.52,14.66-5.79,23.77,0.56c10.25,7.15,12.73,17.69,10.75,27.29c3.1-1.2,14.98-4.48,23.55,1.88
						c8.81,6.54,13.26,19.75,7.58,29.68c-10.42,18.22-42.41,71.79-54.79,99.76c-24.37,55.03-84.65,262.05-140.94,332.29
						C1457.03,1409.7,1395.19,1385.91,1353.84,1319.89z"/>
					<path class="st6" d="M1568.83,974.38c-0.22,0-0.43-0.07-0.62-0.21l-13.1-10.26c-0.43-0.34-0.51-0.97-0.17-1.4
						c0.34-0.43,0.97-0.51,1.4-0.17l13.1,10.26c0.43,0.34,0.51,0.97,0.17,1.4C1569.42,974.25,1569.13,974.38,1568.83,974.38z"/>
					<path class="st6" d="M1602.11,1000.38c-0.22,0-0.43-0.07-0.62-0.21l-13.1-10.26c-0.43-0.34-0.51-0.97-0.17-1.4
						c0.34-0.43,0.97-0.51,1.4-0.17l13.1,10.26c0.43,0.34,0.51,0.97,0.17,1.4C1602.7,1000.25,1602.41,1000.38,1602.11,1000.38z"/>
					<path class="st6" d="M1636.28,1026.48c-0.22,0-0.43-0.07-0.62-0.21l-13.1-10.26c-0.43-0.34-0.51-0.97-0.17-1.4
						c0.34-0.43,0.97-0.51,1.4-0.17l13.1,10.26c0.43,0.34,0.51,0.97,0.17,1.4C1636.87,1026.34,1636.58,1026.48,1636.28,1026.48z"/>
					<path class="st6" d="M1666.79,1050.78c-0.22,0-0.43-0.07-0.62-0.21l-13.1-10.26c-0.43-0.34-0.51-0.97-0.17-1.4
						c0.34-0.43,0.97-0.51,1.4-0.17l13.1,10.26c0.43,0.34,0.51,0.97,0.17,1.4C1667.38,1050.65,1667.08,1050.78,1666.79,1050.78z"/>
				</g>
				<g>
					<g>
						<path class="st9" d="M798.26,1142.35c251.96-5.95,460.49,89.31,460.49,89.31l-24.12,273.46l-107.07,1.98l-65.21,219.83
							l-79.23-2.26l-52.55,138.92l-554.09,6.27l105.29-373.12C481.77,1496.74,536.22,1148.53,798.26,1142.35z"/>
						<path class="st6" d="M1128.62,1506.34c-0.53,0-0.98-0.42-1-0.96c-0.37-8.94-0.56-19.95-0.75-30.59
							c-0.18-10.62-0.37-21.6-0.74-30.51c-0.02-0.55,0.41-1.02,0.96-1.04c0.5-0.02,1.02,0.41,1.04,0.96
							c0.37,8.93,0.56,19.93,0.74,30.56c0.18,10.63,0.37,21.63,0.74,30.54c0.02,0.55-0.41,1.02-0.96,1.04
							C1128.65,1506.34,1128.63,1506.34,1128.62,1506.34z"/>
						<path class="st6" d="M501.46,1408.51c-0.09,0-0.19-0.01-0.28-0.04c-0.53-0.15-0.83-0.71-0.68-1.24l30.06-102.89
							c0.15-0.53,0.71-0.83,1.24-0.68c0.53,0.15,0.83,0.71,0.68,1.24l-30.06,102.89C502.3,1408.22,501.9,1408.51,501.46,1408.51z"/>
					</g>
					<g>
						<path class="st7" d="M652.29,1142.35c0,0,23.43-47.6,83.59-47.77c60.15-0.17,281.23,46.8,281.23,46.8l10.03,24.9
							c0,0-175.52,103.4-301.6,118.29S604.84,1183.51,652.29,1142.35z"/>
						<path class="st6" d="M779.18,1194.07c-25.43,0-42.03-4.83-52.86-11.02c-15.96-9.12-18.15-20.53-18.23-21.01
							c-0.1-0.54,0.27-1.06,0.81-1.16c0.54-0.1,1.06,0.27,1.16,0.81c0.04,0.22,2.26,11.11,17.38,19.7
							c26.37,14.97,87.55,21.71,229.24-31.22c0.52-0.19,1.09,0.07,1.29,0.59c0.19,0.52-0.07,1.09-0.59,1.29
							C872.63,1183.7,816.43,1194.07,779.18,1194.07z"/>
					</g>
				</g>
			</g>
		</g>
		<g>
			<path class="st6" d="M1823.26,2088.66c-58.85,0-114.17-22.88-155.79-64.41c-41.61-41.54-64.53-96.76-64.53-155.51V1698.1
				c0-0.55,0.45-1,1-1h438.63c0.55,0,1,0.45,1,1v170.64c0,58.74-22.92,113.97-64.53,155.51
				C1937.44,2065.79,1882.11,2088.66,1823.26,2088.66z M1604.95,1699.1v169.64c0,120.16,97.94,217.92,218.32,217.92
				s218.32-97.76,218.32-217.92V1699.1H1604.95z M1840.77,1973.84h-35.01c-0.55,0-1-0.45-1-1v-91.67
				c-19.63-7.6-32.77-26.67-32.77-47.68c0-28.22,23-51.18,51.28-51.18s51.28,22.96,51.28,51.18c0,21.02-13.14,40.09-32.77,47.68
				v91.67C1841.77,1973.39,1841.32,1973.84,1840.77,1973.84z M1806.76,1971.84h33.01v-91.36c0-0.42,0.26-0.79,0.65-0.94
				c19.21-7.13,32.12-25.64,32.12-46.06c0-27.12-22.1-49.18-49.28-49.18s-49.28,22.06-49.28,49.18c0,20.42,12.91,38.92,32.12,46.06
				c0.39,0.15,0.65,0.52,0.65,0.94V1971.84z"/>
			<path class="st6" d="M2018.42,1653.22c-0.55,0-1-0.45-1-1c0-106.86-87.1-193.8-194.16-193.8s-194.16,86.94-194.16,193.8
				c0,0.55-0.45,1-1,1s-1-0.45-1-1c0-107.97,88-195.8,196.16-195.8s196.16,87.84,196.16,195.8
				C2019.42,1652.77,2018.97,1653.22,2018.42,1653.22z"/>
		</g>
	</g>
</g>
</svg>
