<svg width="228" height="171" viewBox="0 0 228 171" fill="none" xmlns="http://www.w3.org/2000/svg">
<path d="M79.5846 10.2064C54.6991 2.16302 22.204 0.107273 10.1697 36.949C-10.383 99.8958 31.6588 122.365 31.6588 122.365C31.6588 122.365 61.0146 128.254 77.2622 138.892C100.348 154.009 128.621 159.054 155.251 151.971C172.278 147.438 186.883 140.005 191.05 127.832C202.727 93.8004 197.705 87.328 218.827 78.351C239.949 69.3829 217.542 36.4552 203.066 26.6164C191.087 18.4743 170.626 3.01584 150.422 0.951121C112.787 -2.87309 97.1448 15.8799 79.5846 10.2064Z" fill="#CFDFD6"/>
<path opacity="0.1" d="M28.7485 170.428H81.4752C82.6869 170.428 83.6691 169.468 83.6691 168.283C83.6691 167.098 82.6869 166.137 81.4752 166.137H28.7485C27.5368 166.137 26.5547 167.098 26.5547 168.283C26.5547 169.468 27.5368 170.428 28.7485 170.428Z" fill="#252223"/>
<path opacity="0.1" d="M137.159 170.428H188.683C189.895 170.428 190.877 169.468 190.877 168.283C190.877 167.098 189.895 166.137 188.683 166.137H137.159C135.947 166.137 134.965 167.098 134.965 168.283C134.965 169.468 135.947 170.428 137.159 170.428Z" fill="#252223"/>
<path opacity="0.1" d="M2.19384 155.948H37.856C39.0676 155.948 40.0498 154.988 40.0498 153.803C40.0498 152.618 39.0676 151.657 37.856 151.657H2.19384C0.982156 151.657 0 152.618 0 153.803C0 154.988 0.982156 155.948 2.19384 155.948Z" fill="#252223"/>
<path opacity="0.1" d="M34.6979 162.716H49.0912C50.3029 162.716 51.2851 161.756 51.2851 160.571C51.2851 159.386 50.3029 158.425 49.0912 158.425H34.6979C33.4862 158.425 32.504 159.386 32.504 160.571C32.4948 161.756 33.477 162.716 34.6979 162.716Z" fill="#252223"/>
<path opacity="0.1" d="M114.99 164.189H129.383C130.595 164.189 131.577 163.228 131.577 162.043C131.577 160.858 130.595 159.898 129.383 159.898H114.99C113.778 159.898 112.796 160.858 112.796 162.043C112.787 163.228 113.778 164.189 114.99 164.189Z" fill="#252223"/>
<path d="M159.896 84.4551C159.896 84.4551 164.697 84.2217 166.983 89.563L164.266 91.2687C164.266 91.2687 163.743 87.9831 159.896 87.8664V84.4551Z" fill="#E6E6E6"/>
<path d="M158.353 87.7402L161.878 84.5534C162.521 83.9788 162.558 83.0004 161.97 82.372L160.566 80.8908C159.978 80.2624 158.978 80.2265 158.335 80.801L154.81 83.9878C154.168 84.5624 154.131 85.5409 154.718 86.1693L156.123 87.6505C156.71 88.2789 157.711 88.3148 158.353 87.7402Z" fill="#424242"/>
<path opacity="0.1" d="M158.353 87.7402L161.878 84.5534C162.521 83.9788 162.558 83.0004 161.97 82.372L160.566 80.8908C159.978 80.2624 158.978 80.2265 158.335 80.801L154.81 83.9878C154.168 84.5624 154.131 85.5409 154.718 86.1693L156.123 87.6505C156.71 88.2789 157.711 88.3148 158.353 87.7402Z" fill="black"/>
<path d="M130.541 76.61C130.541 76.61 132.698 87.1221 135.296 87.8133C137.894 88.5045 147.982 85.1022 153.086 85.1381H154.71C154.71 85.1381 155.913 85.1741 156.996 84.3123C158.079 83.4505 159.227 83.621 159.199 84.6893C159.172 85.7576 159.309 87.3375 160.292 87.3375C161.274 87.3375 159.649 86.754 160.741 83.8993C161.834 81.0446 159.071 80.0572 157.703 80.4342C156.326 80.8112 154.288 81.7269 152.388 81.5653C150.488 81.4037 139.115 81.9962 137.866 80.6855C136.618 79.3839 136.655 74.4824 136.655 74.4824L130.541 76.61Z" fill="#EFB7B9"/>
<path opacity="0.1" d="M129.348 76.8069C129.348 76.8069 132.698 87.1125 135.305 87.8128C137.912 88.513 147.991 85.1017 153.095 85.1376H154.72C154.72 85.1376 155.922 85.1735 157.005 84.3117C158.088 83.4499 159.236 83.6205 159.208 84.6887C159.181 85.757 159.318 87.337 160.301 87.337C161.283 87.337 159.658 86.7535 160.751 83.8988C161.843 81.0441 159.08 80.0566 157.712 80.4336C156.335 80.8107 154.297 81.7263 152.397 81.5648C150.497 81.4032 139.124 81.9956 137.875 80.685C136.627 79.3833 135.994 73.6919 135.994 73.6919L129.348 76.8069Z" fill="black"/>
<path d="M71.0674 102.895L65.4771 100.956L63.9258 108.11L100.074 126.756C100.074 126.756 102.112 143.668 114.247 147.654C126.373 151.649 140.179 149.18 145.825 144.602C151.47 140.024 152.471 125.939 152.471 125.939L171.83 106.683L166.24 88.3608L154.288 97.0147L136.737 94.4293C136.737 94.4293 134.543 94.1151 131.9 95.5245C129.256 96.9339 116.772 102.105 99.3584 98.6934C81.945 95.2821 69.8832 94.5101 69.8832 94.5101L71.3244 97.679L71.0674 102.895Z" fill="#424242"/>
<path d="M76.7214 168.059C89.6795 168.059 100.184 157.786 100.184 145.113C100.184 132.441 89.6795 122.168 76.7214 122.168C63.7634 122.168 53.2588 132.441 53.2588 145.113C53.2588 157.786 63.7634 168.059 76.7214 168.059Z" fill="#373737"/>
<path d="M76.7215 162.538C86.5618 162.538 94.5389 154.737 94.5389 145.113C94.5389 135.49 86.5618 127.689 76.7215 127.689C66.8813 127.689 58.9043 135.49 58.9043 145.113C58.9043 154.737 66.8813 162.538 76.7215 162.538Z" fill="#505D66"/>
<path d="M76.721 160.886C85.6284 160.886 92.8493 153.824 92.8493 145.113C92.8493 136.402 85.6284 129.34 76.721 129.34C67.8136 129.34 60.5928 136.402 60.5928 145.113C60.5928 153.824 67.8136 160.886 76.721 160.886Z" fill="#999999"/>
<path d="M76.7213 151.101C80.1028 151.101 82.844 148.42 82.844 145.113C82.844 141.806 80.1028 139.125 76.7213 139.125C73.3398 139.125 70.5986 141.806 70.5986 145.113C70.5986 148.42 73.3398 151.101 76.7213 151.101Z" fill="black"/>
<path d="M185.268 168.059C198.226 168.059 208.731 157.786 208.731 145.113C208.731 132.441 198.226 122.168 185.268 122.168C172.31 122.168 161.806 132.441 161.806 145.113C161.806 157.786 172.31 168.059 185.268 168.059Z" fill="#373737"/>
<path d="M185.267 162.538C195.108 162.538 203.085 154.737 203.085 145.113C203.085 135.49 195.108 127.689 185.267 127.689C175.427 127.689 167.45 135.49 167.45 145.113C167.45 154.737 175.427 162.538 185.267 162.538Z" fill="#505D66"/>
<path d="M185.268 160.886C194.175 160.886 201.396 153.824 201.396 145.113C201.396 136.402 194.175 129.34 185.268 129.34C176.361 129.34 169.14 136.402 169.14 145.113C169.14 153.824 176.361 160.886 185.268 160.886Z" fill="#999999"/>
<path d="M185.268 151.101C188.65 151.101 191.391 148.42 191.391 145.113C191.391 141.806 188.65 139.125 185.268 139.125C181.887 139.125 179.146 141.806 179.146 145.113C179.146 148.42 181.887 151.101 185.268 151.101Z" fill="black"/>
<path d="M76.5371 141.899L122.893 126.055C124.555 125.777 126.069 127.033 126.069 128.685C126.069 128.685 126.088 131.019 123.802 131.315L77.914 147.133L76.5371 141.899Z" fill="#CCCCCC"/>
<path d="M76.5378 148.129C78.2969 148.129 79.7231 146.735 79.7231 145.014C79.7231 143.294 78.2969 141.899 76.5378 141.899C74.7786 141.899 73.3525 143.294 73.3525 145.014C73.3525 146.735 74.7786 148.129 76.5378 148.129Z" fill="#E6E6E6"/>
<path d="M198.77 117.472C198.77 117.472 175.592 108.199 162.025 127.455H152.423C152.423 127.455 154.709 118.065 134.533 113.953C134.533 113.953 128.291 112.777 122.287 116.422C116.284 120.058 105.957 121.826 98.5126 121.467C91.0681 121.117 72.3972 114.654 69.0283 104.321L73.4161 103.791L71.2773 95.5146C71.2773 95.5146 119.405 111.718 122.765 109.725C126.124 107.732 130.09 92.5791 143.418 93.2882C155.095 93.9077 154.581 98.0999 156.747 101.269C158.904 104.438 163.476 110.901 170.314 105.964C170.314 105.964 165.871 104.904 164.669 102.202C163.466 99.5003 166.707 97.6241 166.707 97.6241C166.707 97.6241 166.945 94.2219 165.862 91.044C164.779 87.8751 161.658 83.0634 162.264 80.1279C162.264 80.1279 170.791 84.8229 173.912 91.7532C177.034 98.6834 176.676 101.619 173.435 104.788C173.435 104.797 198.89 102.211 198.77 117.472Z" fill="#079D49"/>
<path opacity="0.1" d="M76.0508 105.731C76.0508 105.731 98.1457 110.426 111.116 119.232C111.116 119.241 101.028 101.386 76.0508 105.731Z" fill="black"/>
<path opacity="0.1" d="M158.142 103.208C158.142 103.208 144.364 92.1666 125.243 106.674C125.243 106.674 131.292 94.384 140.297 93.4234C149.302 92.4629 153.369 95.6318 154.278 97.0052C155.177 98.3787 158.142 103.208 158.142 103.208Z" fill="black"/>
<path d="M173.564 91.0537C173.564 91.0537 169.158 104.447 174.354 103.801C174.354 103.801 176.41 101.467 175.877 97.4364C175.354 93.4057 173.564 91.0537 173.564 91.0537Z" fill="#FFAA2E"/>
<path d="M69.2956 99.3928L50.542 99.9583C50.542 99.9583 53.1764 94.6978 64.8435 95.4519L69.2956 99.3928Z" fill="#424242"/>
<path d="M71.2783 95.515C71.2783 95.515 60.7954 87.8845 64.8435 95.4522L69.2956 99.3841L50.542 99.9496L63.9256 108.101L66.147 102.203L69.0293 104.312L73.4171 103.783L72.6736 99.0609L71.2783 95.515Z" fill="#DEDFE0"/>
<path d="M129.732 148.335C129.732 148.335 128.924 150.481 130.962 151.019C133 151.558 134.083 150.265 134.083 150.265L137.627 146.037V144.448L129.732 148.335Z" fill="black"/>
<path d="M133.963 144.152L129.731 148.336C129.731 148.336 129.18 150.472 131.558 150.49C133.788 150.517 137.625 144.44 137.625 144.44L133.963 144.152Z" fill="#CCCCCC"/>
<path d="M110.492 148.014C110.492 148.014 109.684 150.159 111.722 150.698C113.76 151.236 114.843 149.944 114.843 149.944L118.386 145.715V144.126L110.492 148.014Z" fill="black"/>
<path d="M114.726 143.83L110.495 148.013C110.495 148.013 109.944 150.149 112.321 150.167C114.552 150.194 118.389 144.117 118.389 144.117L114.726 143.83Z" fill="#CCCCCC"/>
<path d="M155.93 83.5664H161.961L177.18 124.43L174.39 126.019L159.712 86.5648H155.93V83.5664Z" fill="#E6E6E6"/>
<path d="M157.905 86.1252C157.905 86.1252 161.889 82.2921 159.713 73.8806C159.713 73.8806 161.338 73.9704 161.512 72.3814C161.696 70.7925 161.512 68.7727 161.512 68.7727C161.512 68.7727 161.962 66.1334 156.289 66.2142V74.6706C156.289 74.6706 158.079 75.0207 158.942 74.2307C158.942 74.2307 160.429 82.5075 157.372 85.066L157.905 86.1252Z" fill="#424242"/>
<path d="M173.463 125.605C173.463 125.605 176.437 125.821 177.034 122.885L178.714 125.704L179.182 125.318L190.124 146.98L182.009 144.511L174.362 128.927L174.996 128.397L173.463 125.605Z" fill="#079D49"/>
<path d="M130.413 79.4369C130.413 79.4369 135.489 80.4783 137.876 79.1317C137.876 79.1317 136.462 64.176 132.625 62.5242C130.046 61.4201 128.788 68.7992 128.788 68.7992L130.413 79.4369Z" fill="#B3B3B3"/>
<path opacity="0.05" d="M130.651 80.9812C130.651 80.9812 136.095 82.2649 137.876 79.1229C137.876 79.1229 136.462 64.1672 132.625 62.5154C130.046 61.4113 128.788 68.7904 128.788 68.7904L130.651 80.9812Z" fill="black"/>
<path d="M128.852 54.4189C128.852 54.4189 129.238 56.6722 128.338 57.9379L127.438 60.1014L133.111 64.7425C133.111 64.7425 135.204 60.1463 135.507 58.1713C135.819 56.1964 128.852 54.4189 128.852 54.4189Z" fill="#EFB7B9"/>
<path d="M128.338 57.9375C128.338 57.9375 119.25 59.8047 115.45 69.0062C113.1 74.6976 109.171 85.5777 106.509 93.0556C104.701 98.1366 108.639 103.46 114.137 103.289C114.587 103.271 115.028 103.245 115.477 103.191C121.38 102.508 126.612 97.6698 126.612 97.6698C126.612 97.6698 140.427 68.0636 133.405 64.0778C133.047 63.8803 127.888 61.0435 128.338 57.9375Z" fill="#00A99D"/>
<path d="M146.11 42.4523C146.11 42.4523 145.614 48.2963 145.568 50.2533C145.522 52.2193 145.283 63.0725 131.221 56.6001C117.158 50.1277 129.284 32.6943 146.11 42.4523Z" fill="#EFB7B9"/>
<path d="M133.975 40.3514C133.975 40.3514 147.781 35.9167 148.01 36.7606C148.239 37.6044 151.819 39.8756 149.864 41.9224C147.909 43.9691 147.358 43.6639 145.486 44.3282C143.613 44.9925 136.572 41.0067 134.893 50.8096C134.434 53.4668 133.975 40.3514 133.975 40.3514Z" fill="black"/>
<path d="M123.519 82.2205C123.519 82.2205 125.208 92.7865 128.503 93.2443C131.798 93.7021 147.293 87.4811 153.682 86.8168L155.711 86.5923C155.711 86.5923 157.216 86.4666 158.529 85.3176C159.842 84.1685 161.283 84.2134 161.301 85.4522C161.319 86.7 161.586 88.5314 162.816 88.3877C164.046 88.2441 161.98 87.7953 163.183 84.3212C164.385 80.847 160.879 80.066 159.19 80.6944C157.501 81.3228 154.995 82.6694 152.599 82.7412C150.212 82.813 132.68 86.5295 132.487 84.4468C132.303 82.5168 132.046 79.8506 132.046 79.8506L123.519 82.2205Z" fill="#EFB7B9"/>
<path opacity="0.1" d="M120.738 84.446C120.738 84.446 129.945 85.4335 132.24 83.279C132.24 83.279 133.534 64.0054 129.403 63.5116C121.123 62.5242 120.022 72.3809 120.738 84.446Z" fill="black"/>
<path d="M122.096 83.2792C122.096 83.2792 131.23 83.9345 133.268 81.4928C133.268 81.4928 134.847 64.3287 130.734 63.7003C122.096 62.3897 121.38 71.2141 122.096 83.2792Z" fill="#B3B3B3"/>
<path d="M147.569 38.1341C147.569 38.1341 136.14 40.9529 135.534 45.1542C134.919 49.3554 134.359 54.8404 135.231 57.0487C135.231 57.0487 127.961 56.5011 126.006 55.3072C124.051 54.1132 118.02 48.2871 119.645 40.4053C121.26 32.5235 128.127 27.6759 136.957 28.9058C145.788 30.1356 149.359 36.4105 147.569 38.1341Z" fill="#079D49"/>
<path d="M129.943 50.0915C131.743 50.0915 133.202 48.6647 133.202 46.9046C133.202 45.1446 131.743 43.7178 129.943 43.7178C128.144 43.7178 126.685 45.1446 126.685 46.9046C126.685 48.6647 128.144 50.0915 129.943 50.0915Z" fill="#444053"/>
<path d="M135.222 57.0393C135.222 57.0393 136.562 58.7808 139.04 58.6282C139.04 58.6282 137.608 59.5349 135.433 58.7449C134.928 58.5654 133.762 57.6587 133.615 56.8867L135.222 57.0393Z" fill="#444053"/>
<path d="M126.537 140.355C126.537 140.355 125.473 142.815 125.344 144.484C125.216 146.154 124.61 146.271 126.069 147.33C127.584 148.425 136.093 149.664 141.234 148.865C142.611 148.65 143.703 147.16 143.446 145.822C143.308 145.095 142.959 144.359 142.179 143.829C140.022 142.357 135.396 144.502 133.367 141.998L133.863 140.391L126.537 140.355Z" fill="#42210B"/>
<path d="M125.684 97.3104C125.684 97.3104 145.025 108.352 147.109 110.345C149.193 112.338 133.367 141.998 133.367 141.998C133.367 141.998 131.88 142.258 129.622 141.477C127.364 140.696 125.537 142.402 125.868 141.163C126.207 139.924 131.421 121.001 134.625 117.123C134.625 117.123 136.36 116.746 130.88 114.744C125.409 112.742 104.214 106.88 104.847 99.5098C105.774 88.9618 125.684 97.3104 125.684 97.3104Z" fill="#5579A6"/>
<path d="M160.063 89.9403L162.238 86.5919C162.614 86.0084 162.44 85.2364 161.843 84.8683L159.594 83.4679C158.998 83.0998 158.208 83.2704 157.832 83.8539L155.656 87.2023C155.28 87.7858 155.454 88.5579 156.051 88.9259L158.3 90.3264C158.897 90.6944 159.686 90.5238 160.063 89.9403Z" fill="#424242"/>
<path d="M105.737 139.456C105.737 139.456 100.275 143.936 103.497 148.613C104.745 150.426 118.606 149.6 121.479 148.487C124.352 147.374 125.224 143.514 121.397 143.703C111.859 144.16 112.612 138.442 113.365 138.343L105.737 139.456Z" fill="#8C6239"/>
<path opacity="0.1" d="M104.718 140.579C105.397 142.859 112.924 143.173 113.199 140.624L113.401 137.868L104.763 138.9C104.405 139.304 105.011 140.139 104.718 140.579Z" fill="black"/>
<path d="M99.9835 41.1414C100.066 36.0997 95.9545 31.9468 90.7992 31.8656C85.6439 31.7844 81.3974 35.8057 81.3144 40.8474C81.2314 45.889 85.3433 50.0419 90.4986 50.1231C95.6539 50.2042 99.9005 46.183 99.9835 41.1414Z" fill="#FFB9B9"/>
<path d="M92.6265 47.82C91.1762 50.0553 92.0023 54.5168 92.0023 54.5168L92.6541 61.8511L76.6543 52.6855C77.6916 51.6981 78.8849 50.8722 80.1792 50.2528C82.0426 49.4448 83.0799 42.5415 83.0799 42.5415C83.0799 42.5415 94.0861 45.5847 92.6265 47.82Z" fill="#FFB9B9"/>
<path d="M92.2146 41.1227C91.8016 41.7331 90.5532 38.4834 89.5159 38.0794C88.4786 37.6755 86.6152 43.3579 86.6152 43.9594C86.6152 44.5609 83.2922 45.7817 82.8792 46.7961C82.4661 47.8105 81.0157 48.017 81.0157 47.0026C81.0157 45.9882 77.2797 39.2913 76.2425 36.2481C75.2052 33.2049 81.6399 29.5513 83.0903 28.5369C84.5406 27.5225 91.5904 26.912 92.2146 27.7289C92.8388 28.5369 96.7768 28.3394 96.7768 28.3394C96.7768 28.3394 97.8141 28.7433 98.0252 29.3538C98.2364 29.9642 98.2364 30.1617 98.4383 29.7577C98.6494 29.3538 98.8514 29.9642 98.8514 29.9642C98.8514 29.9642 99.0625 31.5891 99.2644 31.3826C99.4756 31.1761 99.8886 31.3826 99.8886 31.3826C99.8886 31.3826 100.1 32.397 100.513 32.397C100.926 32.397 100.1 33.6179 99.6867 35.0362C99.2736 36.4546 93.463 36.8586 93.463 36.8586C93.463 36.8586 92.6277 40.5212 92.2146 41.1227Z" fill="#3F3D56"/>
<path d="M98.7781 30.341C98.7781 30.341 87.6342 33.088 87.0375 37.1905C86.4409 41.293 85.8993 46.6433 86.7347 48.7888C86.7347 48.7888 79.6482 48.2591 77.7388 47.0832C75.8295 45.9072 69.9455 40.2337 71.5335 32.5404C73.1124 24.8471 79.8133 20.1252 88.4236 21.3191C97.034 22.5131 100.531 28.6623 98.7781 30.341Z" fill="#079D49"/>
<path d="M81.5852 42.0114C83.3393 42.0114 84.7613 40.6208 84.7613 38.9054C84.7613 37.1899 83.3393 35.7993 81.5852 35.7993C79.8311 35.7993 78.4092 37.1899 78.4092 38.9054C78.4092 40.6208 79.8311 42.0114 81.5852 42.0114Z" fill="#444053"/>
<path d="M86.7334 48.7891C86.7334 48.7891 89.579 51.1232 91.9932 50.9795C92.0391 51.5271 89.2118 51.976 86.8986 50.5576C86.3203 50.1985 84.9066 49.3996 84.7598 48.6455L86.7334 48.7891Z" fill="#444053"/>
<path d="M69.6807 94.6255C69.6807 94.6255 68.7902 102.66 75.6197 106.673C78.6765 108.468 81.9719 109.77 92.767 109.77C98.2654 109.77 103.589 109.087 104.324 111.87C105.223 115.3 103.323 123.271 103.406 126.521C103.553 132.419 104.719 140.579 104.719 140.579C104.719 140.579 109.822 143.2 113.2 140.624C113.2 140.624 113.99 129.501 114.366 126.736C114.742 123.971 119.112 106.089 116.22 102.094C113.329 98.0996 95.686 97.1031 93.6298 95.595C91.5645 94.0958 69.6807 94.6255 69.6807 94.6255Z" fill="#4C495E"/>
<path opacity="0.1" d="M80.1901 51.6704C80.1901 51.6704 73.3331 51.1767 70.0836 60.6205C66.8249 70.0644 69.799 99.096 69.799 99.096C69.799 99.096 73.2413 101.179 74.8569 101.053C76.4725 100.927 82.7787 98.6562 85.248 98.1355C87.7265 97.6148 93.8032 98.9524 95.9053 98.2971C98.0074 97.6417 96.1348 71.6443 95.0791 64.9834C93.9225 57.721 92.0224 55.9256 92.0224 55.9256C92.0224 55.9256 91.3064 64.0677 80.1901 51.6704Z" fill="black"/>
<path d="M80.1901 50.252C80.1901 50.252 73.3331 49.7582 70.0836 59.2021C66.8249 68.6459 69.799 97.6776 69.799 97.6776C69.799 97.6776 73.2413 99.7602 74.8569 99.6346C76.4725 99.5089 82.7787 97.2377 85.248 96.717C87.7173 96.1964 93.8032 97.5339 95.9053 96.8786C98.0074 96.2233 96.1348 70.2258 95.0791 63.5649C93.9225 56.3025 92.0224 54.5071 92.0224 54.5071C92.0224 54.5071 91.3064 62.6492 80.1901 50.252Z" fill="#079D49"/>
<path d="M70.3682 72.1113C70.3682 72.1113 71.7267 88.8265 73.3515 90.5232C77.9228 95.3079 98.2645 98.9347 98.2645 98.9347C98.2645 98.9347 105.241 107.301 108.683 105.362C115.283 101.646 99.9994 95.3887 99.9994 95.3887C99.9994 95.3887 81.4753 87.3902 80.4839 85.8372C79.4925 84.2842 80.6858 72.1113 80.6858 72.1113H70.3682Z" fill="#FFB9B9"/>
<path opacity="0.1" d="M70.2488 74.131C70.4691 74.7504 82.9898 76.6176 83.9995 75.1364C84.7798 73.9964 82.843 63.3496 81.925 58.5649C81.6588 57.1734 80.5664 56.0782 79.1803 55.8179L76.1328 55.2344C72.1857 55.2972 70.0285 73.5116 70.2488 74.131Z" fill="black"/>
<path d="M68.9728 72.4969C69.1748 73.0804 81.0713 75.0195 82.0627 73.6639C82.8246 72.6136 81.1723 62.694 80.3828 58.2325C80.1534 56.9308 79.1345 55.9074 77.8126 55.6291L74.9211 55.0366C71.1576 55.0366 68.7801 71.9134 68.9728 72.4969Z" fill="#079D49"/>
</svg>
