<svg width="212" height="148" viewBox="0 0 212 148" fill="none" xmlns="http://www.w3.org/2000/svg">
<path d="M13.5298 42.8902C18.0277 54.4795 12.2906 67.8194 5.54372 77.8826C3.28558 81.249 0.797938 84.7769 0.476658 89.0141C0.100302 94.1848 3.16625 98.9337 6.81049 102.04C13.4472 107.704 22.5165 109.455 30.42 106.6C37.2495 104.14 42.9866 98.5567 49.8803 96.3124C61.4097 92.551 73.6184 98.7901 83.4771 106.564C108.289 121.044 149.56 118.548 164.66 113.871C174.858 110.712 195.916 85.145 200.965 74.5611C206.013 63.9772 208.382 52.0288 210.346 40.1791C211.741 31.7587 212.898 22.6829 209.694 14.9358C206.298 6.73975 198.44 1.77546 190.537 0.850828C182.633 -0.0738044 174.711 2.49362 167.432 6.12033C158.335 10.6537 149.422 17.0094 139.499 17.0274C132.743 17.0453 126.29 14.074 119.828 11.8297C109.005 8.05936 97.7786 6.18316 86.5797 4.45059C75.8581 2.78985 65.0356 1.25477 54.2497 2.23327C46.6216 2.9245 39.8839 6.25498 32.4761 7.79005C27.6478 8.79547 22.8011 8.03241 18.0645 9.73804C12.2355 11.8207 6.2322 16.6414 5.91092 24.2359C5.61718 31.4624 11.1431 36.741 13.5298 42.8902Z" fill="#CFDFD6"/>
<path opacity="0.7" d="M199.782 67.9817C199.782 75.5493 194.953 78.1975 189.005 78.1975C183.057 78.1975 178.229 75.5583 178.229 67.9817C178.229 60.4141 189.005 50.7817 189.005 50.7817C189.005 50.7817 199.782 60.4141 199.782 67.9817Z" fill="#088D3A"/>
<path d="M188.611 77.0385L188.721 70.7008L193.32 62.8638L188.739 69.7043L188.794 66.8586L191.961 61.1851L188.803 66.1045L188.895 60.9786L192.282 56.4632L188.904 60.1707L188.959 50.7808L188.611 63.2139L188.638 62.7022L185.196 57.7828L188.583 63.6897L188.262 69.4081L188.253 69.2555L184.287 64.0757L188.243 69.7941L188.207 70.5122L188.198 70.5212V70.5841L187.39 85.0999H188.473L188.601 77.5951L192.558 71.8947L188.611 77.0385Z" fill="#3F3D56"/>
<path d="M97.1627 97.012L113.163 92.2452L111.372 76.9663L97.1535 77.1907C97.1627 77.1997 93.3257 94.5613 97.1627 97.012Z" fill="#2B2B2B"/>
<path d="M47.8977 86.4642L59.3168 83.7353L57.9216 74.1567L46.9706 74.2914C46.9614 74.2914 45.9608 84.615 47.8977 86.4642Z" fill="#2B2B2B"/>
<path d="M112.201 80.9881C115.928 80.7368 119.122 85.4408 119.398 91.4733C119.646 96.9224 117.443 101.734 114.276 102.946C113.936 103.072 113.596 103.161 113.238 103.206C113.211 103.206 113.183 103.206 113.156 103.215L106.648 104.49L105.482 103.52C102.71 102.237 106.042 97.6315 105.812 92.775C105.638 89.1123 103.389 84.157 104.986 81.9577L110.843 81.3114C111.274 81.1228 111.733 81.0151 112.201 80.9881Z" fill="#4D4D4D"/>
<path d="M98.6258 93.9326C98.9379 100.279 102.417 105.019 106.327 104.525C110.164 104.05 112.992 98.6993 112.707 92.568C112.422 86.4278 109.109 81.661 105.253 81.9213C101.315 82.1906 98.3137 87.5679 98.6258 93.9326Z" fill="#808080"/>
<path d="M100.58 93.7529C100.763 97.4963 102.81 100.315 105.133 100.046C107.427 99.7854 109.135 96.6076 108.96 92.936C108.786 89.2644 106.803 86.4366 104.499 86.6251C102.158 86.8136 100.396 90.0095 100.58 93.7529Z" fill="white"/>
<path d="M102.271 93.5915C102.354 95.3869 103.336 96.7514 104.465 96.6347C105.576 96.518 106.411 94.9829 106.328 93.2055C106.246 91.428 105.273 90.0635 104.162 90.1623C103.024 90.261 102.189 91.7961 102.271 93.5915Z" fill="#4D4D4D"/>
<path d="M54.9575 76.0695C56.3528 76.0157 57.5462 79.1038 57.6563 82.8831C57.7481 86.3034 57.2341 88.9695 56.0408 89.562L51.4785 90.4059L51.0563 89.7505C50.0465 88.8349 51.2582 86.1687 51.1756 83.1883C51.1114 80.9441 50.2944 77.838 50.8727 76.5453L53.9111 76.2132C54.0763 76.1234 54.7831 76.0785 54.9575 76.0695Z" fill="#4D4D4D"/>
<path d="M48.5683 83.6296C48.6785 87.4808 49.936 90.524 51.368 90.4252C52.7908 90.3265 53.8465 87.1576 53.7363 83.3424C53.6262 79.5272 52.3961 76.484 50.9733 76.5378C49.5322 76.6007 48.4582 79.7785 48.5683 83.6296Z" fill="#808080"/>
<path d="M49.8258 83.5572C49.89 85.8374 50.6335 87.6328 51.478 87.5789C52.3225 87.5251 52.9467 85.6489 52.8825 83.3867C52.8182 81.1245 52.0838 79.3201 51.2393 79.356C50.3948 79.4009 49.7615 81.2771 49.8258 83.5572Z" fill="white"/>
<path d="M50.4414 83.5297C50.469 84.6249 50.8269 85.4957 51.24 85.4688C51.6439 85.4418 51.9469 84.5441 51.9194 83.449C51.8919 82.3538 51.5338 81.483 51.1299 81.5099C50.7168 81.5278 50.4047 82.4255 50.4414 83.5297Z" fill="#4D4D4D"/>
<path d="M182.681 71.5452C182.681 64.3456 182.681 41.8313 182.681 39.8563C182.681 37.8814 178.311 34.3624 171.445 30.2599C164.285 25.9868 159.595 24.7121 153.05 25.9599C146.248 27.2526 39.344 50.7185 39.344 50.7185C39.344 50.7185 36.3975 51.2481 36.3975 54.7312C36.3975 58.2143 36.3975 81.3571 36.3975 81.3571L40.1243 84.7953C40.1243 84.7953 43.025 85.4147 47.9085 86.465C47.8442 85.8097 47.8074 85.1274 47.8074 84.4182C47.8074 79.2923 49.5057 75.0373 51.5803 74.9206C53.6365 74.8039 55.2887 78.8076 55.2887 83.8526C55.2887 85.3159 55.1419 86.7163 54.894 87.9641C66.1388 90.37 81.8998 93.7454 97.1561 97.013C97.0643 96.1871 97.0093 95.3253 97.0093 94.4366C97.0093 86.5368 100.828 79.8579 105.445 79.5168C109.961 79.1846 113.541 85.0556 113.541 92.6412C113.541 95.3882 113.073 98.0005 112.265 100.254C132.882 104.67 149.782 108.297 151.489 108.665C156.391 109.132 178.302 96.627 180.533 92.8656C182.727 89.1581 183.186 88.7092 183.186 85.0286C183.204 81.366 184.058 75.2886 182.681 71.5452Z" fill="url(#paint0_linear)"/>
<path d="M153.038 25.9594C159.593 24.7116 164.274 25.9864 171.434 30.2594C178.3 34.3619 182.67 37.8809 182.67 39.8558C182.67 41.8308 182.67 64.3451 182.67 71.5447C184.047 75.2791 183.184 81.3566 183.184 85.0371C183.184 88.7087 182.725 89.1666 180.531 92.8741C178.355 96.5457 157.509 108.494 151.882 108.674V26.1838C152.387 26.0851 152.772 26.0132 153.038 25.9594Z" fill="#B3B3B3"/>
<path d="M39.3326 50.7178C39.3326 50.7178 139.636 28.6972 151.891 26.1836V108.673C151.753 108.682 151.615 108.673 151.496 108.664C149.789 108.287 132.889 104.67 112.272 100.253C113.08 97.9997 113.548 95.3874 113.548 92.6405C113.548 85.0639 109.968 79.1839 105.452 79.5161C100.835 79.8572 97.0162 86.5361 97.0162 94.4359C97.0162 95.3246 97.0712 96.1774 97.163 97.0123C81.9068 93.7446 66.1458 90.3693 54.901 87.9634C55.1488 86.7156 55.2956 85.3152 55.2956 83.8519C55.2956 78.8069 53.6433 74.8032 51.5871 74.9199C49.5125 75.0366 47.8144 79.2826 47.8144 84.4175C47.8144 85.1267 47.8511 85.809 47.9153 86.4643C43.0227 85.414 40.1312 84.7946 40.1312 84.7946L36.4044 81.3564C36.4044 81.3564 36.4044 58.2136 36.4044 54.7305C36.386 51.2474 39.3326 50.7178 39.3326 50.7178Z" fill="#999999"/>
<path d="M111.511 83.6641C112.778 85.9891 113.549 89.1311 113.549 92.6501C113.549 95.397 113.08 98.0093 112.273 100.263C122.985 102.561 132.66 104.634 139.664 106.134L138.976 96.3755L134.56 95.5945L130.843 85.63L111.511 83.6641Z" fill="#079D49"/>
<path d="M55.2873 83.8518C55.2873 85.3151 55.1405 86.7155 54.8927 87.9633C66.1375 90.3691 81.8985 93.7445 97.1547 97.0122C97.0629 96.1863 97.0079 95.3245 97.0079 94.4358C97.0079 89.651 98.4215 85.3061 100.56 82.5412L54.3418 77.8462C54.9385 79.4351 55.2873 81.5268 55.2873 83.8518Z" fill="#079D49"/>
<path d="M36.3867 81.3566L40.1135 84.7948C40.1135 84.7948 43.0143 85.4142 47.8978 86.4645C47.8335 85.8092 47.7967 85.1269 47.7967 84.4177C47.7967 81.6079 48.3108 79.0764 49.1094 77.3259L36.3867 76.0332C36.3867 79.1662 36.3867 81.3566 36.3867 81.3566Z" fill="#079D49"/>
<path d="M183.202 85.0369C183.202 83.0979 183.441 80.4856 183.46 77.9092C182.073 79.2019 177.456 82.8286 166.643 85.5217C162.806 86.5541 159.795 86.2399 159.795 86.2399V102.856C159.795 102.856 175.694 94.1666 182.101 90.1987C182.973 88.5918 183.202 87.5954 183.202 85.0369Z" fill="#CCCCCC"/>
<path opacity="0.9" d="M38.4336 53.1236L148.293 30.8696V98.0177L134.57 95.5849L125.629 71.6073L38.4336 70.0992V53.1236Z" fill="#808080"/>
<path opacity="0.2" d="M50.1923 50.7451L48.127 51.158V70.2701L50.1923 70.306V50.7451Z" fill="white"/>
<path opacity="0.2" d="M62.8337 48.1777L59.7402 48.8061V70.4767L62.8337 70.5215V48.1777Z" fill="white"/>
<path opacity="0.2" d="M84.5339 43.7881L70.8383 46.544L70.0029 70.8448L84.7084 70.8986L84.5339 43.7881Z" fill="white"/>
<path opacity="0.2" d="M103.249 40.1162L88.332 43.0158L88.4789 70.9612L103.249 71.2216V40.1162Z" fill="white"/>
<path opacity="0.2" d="M125.518 35.4839L107.095 39.2183V71.3111L125.628 71.6074L125.518 35.4839Z" fill="white"/>
<path opacity="0.2" d="M131.356 34.3082L143.923 31.7588V44.0393L131.356 45.9335V34.3082Z" fill="white"/>
<path opacity="0.9" d="M183.378 75.1351C183.277 73.8245 183.066 72.5947 182.68 71.5443C182.68 64.3986 182.68 42.1895 182.68 39.9093C181.542 38.6436 178.898 36.2287 173.097 32.9252C163.835 27.6557 156.537 27.8981 153.967 28.3828C153.967 28.3828 153.967 76.1944 153.967 78.7708C153.967 78.7708 158.538 80.9433 160.126 81.428C161.696 81.9128 168.47 82.245 175.878 79.1838C180.514 77.2717 182.552 76.383 183.378 75.1351Z" fill="#808080"/>
<path opacity="0.2" d="M157.803 28.1675V80.5125C158.721 80.9075 159.584 81.2666 160.116 81.4281C160.786 81.6346 162.42 81.8141 164.66 81.7064V29.3255C161.989 28.5624 159.666 28.2483 157.803 28.1675Z" fill="white"/>
<path opacity="0.2" d="M166.063 29.7656V81.6079C166.623 81.554 167.22 81.4822 167.835 81.3925V30.412C167.229 30.1786 166.642 29.9631 166.063 29.7656Z" fill="white"/>
<path opacity="0.2" d="M173.095 32.9251C172.149 32.3864 171.232 31.9107 170.332 31.4888V80.9252C171.434 80.6828 172.59 80.3596 173.765 79.9647V33.3111C173.545 33.1854 173.324 33.0597 173.095 32.9251Z" fill="white"/>
<path opacity="0.5" d="M153.967 75.6561C153.967 77.3258 153.967 78.4389 153.967 78.7711C153.967 78.7711 158.538 80.9435 160.126 81.4283C161.696 81.913 168.47 82.2452 175.878 79.184C180.514 77.2719 182.552 76.3742 183.378 75.1354C183.277 73.8247 183.066 72.5949 182.68 71.5446C182.68 71.4099 182.68 71.2663 182.68 71.1136C175.584 70.4314 158.446 74.5339 153.967 75.6561Z" fill="#B3B3B3"/>
<path opacity="0.9" d="M164.09 39.6311C170.195 41.3816 180.053 45.7175 182.688 48.7517C182.688 44.2722 182.688 40.7532 182.688 39.9093C181.55 38.6436 178.906 36.2287 173.105 32.9252C163.842 27.6557 156.545 27.8981 153.975 28.3828C153.975 28.3828 153.975 32.8354 153.975 39.0924C155.985 38.7243 160.428 38.5807 164.09 39.6311Z" fill="#B3B3B3"/>
<path d="M178.08 91.3924C173.83 94.0227 163.127 100.325 159.602 100.423C156.004 100.522 147.659 99.9026 147.659 99.9026L145.998 107.479C149.018 108.126 150.973 108.548 151.506 108.664C156.408 109.131 178.319 96.626 180.549 92.8647C182.101 90.2524 182.78 89.2559 183.046 87.6221C182.092 88.6634 180.54 89.8753 178.08 91.3924Z" fill="#079D49"/>
<path d="M178.08 91.3932C173.83 94.0235 163.127 100.325 159.602 100.424C159.547 100.424 159.483 100.424 159.428 100.424C157.436 103.701 154.7 106.609 151.598 108.674C156.692 108.97 178.328 96.6089 180.55 92.8744C182.101 90.2621 182.78 89.2657 183.046 87.6318C182.092 88.6642 180.54 89.8761 178.08 91.3932Z" fill="#079D49"/>
<path opacity="0.1" d="M178.08 91.3932C173.83 94.0235 163.127 100.325 159.602 100.424C159.547 100.424 159.483 100.424 159.428 100.424C157.436 103.701 154.7 106.609 151.598 108.674C156.692 108.97 178.328 96.6089 180.55 92.8744C182.101 90.2621 182.78 89.2657 183.046 87.6318C182.092 88.6642 180.54 89.8761 178.08 91.3932Z" fill="#252223"/>
<path d="M151.011 92.5057V98.7896C151.011 98.7896 155.591 99.409 158.997 99.1935C162.338 98.9781 167.396 96.7428 168.957 93.0982C165.432 91.8145 155.931 90.9257 151.011 92.5057Z" fill="#A8A8A8"/>
<path d="M159.795 97.9634C156.399 98.1699 151.846 97.5325 151.846 97.5325V92.272C151.561 92.3438 151.277 92.4156 151.02 92.5054V98.7893C151.02 98.7893 155.6 99.4087 159.006 99.1933C162.237 98.9868 167.047 96.8862 168.791 93.4659C166.67 96.168 162.622 97.7929 159.795 97.9634Z" fill="#999999"/>
<path d="M181.293 87.0302C182.128 87.0751 182.734 86.7878 183.156 86.4557C183.184 86.0338 183.193 85.5759 183.193 85.0373C183.193 84.4987 183.211 83.9062 183.239 83.2778C182.569 84.0499 181.559 85.4323 181.293 87.0302Z" fill="#999999"/>
<path d="M181.293 87.0302C182.468 86.8507 182.853 86.312 183.156 86.0427C183.184 85.6208 183.193 85.5759 183.193 85.0373C183.193 84.4987 183.211 83.9062 183.239 83.2778C182.569 84.0499 181.559 85.4323 181.293 87.0302Z" fill="#A8A8A8"/>
<path d="M159.244 94.8762C159.244 96.2946 158.362 97.5603 157.261 97.7129C156.159 97.8656 155.26 96.8243 155.26 95.3969C155.26 93.9606 156.159 92.6948 157.261 92.5601C158.362 92.4255 159.244 93.4579 159.244 94.8762Z" fill="url(#paint1_linear)"/>
<path d="M157.271 92.5509C157.197 92.5599 157.124 92.5779 157.06 92.5958C158.06 92.6138 158.831 93.6102 158.831 94.9298C158.831 96.2584 158.06 97.4523 157.06 97.7217C157.133 97.7217 157.197 97.7127 157.271 97.7037C158.363 97.5511 159.253 96.2853 159.253 94.867C159.244 93.4576 158.363 92.4252 157.271 92.5509Z" fill="#D1D1D1"/>
<path d="M163.872 94.5166C163.872 95.917 163.009 97.1648 161.944 97.3085C160.87 97.4521 159.998 96.4287 159.998 95.0193C159.998 93.6099 160.87 92.3531 161.944 92.2184C163.009 92.0928 163.872 93.1161 163.872 94.5166Z" fill="url(#paint2_linear)"/>
<path d="M161.942 92.2184C161.869 92.2274 161.795 92.2454 161.722 92.2634C162.686 92.2903 163.438 93.2688 163.438 94.5704C163.438 95.8721 162.695 97.0481 161.722 97.3264C161.795 97.3264 161.869 97.3264 161.942 97.3174C163.007 97.1738 163.87 95.917 163.87 94.5255C163.87 93.1162 163.007 92.0928 161.942 92.2184Z" fill="#D1D1D1"/>
<path d="M154.352 96.8776C154.352 97.0572 154.214 97.2188 154.04 97.2457L152.8 97.4163C152.626 97.4432 152.488 97.3085 152.488 97.129V92.9008C152.488 92.7213 152.626 92.5597 152.8 92.5328L154.04 92.3801C154.214 92.3622 154.352 92.4879 154.352 92.6674V96.8776Z" fill="url(#paint3_linear)"/>
<path d="M181.332 82.0394C181.369 81.6803 181.213 81.4559 180.965 81.5726C177.614 83.4398 174.062 84.8761 170.436 86.3932C170.179 86.5009 169.931 86.9049 169.885 87.2909C169.839 87.6769 170.014 87.8924 170.28 87.7846C173.915 86.2855 177.44 84.6697 180.818 82.8742C181.057 82.7575 181.286 82.3985 181.332 82.0394Z" fill="#999999"/>
<path d="M180.755 84.0767C180.792 83.7445 180.627 83.565 180.388 83.6907C177.221 85.3334 173.962 86.9583 170.566 88.3407C170.309 88.4574 170.061 88.8524 170.015 89.2384C169.969 89.6245 170.144 89.8399 170.41 89.7322C173.843 88.3857 177.047 86.5544 180.241 84.9116C180.489 84.7679 180.718 84.4088 180.755 84.0767Z" fill="#999999"/>
<path d="M180.232 86.034C180.268 85.7108 180.113 85.5492 179.865 85.6929C176.312 87.7755 174.394 88.6643 170.658 90.2981C170.401 90.4148 170.153 90.8187 170.107 91.2047C170.061 91.5907 170.235 91.8062 170.492 91.6985C174.238 90.0467 176.193 89.1041 179.718 86.9048C179.966 86.7342 180.195 86.3572 180.232 86.034Z" fill="#999999"/>
<path d="M179.707 88.0355C179.744 87.6944 179.579 87.5507 179.349 87.7033C176.081 89.8129 174.227 90.7106 170.757 92.2457C170.5 92.3624 170.252 92.7664 170.207 93.1524C170.161 93.5384 170.335 93.7538 170.592 93.6371C174.071 92.0841 175.953 91.1505 179.212 88.9422C179.45 88.7806 179.671 88.3676 179.707 88.0355Z" fill="#999999"/>
<path opacity="0.1" d="M145.993 67.8643V96.2676L136.134 94.544L127.129 70.306V68.0079L145.993 67.8643Z" fill="black"/>
<path d="M145.991 86.8864V96.2674L136.132 94.5438L132.791 85.5488L145.991 86.8864Z" fill="#079D49"/>
<path opacity="0.2" d="M135.783 94.9568L126.649 70.4136V46.6335L146.413 43.6621V96.7881L135.783 94.9568ZM127.604 47.4325V70.2072L136.49 94.1399L145.577 95.7378V44.6944L127.604 47.4325Z" fill="black"/>
<path opacity="0.1" d="M145.989 67.7207L127.125 67.9361" stroke="black" stroke-width="2.0424" stroke-miterlimit="10"/>
<path d="M130.44 74.8299C130.467 75.1351 130.77 75.3775 131.11 75.3775L135.387 75.3057C135.718 75.2967 135.966 75.0543 135.938 74.7491C135.911 74.4439 135.617 74.2104 135.286 74.2104L131.009 74.2733C130.66 74.2733 130.412 74.5246 130.44 74.8299Z" fill="#282828"/>
<path opacity="0.6" d="M179.037 71.0954C179.037 71.0864 179.046 71.0774 179.046 71.0774C179.33 70.1977 179.275 69.3808 178.899 68.7883C178.504 68.1689 177.788 67.8457 176.889 67.8996C175.007 67.9983 172.941 69.686 172.299 71.652C172.271 71.7238 172.253 71.7956 172.235 71.8674C172.106 71.8854 171.968 71.9033 171.84 71.9302C171.867 71.8046 171.904 71.6699 171.95 71.5353C172.648 69.4167 174.869 67.6123 176.889 67.5046C177.907 67.4507 178.715 67.8277 179.183 68.5549C179.606 69.2282 179.679 70.1169 179.395 71.0864C179.284 71.0864 179.156 71.0864 179.037 71.0954Z" fill="#282828"/>
<path d="M87.9121 144.169C89.7879 144.169 91.3084 142.751 91.3084 141C91.3084 139.25 89.7879 137.832 87.9121 137.832C86.0363 137.832 84.5156 139.25 84.5156 141C84.5156 142.751 86.0363 144.169 87.9121 144.169Z" fill="#3C354C"/>
<path d="M70.1864 144.169C72.0622 144.169 73.5828 142.751 73.5828 141C73.5828 139.25 72.0622 137.832 70.1864 137.832C68.3106 137.832 66.79 139.25 66.79 141C66.79 142.751 68.3106 144.169 70.1864 144.169Z" fill="#3C354C"/>
<path d="M75.4654 64.6597H73.96V103.539H75.4654V64.6597Z" fill="#3C354C"/>
<path d="M83.5699 64.6597H82.0645V103.539H83.5699V64.6597Z" fill="#3C354C"/>
<path d="M74.3255 65.71L73.9492 64.6507C73.9492 64.6507 78.0982 60.0815 83.9455 63.762L83.5692 65.3509H82.0638C82.0638 65.3509 79.6128 63.4298 75.4637 65.6202L74.3255 65.71Z" fill="#3C354C"/>
<path d="M73.3889 101.071C73.3889 101.071 68.2943 101.25 67.5416 106.699C66.7889 112.149 67.5416 137.482 67.5416 137.482C67.5416 137.482 73.3889 141.53 80.5581 141.001C87.7272 140.471 99.229 138.541 99.229 138.541V108.836C99.229 104.401 95.2635 100.784 90.5177 101.044C90.4076 101.044 90.2791 101.053 90.1781 101.071H73.3889Z" fill="#3C354C"/>
<path d="M80.743 145.049C82.6188 145.049 84.1395 143.63 84.1395 141.88C84.1395 140.13 82.6188 138.711 80.743 138.711C78.8672 138.711 77.3467 140.13 77.3467 141.88C77.3467 143.63 78.8672 145.049 80.743 145.049Z" fill="#3C354C"/>
<path d="M99.2303 143.64C101.106 143.64 102.627 142.221 102.627 140.471C102.627 138.721 101.106 137.302 99.2303 137.302C97.3546 137.302 95.834 138.721 95.834 140.471C95.834 142.221 97.3546 143.64 99.2303 143.64Z" fill="#3C354C"/>
<path d="M52.6265 60.0169C52.6265 60.0169 60.7227 60.5196 62.1639 59.5142C63.6051 58.5088 69.7186 60.8607 70.2602 62.1983C70.8018 63.5449 61.6224 63.7064 60.1812 63.7064C58.7401 63.7064 51.9014 65.7263 51.9014 65.7263L52.6265 60.0169Z" fill="#F8BDC5"/>
<path d="M36.4607 134.015C36.4607 134.015 32.688 142.256 34.6432 143.234C36.6076 144.213 57.2889 143.513 57.2889 143.513C57.2889 143.513 60.7312 141.672 56.7932 140.389C56.7932 140.389 53.5069 140.245 51.3773 139.114C49.2477 137.983 46.7784 135.846 46.7784 135.846C46.7784 135.846 46.6132 132.722 45.3005 133.431C44.5111 133.88 43.9695 134.607 43.8226 135.415L36.4607 134.015Z" fill="#3F3D56"/>
<path d="M36.4607 134.015C36.4607 134.015 32.688 142.256 34.6432 143.234C36.6076 144.213 57.2889 143.513 57.2889 143.513C57.2889 143.513 60.7312 141.672 56.7932 140.389C56.7932 140.389 53.5069 140.245 51.3773 139.114C49.2477 137.983 46.7784 135.846 46.7784 135.846C46.7784 135.846 46.6132 132.722 45.3005 133.431C44.5111 133.88 43.9695 134.607 43.8226 135.415L36.4607 134.015Z" fill="#8C6239"/>
<path opacity="0.05" d="M36.4607 134.015C36.4607 134.015 32.688 142.256 34.6432 143.234C36.6076 144.213 57.2889 143.513 57.2889 143.513C57.2889 143.513 60.7312 141.672 56.7932 140.389C56.7932 140.389 53.5069 140.245 51.3773 139.114C49.2477 137.983 46.7784 135.846 46.7784 135.846C46.7784 135.846 46.6132 132.722 45.3005 133.431C44.5111 133.88 43.9695 134.607 43.8226 135.415L36.4607 134.015Z" fill="black"/>
<path opacity="0.05" d="M36.4607 134.015C36.4607 134.015 32.688 142.256 34.6432 143.234C36.6076 144.213 57.2889 143.513 57.2889 143.513C57.2889 143.513 60.7312 141.672 56.7932 140.389C56.7932 140.389 53.5069 140.245 51.3773 139.114C49.2477 137.983 46.7784 135.846 46.7784 135.846C46.7784 135.846 46.6132 132.722 45.3005 133.431C44.5111 133.88 43.9695 134.607 43.8226 135.415L36.4607 134.015Z" fill="black"/>
<path d="M30.6338 136.538C30.6338 136.538 26.4939 145.56 28.651 146.655C30.8082 147.75 53.4814 146.969 53.4814 146.969C53.4814 146.969 57.2634 144.949 52.9399 143.54C52.9399 143.54 49.3414 143.387 47.0007 142.139C44.6599 140.892 41.9612 138.558 41.9612 138.558C41.9612 138.558 41.7776 135.128 40.3456 135.909C39.4736 136.403 37.7296 135.164 37.5643 136.053L30.6338 136.538Z" fill="#8C6239"/>
<path d="M53.2329 72.6118L49.3592 98.8606C49.3592 98.8606 48.4504 108.206 45.7608 110.225C45.7608 110.225 45.7608 113.188 44.8521 114.122L43.5945 126.42C43.5945 126.42 45.3937 130.935 45.2193 131.716C45.0357 132.497 45.9352 134.984 45.7608 135.298C45.5772 135.612 37.123 135.298 37.123 135.298L38.9222 110.234L43.1814 72.8811L53.2329 72.6118Z" fill="#3C354C"/>
<path d="M53.2329 72.6118L49.3592 98.8606C49.3592 98.8606 48.4504 108.206 45.7608 110.225C45.7608 110.225 45.7608 113.188 44.8521 114.122L43.5945 126.42C43.5945 126.42 45.3937 130.935 45.2193 131.716C45.0357 132.497 45.9352 134.984 45.7608 135.298C45.5772 135.612 37.123 135.298 37.123 135.298L38.9222 110.234L43.1814 72.8811L53.2329 72.6118Z" fill="#4C495E"/>
<path opacity="0.1" d="M53.2329 73.1504L49.3592 99.3992C49.3592 99.3992 48.4504 108.744 45.7608 110.764C45.7608 110.764 45.7608 113.726 44.8521 114.66L43.5945 126.959C43.5945 126.959 45.3937 131.474 45.2193 132.255C45.0357 133.036 45.9352 135.523 45.7608 135.837C45.5772 136.151 37.123 135.837 37.123 135.837L38.9222 110.773L43.1814 73.4197L53.2329 73.1504Z" fill="black"/>
<path opacity="0.05" d="M53.2329 72.6118L49.3592 98.8606C49.3592 98.8606 48.4504 108.206 45.7608 110.225C45.7608 110.225 45.7608 113.188 44.8521 114.122L43.5945 126.42C43.5945 126.42 45.3937 130.935 45.2193 131.716C45.0357 132.497 45.9352 134.984 45.7608 135.298C45.5772 135.612 37.123 135.298 37.123 135.298L38.9222 110.234L43.1814 72.8811L53.2329 72.6118Z" fill="black"/>
<path opacity="0.05" d="M53.2329 72.6118L49.3592 98.8606C49.3592 98.8606 48.4504 108.206 45.7608 110.225C45.7608 110.225 45.7608 113.188 44.8521 114.122L43.5945 126.42C43.5945 126.42 45.3937 130.935 45.2193 131.716C45.0357 132.497 45.9352 134.984 45.7608 135.298C45.5772 135.612 37.123 135.298 37.123 135.298L38.9222 110.234L43.1814 72.8811L53.2329 72.6118Z" fill="black"/>
<path opacity="0.1" d="M47.2652 79.1558C47.2652 79.1558 45.2824 95.1887 44.3828 98.6179C43.8137 100.871 43.4558 103.16 43.2997 105.467C43.2997 105.467 43.116 110.45 41.5005 111.85C40.5458 112.667 40.0226 113.798 40.0593 114.956C40.0593 114.956 38.4345 130.675 39.3341 132.551C40.2337 134.418 41.1333 135.98 40.2429 137.219C39.3525 138.467 29.4479 138.467 29.4479 137.533C29.4479 136.6 29.4479 135.819 28.9063 135.352C28.3647 134.885 28.9063 131.923 28.9063 131.923C28.9063 131.923 26.7492 118.071 28.7228 114.023C30.7055 109.974 31.6051 98.9142 31.6051 98.9142C31.6051 98.9142 30.1639 86.3015 28.3648 84.2817C26.5656 82.2529 28.7228 75.0981 28.7228 75.0981L47.2652 79.1558Z" fill="black"/>
<path d="M48.1017 72.7017C48.1017 72.7017 45.3937 94.6595 44.4941 98.0887C43.925 100.342 43.5671 102.631 43.411 104.938C43.411 104.938 43.2274 109.92 41.6118 111.321C40.6571 112.138 40.1339 113.269 40.1707 114.427C40.1707 114.427 38.5459 130.146 39.4455 132.022C40.345 133.889 41.2446 135.451 40.3542 136.69C39.4638 137.938 29.5592 137.938 29.5592 137.004C29.5592 136.07 29.5592 135.289 29.0176 134.823C28.476 134.356 29.0176 131.393 29.0176 131.393C29.0176 131.393 26.8605 117.542 28.8341 113.493C30.8077 109.445 31.7164 98.3849 31.7164 98.3849C31.7164 98.3849 30.2752 85.7722 28.4761 83.7524C26.6769 81.7236 28.8341 74.5689 28.8341 74.5689L48.1017 72.7017Z" fill="#4C495E"/>
<path opacity="0.05" d="M52.6265 60.0169C52.6265 60.0169 60.7227 60.5196 62.1639 59.5142C63.6051 58.5088 69.7186 60.8607 70.2602 62.1983C70.8018 63.5449 61.6224 63.7064 60.1812 63.7064C58.7401 63.7064 51.9014 65.7263 51.9014 65.7263L52.6265 60.0169Z" fill="black"/>
<path d="M49.2206 19.9433C53.0481 19.9433 56.1511 18.4402 56.1511 16.5859C56.1511 14.7317 53.0481 13.2285 49.2206 13.2285C45.393 13.2285 42.29 14.7317 42.29 16.5859C42.29 18.4402 45.393 19.9433 49.2206 19.9433Z" fill="#3F3D56"/>
<path d="M59.3841 15.1948C59.3841 15.1948 59.2739 16.703 59.788 17.4032C60.302 18.1034 58.7599 18.8574 58.5488 19.6743C58.3376 20.4913 56.0244 21.9994 56.0244 21.9994L56.4466 15.9579L59.3841 15.1948Z" fill="#3F3D56"/>
<path d="M50.3607 27.6822C54.7662 27.6822 58.3376 24.3503 58.3376 20.2403C58.3376 16.1302 54.7662 12.7983 50.3607 12.7983C45.9551 12.7983 42.3838 16.1302 42.3838 20.2403C42.3838 24.3503 45.9551 27.6822 50.3607 27.6822Z" fill="#FFB9B9"/>
<path d="M50.2779 25.5371C49.6078 26.6502 48.8367 28.9573 48.3227 30.654C47.9371 31.9287 48.1942 33.2932 49.0111 34.3704L50.9755 36.9558L35.3613 29.1458C36.1967 28.293 38.3263 26.8477 39.4095 26.2822C42.916 24.4329 41.8879 21.668 41.8879 21.668C41.8879 21.668 51.4162 23.6519 50.2779 25.5371Z" fill="#FFB9B9"/>
<path d="M47.4511 21.3711C46.9279 21.7751 46.9004 18.7409 46.1752 18.1394C45.4592 17.538 44.5871 20.7427 44.4035 21.2544C44.2199 21.7661 43.1184 21.9546 42.4758 22.6997C41.8333 23.4448 40.5941 23.2563 40.9062 22.4035C41.2091 21.5507 40.1901 14.9885 40.2636 12.1697C40.337 9.3509 46.6433 7.90562 48.1212 7.42086C49.5991 6.9361 55.5014 8.20185 55.7676 9.03671C56.0338 9.87158 59.2833 10.6974 59.2833 10.6974C59.2833 10.6974 59.9993 11.2989 59.9902 11.8644C59.981 12.43 59.9167 12.6006 60.2013 12.3133C60.4858 12.026 60.4767 12.5916 60.4767 12.5916C60.4767 12.5916 60.1554 14.0099 60.3849 13.8843C60.6144 13.7676 60.8897 14.0369 60.8897 14.0369C60.8897 14.0369 60.7521 14.9436 61.0917 15.0423C61.4314 15.1411 58.9988 16.2632 56.0431 17.0442C54.7029 17.3943 49.7368 18.1125 49.7368 18.1125C49.7368 18.1125 47.9744 20.9582 47.4511 21.3711Z" fill="#3F3D56"/>
<path d="M39.4087 26.2725C39.4087 26.2725 31.5969 26.2276 28.4117 36.0215C25.2264 45.8154 28.1363 75.8974 28.1363 75.8974C28.1363 75.8974 31.5052 77.3247 33.0841 77.1991C34.6629 77.0734 40.8407 74.7124 43.264 74.1738C45.6874 73.6352 50.938 74.3982 52.9942 73.716C55.0504 73.0337 53.2329 46.381 52.9208 38.7685C52.6087 31.1559 48.3403 30.6533 48.3403 30.6533C48.3403 30.6533 46.9909 38.1042 39.4087 26.2725Z" fill="#079D49"/>
<path d="M26.916 66.9563L39.4093 48.7958L40.878 48.311L28.7703 67.4769L27.3659 67.9258L26.916 66.9563Z" fill="#3C354C"/>
<path d="M71.2427 55.7446L63.1465 61.1129L68.186 61.6156L75.1991 56.0768L71.2427 55.7446Z" fill="#3F3D56"/>
<path d="M30.6231 30.5458V58.0693L28.7873 67.4593L27.9244 71.8311H21.6364L12.8242 68.8058V48.4998C12.8242 48.4998 20.2046 34.8996 22.5361 32.3861C24.8677 29.8725 30.6231 30.5458 30.6231 30.5458Z" fill="#3C354C"/>
<path opacity="0.1" d="M28.7877 67.4595L27.934 71.8313H21.6368L12.8154 68.815L28.7877 67.4595Z" fill="black"/>
<path d="M30.7709 44.021C30.7709 44.021 30.0548 47.0463 29.4857 51.6964C29.0176 55.5745 27.5947 59.3089 31.8815 59.5513C35.4891 59.7578 39.8402 58.7164 43.4201 57.9623C45.6875 57.4865 48.074 56.912 51.3786 55.359C51.3786 55.359 53.5358 55.2602 54.619 56.2746C55.7022 57.2801 66.4972 58.2855 63.2569 55.2692C60.0257 52.244 54.977 51.5797 54.977 51.5797L48.1384 51.9118C48.1384 51.9118 39.3995 51.3732 37.3066 52.7647C36.7467 53.1327 38.2705 45.2778 38.2705 45.2778L30.7709 44.021Z" fill="#F8BDC5"/>
<path opacity="0.1" d="M27.6045 45.6181C27.7422 46.2106 39.4001 49.2717 40.5476 48.0419C41.4288 47.0903 40.878 37.2335 40.575 32.7989C40.4924 31.5062 39.5837 30.9766 38.2985 30.5816L34.0118 29.7108C30.2574 29.3338 27.4668 45.0256 27.6045 45.6181Z" fill="black"/>
<path d="M27.604 44.2979C27.7233 44.8455 38.7937 47.9157 39.8953 46.7936C40.749 45.9318 40.3726 36.7572 40.1615 32.6278C40.0972 31.4249 39.262 30.3836 38.0411 29.9886L35.3607 29.1358C31.7807 28.7229 27.4847 43.7503 27.604 44.2979Z" fill="#079D49"/>
<path d="M37.1876 52.5571C37.1876 52.5571 43.1633 48.6341 43.8977 37.6821C44.3658 30.5723 41.9792 29.145 40.0148 27.6818C36.6827 25.1951 29.4218 26.3711 27.3564 33.7772L27.7145 36.964C27.7145 36.964 32.9925 22.7354 40.0148 30.4556C45.1736 37.745 37.1876 52.5571 37.1876 52.5571Z" fill="#3C354C"/>
<defs>
<linearGradient id="paint0_linear" x1="109.926" y1="25.503" x2="109.926" y2="108.681" gradientUnits="userSpaceOnUse">
<stop stop-color="white"/>
<stop offset="0.4388" stop-color="#FDFDFD"/>
<stop offset="0.6846" stop-color="#F5F5F5"/>
<stop offset="0.882" stop-color="#E7E7E8"/>
<stop offset="0.9677" stop-color="#DEDFE0"/>
</linearGradient>
<linearGradient id="paint1_linear" x1="155.262" y1="95.1365" x2="159.247" y2="95.1365" gradientUnits="userSpaceOnUse">
<stop offset="0.0323" stop-color="#DEDFE0"/>
<stop offset="0.118" stop-color="#E7E7E8"/>
<stop offset="0.3154" stop-color="#F5F5F5"/>
<stop offset="0.5612" stop-color="#FDFDFD"/>
<stop offset="1" stop-color="white"/>
</linearGradient>
<linearGradient id="paint2_linear" x1="159.991" y1="94.7669" x2="163.87" y2="94.7669" gradientUnits="userSpaceOnUse">
<stop offset="0.0323" stop-color="#DEDFE0"/>
<stop offset="0.118" stop-color="#E7E7E8"/>
<stop offset="0.3154" stop-color="#F5F5F5"/>
<stop offset="0.5612" stop-color="#FDFDFD"/>
<stop offset="1" stop-color="white"/>
</linearGradient>
<linearGradient id="paint3_linear" x1="152.489" y1="94.8999" x2="154.349" y2="94.8999" gradientUnits="userSpaceOnUse">
<stop stop-color="#FF9D00"/>
<stop offset="0.1153" stop-color="#FFA500"/>
<stop offset="0.2979" stop-color="#FFBC00"/>
<stop offset="0.4892" stop-color="#FFDB00"/>
<stop offset="0.6096" stop-color="#FFD300"/>
<stop offset="0.8002" stop-color="#FFBC00"/>
<stop offset="1" stop-color="#FF9D00"/>
</linearGradient>
</defs>
</svg>
